<svg width="380" height="516" viewBox="0 0 380 516" fill="none" xmlns="http://www.w3.org/2000/svg">
<path d="M189.081 387.401V390.688V393.958C190.464 399.61 194.816 403.135 200.489 403.197C207.17 403.27 212.898 397.539 212.505 390.688C212.134 384.211 206.804 379.624 200.489 379.57C195.131 379.524 191.089 382.298 189.081 387.401Z" fill="url(#paint0_linear_115_304)"/>
<path d="M18.9726 294.169H16.0865C10.6845 295.586 7.25306 299.646 7.25306 305.373C7.25306 311.726 12.788 317.198 18.9726 317.198C25.1772 317.198 30.4683 311.901 30.4683 305.85C30.4683 300.383 27.3877 296.315 22.4929 294.169H18.9726Z" fill="url(#paint1_linear_115_304)"/>
<path fill-rule="evenodd" clip-rule="evenodd" d="M189.081 390.688V387.401C191.089 382.298 195.131 379.524 200.489 379.57C206.804 379.624 212.134 384.211 212.505 390.688C212.898 397.539 207.17 403.27 200.489 403.197C194.816 403.135 190.464 399.61 189.081 393.958V390.688Z" fill="url(#paint2_linear_115_304)"/>
<path d="M257.865 351.975C257.497 345.594 251.851 340.571 245.629 340.495C240.361 340.43 236.416 343.739 234.266 348.679V352.803V356.597C236.383 361.56 240.354 364.66 245.629 364.576C252.202 364.472 258.268 358.946 257.865 351.975Z" fill="url(#paint3_linear_115_304)"/>
<path d="M239.479 189.346C241.331 194.597 245.474 198.033 250.911 197.986C257.312 197.931 262.948 192.528 262.835 185.953C262.723 179.485 257.208 174.406 250.911 174.324C245.545 174.253 241.476 177.519 239.479 182.636V185.953V189.346Z" fill="url(#paint4_linear_115_304)"/>
<path d="M189.136 130.877C190.67 136.474 195.125 140.101 200.784 139.976C207.35 139.83 213.027 133.947 212.823 127.204C212.625 120.672 207.142 115.402 200.784 115.189C195.293 115.006 191.008 118.226 189.136 123.531V127.204V130.877Z" fill="url(#paint5_linear_115_304)"/>
<path d="M60.4639 135.264C61.8239 135.264 63.9464 135.264 63.9464 135.264C63.9464 135.264 66.3014 135.264 67.6614 135.264C72.5765 133.726 75.821 129.06 75.6878 123.839C75.5547 118.618 69.9204 111.84 63.247 112.034C56.9663 112.216 51.24 117.262 51.5313 123.839C51.7724 129.28 55.2954 134.047 60.4639 135.264Z" fill="url(#paint6_linear_115_304)"/>
<path d="M67.429 165.791C67.429 165.791 67.6614 147.186 67.6614 135.264C66.3014 135.264 63.9464 135.264 63.9464 135.264C63.9464 135.264 61.8239 135.264 60.4639 135.264C60.4639 148.365 60.4639 168.812 60.4639 168.812L87.8598 195.682V354.36L61.5474 379.322C61.5474 379.322 61.5474 388.044 61.5474 393.632C62.6656 393.632 64.4108 393.632 64.4108 393.632C64.4108 393.632 66.156 393.632 67.2742 393.632C67.2742 389.596 67.2742 383.297 67.2742 383.297L93.7414 357.247V192.821L67.429 165.791Z" fill="url(#paint7_linear_115_304)"/>
<path d="M76.1737 406.034C76.1737 399.555 73.0472 394.939 67.2742 393.632H64.4108H61.5474C56.2228 394.758 52.7256 399.154 52.7256 405.24C52.7256 411.325 58.8524 417.27 65.029 417.27C71.8462 417.27 76.1737 412.512 76.1737 406.034Z" fill="url(#paint8_linear_115_304)"/>
<path d="M24.1969 155.213C18.7997 156.03 15.0808 160.197 14.7571 165.791C14.3706 172.472 20.1399 178.027 26.6513 177.807C32.9558 177.595 38.0125 172.267 37.7902 165.791C37.6137 160.649 34.8848 156.874 30.144 155.213H27.1704H24.1969Z" fill="url(#paint9_linear_115_304)"/>
<path d="M27.1704 155.213H30.144C30.144 155.213 30.144 104.801 30.144 72.4983C28.8169 72.4983 26.7457 72.4983 26.7457 72.4983C26.7457 72.4983 25.0772 72.4983 24.0081 72.4983C24.0819 104.801 24.1969 155.213 24.1969 155.213H27.1704Z" fill="url(#paint10_linear_115_304)"/>
<path d="M30.144 72.4983C34.8543 71.3208 37.5816 67.5844 37.7465 62.6074C37.9515 56.4226 32.7615 49.9855 26.7457 50.314C21.0435 50.6255 15.8051 56.0271 15.9477 61.891C16.0659 66.7521 19.4722 71.1075 24.0081 72.4983H26.7457H30.144Z" fill="url(#paint11_linear_115_304)"/>
<path d="M68.0848 253.387C72.1822 253.387 77.4798 247.835 77.5007 242.326C77.5247 235.985 71.4931 230.127 65.3213 230.223C59.2476 230.317 53.3233 236.086 53.3349 242.326C53.3451 247.805 58.5233 253.387 62.7881 253.387L62.9382 339.732L30.778 371.849V437.729C25.4033 438.659 22.1651 443.658 22.019 449.255C21.8467 455.855 27.2166 460.927 33.6566 460.927C39.8569 460.927 45.1866 455.624 45.1061 449.255C45.0387 443.92 41.7703 439.156 36.7655 437.729L35.6716 374.626L68.0848 342.749V253.387Z" fill="url(#paint12_linear_115_304)"/>
<path fill-rule="evenodd" clip-rule="evenodd" d="M108.798 160.38H160.077L6.41649 9.26474V215.334L22.4929 231.961V294.169H18.9726H16.0865V234.196L1.1012 219.544V1.37761L250.873 0L379.234 131.858V384.224L251.523 515.749H0V359.188L35.7135 325.806V302.687V225.419C30.2776 224.174 26.7949 219.822 26.6563 214.103C26.4936 207.392 31.9172 202.014 38.451 201.91C45.0874 201.805 50.8089 207.288 50.6154 214.103C50.4503 219.917 46.7549 224.353 41.1886 225.419V328.595L6.29565 363.116V506L161.157 357.247H108.798V160.38ZM215.012 417.27L280.431 350.641V265.003L196.916 348.679H234.266V352.803V356.597H188.575L173.569 371.56H154.357L142.008 382.987L138.524 387.401H189.081V390.688V393.958L130.343 394.415L107.011 417.27H215.012ZM171.544 366.159H160.766L170.075 356.597H180.94L171.544 366.159ZM186.474 350.965H114.387L114.601 166.785H184.97L208.121 190.225L209.595 327.435L186.474 350.965ZM216.31 320.602L215.845 197.509L226.309 208.27L226.089 310.65L216.31 320.602ZM276.876 258.964L232.778 303.842V214.58L276.876 258.964ZM108.862 98.7001H214.372L280.431 165.384V254.435L215.473 189.346H239.479C241.331 194.597 245.474 198.033 250.911 197.986C257.312 197.931 262.948 192.528 262.835 185.953C262.723 179.485 257.208 174.406 250.911 174.324C245.545 174.253 241.476 177.519 239.479 182.636H208.672L186.603 160.38H169.826L139.211 130.316L189.136 130.877C190.67 136.474 195.125 140.101 200.784 139.976C207.35 139.83 213.027 133.947 212.823 127.204C212.625 120.672 207.142 115.402 200.784 115.189C195.293 115.006 191.008 118.226 189.136 123.531H132.723L108.862 98.7001Z" fill="url(#paint13_linear_115_304)"/>
<defs>
<linearGradient id="paint0_linear_115_304" x1="365.801" y1="99.4172" x2="100.722" y2="245.476" gradientUnits="userSpaceOnUse">
<stop stop-color="#00FF80"/>
<stop offset="1" stop-color="#007735"/>
</linearGradient>
<linearGradient id="paint1_linear_115_304" x1="365.801" y1="99.4172" x2="100.722" y2="245.476" gradientUnits="userSpaceOnUse">
<stop stop-color="#00FF80"/>
<stop offset="1" stop-color="#007735"/>
</linearGradient>
<linearGradient id="paint2_linear_115_304" x1="365.801" y1="99.4172" x2="100.722" y2="245.476" gradientUnits="userSpaceOnUse">
<stop stop-color="#00FF80"/>
<stop offset="1" stop-color="#007735"/>
</linearGradient>
<linearGradient id="paint3_linear_115_304" x1="365.801" y1="99.4172" x2="100.722" y2="245.476" gradientUnits="userSpaceOnUse">
<stop stop-color="#00FF80"/>
<stop offset="1" stop-color="#007735"/>
</linearGradient>
<linearGradient id="paint4_linear_115_304" x1="365.801" y1="99.4172" x2="100.722" y2="245.476" gradientUnits="userSpaceOnUse">
<stop stop-color="#00FF80"/>
<stop offset="1" stop-color="#007735"/>
</linearGradient>
<linearGradient id="paint5_linear_115_304" x1="365.801" y1="99.4172" x2="100.722" y2="245.476" gradientUnits="userSpaceOnUse">
<stop stop-color="#00FF80"/>
<stop offset="1" stop-color="#007735"/>
</linearGradient>
<linearGradient id="paint6_linear_115_304" x1="365.801" y1="99.4172" x2="100.722" y2="245.476" gradientUnits="userSpaceOnUse">
<stop stop-color="#00FF80"/>
<stop offset="1" stop-color="#007735"/>
</linearGradient>
<linearGradient id="paint7_linear_115_304" x1="365.801" y1="99.4172" x2="100.722" y2="245.476" gradientUnits="userSpaceOnUse">
<stop stop-color="#00FF80"/>
<stop offset="1" stop-color="#007735"/>
</linearGradient>
<linearGradient id="paint8_linear_115_304" x1="365.801" y1="99.4172" x2="100.722" y2="245.476" gradientUnits="userSpaceOnUse">
<stop stop-color="#00FF80"/>
<stop offset="1" stop-color="#007735"/>
</linearGradient>
<linearGradient id="paint9_linear_115_304" x1="365.801" y1="99.4172" x2="100.722" y2="245.476" gradientUnits="userSpaceOnUse">
<stop stop-color="#00FF80"/>
<stop offset="1" stop-color="#007735"/>
</linearGradient>
<linearGradient id="paint10_linear_115_304" x1="365.801" y1="99.4172" x2="100.722" y2="245.476" gradientUnits="userSpaceOnUse">
<stop stop-color="#00FF80"/>
<stop offset="1" stop-color="#007735"/>
</linearGradient>
<linearGradient id="paint11_linear_115_304" x1="365.801" y1="99.4172" x2="100.722" y2="245.476" gradientUnits="userSpaceOnUse">
<stop stop-color="#00FF80"/>
<stop offset="1" stop-color="#007735"/>
</linearGradient>
<linearGradient id="paint12_linear_115_304" x1="365.801" y1="99.4172" x2="100.722" y2="245.476" gradientUnits="userSpaceOnUse">
<stop stop-color="#00FF80"/>
<stop offset="1" stop-color="#007735"/>
</linearGradient>
<linearGradient id="paint13_linear_115_304" x1="365.801" y1="99.4172" x2="100.722" y2="245.476" gradientUnits="userSpaceOnUse">
<stop stop-color="#00FF80"/>
<stop offset="1" stop-color="#007735"/>
</linearGradient>
</defs>
</svg>
