<svg width="371" height="491" viewBox="0 0 371 491" fill="none" xmlns="http://www.w3.org/2000/svg">
<g filter="url(#filter0_i_257_66)">
<path d="M184.703 367.753V370.867V373.966C186.049 379.322 190.286 382.662 195.808 382.721C202.311 382.79 207.887 377.359 207.505 370.867C207.143 364.73 201.955 360.383 195.808 360.332C190.592 360.288 186.658 362.917 184.703 367.753Z" fill="#219E68"/>
<path d="M19.1167 279.406H16.3073C11.0489 280.748 7.70869 284.595 7.70869 290.022C7.70869 296.043 13.0965 301.227 19.1167 301.227C25.1564 301.227 30.3069 296.208 30.3069 290.475C30.3069 285.294 27.3081 281.439 22.5434 279.406H19.1167Z" fill="#219E68"/>
<path fill-rule="evenodd" clip-rule="evenodd" d="M184.703 370.867V367.753C186.658 362.917 190.592 360.288 195.808 360.332C201.955 360.383 207.143 364.73 207.505 370.867C207.887 377.359 202.311 382.79 195.808 382.721C190.286 382.662 186.049 379.322 184.703 373.966V370.867Z" fill="#219E68"/>
<path d="M251.659 334.182C251.3 328.136 245.804 323.377 239.747 323.304C234.62 323.243 230.78 326.378 228.687 331.059V334.967V338.563C230.748 343.266 234.614 346.203 239.747 346.124C246.146 346.025 252.051 340.789 251.659 334.182Z" fill="#219E68"/>
<path d="M233.762 180.075C235.564 185.051 239.597 188.307 244.889 188.263C251.121 188.21 256.607 183.09 256.496 176.86C256.388 170.731 251.019 165.918 244.889 165.84C239.666 165.773 235.706 168.868 233.762 173.717V176.86V180.075Z" fill="#219E68"/>
<path d="M184.757 124.67C186.25 129.973 190.586 133.411 196.095 133.292C202.486 133.154 208.013 127.579 207.814 121.189C207.621 115 202.284 110.006 196.095 109.804C190.75 109.63 186.579 112.681 184.757 117.709V121.189V124.67Z" fill="#219E68"/>
<path d="M59.5051 128.827C60.8289 128.827 62.895 128.827 62.895 128.827C62.895 128.827 65.1874 128.827 66.5113 128.827C71.2956 127.37 74.4539 122.948 74.3243 118.001C74.1947 113.053 68.7102 106.63 62.2141 106.814C56.1004 106.986 50.5263 111.768 50.8099 118.001C51.0446 123.157 54.4739 127.674 59.5051 128.827Z" fill="#219E68"/>
<path d="M66.285 157.755C66.285 157.755 66.5113 140.124 66.5113 128.827C65.1874 128.827 62.895 128.827 62.895 128.827C62.895 128.827 60.8289 128.827 59.5051 128.827C59.5051 141.242 59.5051 160.617 59.5051 160.617L86.1727 186.08V336.443L60.5597 360.097C60.5597 360.097 60.5597 368.361 60.5597 373.657C61.6482 373.657 63.347 373.657 63.347 373.657C63.347 373.657 65.0458 373.657 66.1343 373.657C66.1343 369.832 66.1343 363.864 66.1343 363.864L91.8979 339.178V183.368L66.285 157.755Z" fill="#219E68"/>
<path d="M74.7972 385.409C74.7972 379.27 71.7539 374.895 66.1343 373.657H63.347H60.5597C55.3767 374.724 51.9724 378.89 51.9724 384.657C51.9724 390.423 57.9364 396.056 63.9488 396.056C70.5847 396.056 74.7972 391.548 74.7972 385.409Z" fill="#219E68"/>
<path d="M24.2021 147.731C18.9484 148.505 15.3283 152.454 15.0133 157.755C14.6371 164.085 20.253 169.349 26.5912 169.141C32.7282 168.94 37.6504 163.891 37.4341 157.755C37.2623 152.882 34.6059 149.304 29.9911 147.731H27.0966H24.2021Z" fill="#219E68"/>
<path d="M27.0966 147.731H29.9911C29.9911 147.731 29.9911 99.9596 29.9911 69.35C28.6993 69.35 26.6831 69.35 26.6831 69.35C26.6831 69.35 25.059 69.35 24.0184 69.35C24.0901 99.9596 24.2021 147.731 24.2021 147.731H27.0966Z" fill="#219E68"/>
<path d="M29.9911 69.35C34.5762 68.2342 37.231 64.6936 37.3916 59.9773C37.5911 54.1166 32.539 48.0167 26.6831 48.3281C21.1325 48.6232 16.0334 53.7418 16.1722 59.2985C16.2872 63.9048 19.6031 68.032 24.0184 69.35H26.6831H29.9911Z" fill="#219E68"/>
<path d="M66.9233 240.761C70.9118 240.761 76.0686 235.499 76.0889 230.279C76.1123 224.271 70.241 218.719 64.2333 218.81C58.3211 218.899 52.5543 224.366 52.5656 230.279C52.5755 235.471 57.616 240.761 61.7675 240.761L61.9135 322.582L30.6083 353.016V415.443C25.3764 416.325 22.2243 421.062 22.0821 426.366C21.9144 432.619 27.1415 437.426 33.4104 437.426C39.4458 437.426 44.6339 432.401 44.5555 426.366C44.4899 421.31 41.3084 416.796 36.4366 415.443L35.3718 355.646L66.9233 325.44V240.761Z" fill="#219E68"/>
<path fill-rule="evenodd" clip-rule="evenodd" d="M106.554 152.627H156.47L6.89436 9.42968V204.702L22.5434 220.457V279.406H19.1167H16.3073V222.575L1.72037 208.691V1.95582L244.853 0.650391L369.802 125.599V364.742L245.485 489.375H0.648438V341.018L35.4126 309.385V287.477V214.258C30.1211 213.078 26.7311 208.954 26.5961 203.535C26.4378 197.176 31.7172 192.079 38.0773 191.981C44.5373 191.881 50.1067 197.077 49.9183 203.535C49.7576 209.044 46.1605 213.248 40.7421 214.258V312.028L6.77673 344.74V480.137L157.522 339.178H106.554V152.627ZM209.945 396.056L273.625 332.919V251.768L192.33 331.059H228.687V334.967V338.563H184.21L169.604 352.741H150.902L138.882 363.57L135.49 367.753H184.703V370.867V373.966L127.526 374.399L104.815 396.056H209.945ZM167.633 347.624H157.141L166.202 338.563H176.779L167.633 347.624ZM182.166 333.226H111.995L112.203 158.697H180.702L203.237 180.908L204.672 310.929L182.166 333.226ZM211.208 304.454L210.755 187.81L220.942 198.007L220.727 295.023L211.208 304.454ZM270.165 246.045L227.239 288.572V203.987L270.165 246.045ZM106.617 94.1789H209.322L273.625 157.368V241.753L210.394 180.075H233.762C235.564 185.051 239.597 188.307 244.889 188.263C251.121 188.21 256.607 183.09 256.496 176.86C256.388 170.731 251.019 165.918 244.889 165.84C239.666 165.773 235.706 168.868 233.762 173.717H203.773L182.291 152.627H165.96L136.159 124.138L184.757 124.67C186.25 129.973 190.586 133.411 196.095 133.292C202.486 133.154 208.013 127.579 207.814 121.189C207.621 115 202.284 110.006 196.095 109.804C190.75 109.63 186.579 112.681 184.757 117.709H129.843L106.617 94.1789Z" fill="#219E68"/>
</g>
<path d="M184.703 367.753V370.867M184.703 367.753C186.658 362.917 190.592 360.288 195.808 360.332C201.955 360.383 207.143 364.73 207.505 370.867C207.887 377.359 202.311 382.79 195.808 382.721C190.286 382.662 186.049 379.322 184.703 373.966M184.703 367.753H135.49M184.703 367.753C165.484 367.753 135.49 367.753 135.49 367.753M184.703 367.753C184.703 368.969 184.703 370.867 184.703 370.867M184.703 367.753C184.703 370.179 184.703 371.54 184.703 373.966M184.703 370.867V373.966M184.703 373.966L127.526 374.399M184.703 373.966C162.374 374.135 127.526 374.399 127.526 374.399M40.7421 312.028L6.77673 344.74V480.137L157.522 339.178H106.554V152.627H156.47L6.89436 9.42968V204.702L22.5434 220.457M40.7421 312.028C40.7421 312.028 40.7421 252.44 40.7421 214.258M40.7421 312.028V214.258M40.7421 214.258C46.1605 213.248 49.7576 209.044 49.9183 203.535C50.1067 197.077 44.5373 191.881 38.0773 191.981C31.7172 192.079 26.4378 197.176 26.5961 203.535C26.7311 208.954 30.1211 213.078 35.4126 214.258M40.7421 214.258C39.7014 214.258 38.0773 214.258 38.0773 214.258C38.0773 214.258 36.4532 214.258 35.4126 214.258M35.4126 214.258C35.4126 242.852 35.4126 287.477 35.4126 287.477M35.4126 214.258V287.477M35.4126 287.477V309.385L0.648438 341.018V489.375H245.485L369.802 364.742V125.599L244.853 0.650391L1.72037 1.95582V208.691L16.3073 222.575M16.3073 222.575V279.406M16.3073 222.575C16.3073 222.575 16.3073 257.212 16.3073 279.406M16.3073 279.406H19.1167M16.3073 279.406C11.0489 280.748 7.70869 284.595 7.70869 290.022C7.70869 296.043 13.0965 301.227 19.1167 301.227C25.1564 301.227 30.3069 296.208 30.3069 290.475C30.3069 285.294 27.3081 281.439 22.5434 279.406M16.3073 279.406C17.5812 279.406 19.1167 279.406 19.1167 279.406M19.1167 279.406H22.5434M19.1167 279.406C19.1167 279.406 21.3819 279.406 22.5434 279.406M22.5434 279.406V220.457M22.5434 279.406C22.5434 256.385 22.5434 220.457 22.5434 220.457M127.526 374.399L104.815 396.056H209.945L273.625 332.919V251.768L192.33 331.059M135.49 367.753L138.882 363.57L150.902 352.741H169.604L184.21 338.563M184.21 338.563H228.687M184.21 338.563C184.21 338.563 211.318 338.563 228.687 338.563M228.687 338.563V334.967M228.687 338.563C230.748 343.266 234.614 346.203 239.747 346.124C246.146 346.025 252.051 340.789 251.659 334.182C251.3 328.136 245.804 323.377 239.747 323.304C234.62 323.243 230.78 326.378 228.687 331.059M228.687 338.563C228.687 337.158 228.687 334.967 228.687 334.967M228.687 334.967V331.059M228.687 334.967C228.687 334.967 228.687 332.585 228.687 331.059M228.687 331.059H192.33M228.687 331.059C214.489 331.059 192.33 331.059 192.33 331.059M210.394 180.075L273.625 241.753V157.368L209.322 94.1789H106.617L129.843 117.709M210.394 180.075H233.762M210.394 180.075C210.394 180.075 224.636 180.075 233.762 180.075M233.762 180.075V176.86M233.762 180.075C235.564 185.051 239.597 188.307 244.889 188.263C251.121 188.21 256.607 183.09 256.496 176.86C256.388 170.731 251.019 165.918 244.889 165.84C239.666 165.773 235.706 168.868 233.762 173.717M233.762 180.075C233.762 178.819 233.762 176.86 233.762 176.86M233.762 176.86V173.717M233.762 176.86C233.762 176.86 233.762 174.944 233.762 173.717M233.762 173.717H203.773M233.762 173.717C222.051 173.717 203.773 173.717 203.773 173.717M203.773 173.717L182.291 152.627H165.96L136.159 124.138M136.159 124.138L184.757 124.67M136.159 124.138C136.159 124.138 165.778 124.462 184.757 124.67M184.757 124.67V121.189M184.757 124.67C186.25 129.973 190.586 133.411 196.095 133.292C202.486 133.154 208.013 127.579 207.814 121.189C207.621 115 202.284 110.006 196.095 109.804C190.75 109.63 186.579 112.681 184.757 117.709M184.757 124.67C184.757 123.31 184.757 121.189 184.757 121.189M184.757 121.189V117.709M184.757 121.189C184.757 121.189 184.757 119.068 184.757 117.709M184.757 117.709H129.843M184.757 117.709C163.312 117.709 129.843 117.709 129.843 117.709M59.5051 128.827C60.8289 128.827 62.895 128.827 62.895 128.827C62.895 128.827 65.1874 128.827 66.5113 128.827M59.5051 128.827C54.4739 127.674 51.0446 123.157 50.8099 118.001C50.5263 111.768 56.1004 106.986 62.2141 106.814C68.7102 106.63 74.1947 113.053 74.3243 118.001C74.4539 122.948 71.2956 127.37 66.5113 128.827M59.5051 128.827C59.5051 141.242 59.5051 160.617 59.5051 160.617L86.1727 186.08V336.443M66.5113 128.827C66.5113 140.124 66.285 157.755 66.285 157.755L91.8979 183.368V339.178L66.1343 363.864C66.1343 363.864 66.1343 369.832 66.1343 373.657M86.1727 336.443L60.5597 360.097M86.1727 336.443C86.1727 336.443 69.0974 352.212 60.5597 360.097M60.5597 360.097C60.5597 360.097 60.5597 368.361 60.5597 373.657M60.5597 373.657C61.6482 373.657 63.347 373.657 63.347 373.657M60.5597 373.657H63.347M60.5597 373.657C55.3767 374.724 51.9724 378.89 51.9724 384.657C51.9724 390.423 57.9364 396.056 63.9488 396.056C70.5847 396.056 74.7972 391.548 74.7972 385.409C74.7972 379.27 71.7539 374.895 66.1343 373.657M63.347 373.657C63.347 373.657 65.0458 373.657 66.1343 373.657M63.347 373.657H66.1343M24.2021 147.731C18.9484 148.505 15.3283 152.454 15.0133 157.755C14.6371 164.085 20.253 169.349 26.5912 169.141C32.7282 168.94 37.6504 163.891 37.4341 157.755C37.2623 152.882 34.6059 149.304 29.9911 147.731M24.2021 147.731H27.0966M24.2021 147.731C24.2021 147.731 24.0901 99.9596 24.0184 69.35M24.2021 147.731C25.3325 147.731 27.0966 147.731 27.0966 147.731M24.2021 147.731C24.1304 117.121 24.0901 99.9596 24.0184 69.35M29.9911 147.731H27.0966M29.9911 147.731C29.9911 147.731 29.9911 99.9596 29.9911 69.35M29.9911 147.731C28.8607 147.731 27.0966 147.731 27.0966 147.731M29.9911 147.731C29.9911 117.121 29.9911 99.9596 29.9911 69.35M29.9911 69.35C28.6993 69.35 26.6831 69.35 26.6831 69.35M29.9911 69.35C34.5762 68.2342 37.231 64.6936 37.3916 59.9773C37.5911 54.1166 32.539 48.0167 26.6831 48.3281C21.1325 48.6232 16.0334 53.7418 16.1722 59.2985C16.2872 63.9048 19.6031 68.032 24.0184 69.35M29.9911 69.35H26.6831M26.6831 69.35C26.6831 69.35 25.059 69.35 24.0184 69.35M26.6831 69.35H24.0184M30.6083 353.016L61.9135 322.582L61.7675 240.761C57.616 240.761 52.5755 235.471 52.5656 230.279C52.5543 224.366 58.3211 218.899 64.2333 218.81C70.241 218.719 76.1123 224.271 76.0889 230.279C76.0686 235.499 70.9118 240.761 66.9233 240.761V325.44L35.3718 355.646M30.6083 353.016V415.443M30.6083 353.016C30.6083 353.016 30.6083 391.064 30.6083 415.443M30.6083 415.443C25.3764 416.325 22.2243 421.062 22.0821 426.366C21.9144 432.619 27.1415 437.426 33.4104 437.426C39.4458 437.426 44.6339 432.401 44.5555 426.366C44.4899 421.31 41.3084 416.796 36.4366 415.443M30.6083 415.443C31.7026 415.443 26.9297 415.443 26.9297 415.443C26.9297 415.443 35.2548 415.443 36.4366 415.443M36.4366 415.443L35.3718 355.646M36.4366 415.443C36.0208 392.091 35.3718 355.646 35.3718 355.646M157.141 347.624H167.633L176.779 338.563H166.202L157.141 347.624ZM111.995 333.226H182.166L204.672 310.929L203.237 180.908L180.702 158.697H112.203L111.995 333.226ZM210.755 187.81L211.208 304.454L220.727 295.023L220.942 198.007L210.755 187.81ZM227.239 288.572L270.165 246.045L227.239 203.987V288.572Z" stroke="#00D370" stroke-width="1.29614"/>
<defs>
<filter id="filter0_i_257_66" x="-10.3692" y="-7.1288" width="380.818" height="497.152" filterUnits="userSpaceOnUse" color-interpolation-filters="sRGB">
<feFlood flood-opacity="0" result="BackgroundImageFix"/>
<feBlend mode="normal" in="SourceGraphic" in2="BackgroundImageFix" result="shape"/>
<feColorMatrix in="SourceAlpha" type="matrix" values="0 0 0 0 0 0 0 0 0 0 0 0 0 0 0 0 0 0 127 0" result="hardAlpha"/>
<feOffset dx="-10.3692" dy="-7.1288"/>
<feGaussianBlur stdDeviation="12.9614"/>
<feComposite in2="hardAlpha" operator="arithmetic" k2="-1" k3="1"/>
<feColorMatrix type="matrix" values="0 0 0 0 0.745192 0 0 0 0 0.74161 0 0 0 0 0.74161 0 0 0 0.25 0"/>
<feBlend mode="normal" in2="shape" result="effect1_innerShadow_257_66"/>
</filter>
</defs>
</svg>
