<svg width="1884" height="617" viewBox="0 0 1884 617" fill="none" xmlns="http://www.w3.org/2000/svg">
<g filter="url(#filter0_i_257_65)">
<path d="M184.703 367.753V370.867V373.966C186.049 379.322 190.286 382.662 195.808 382.721C202.311 382.79 207.887 377.359 207.505 370.867C207.143 364.73 201.955 360.383 195.808 360.332C190.592 360.288 186.658 362.917 184.703 367.753Z" fill="#00DA62"/>
<path d="M19.1167 279.406H16.3073C11.0489 280.748 7.70869 284.595 7.70869 290.022C7.70869 296.043 13.0965 301.227 19.1167 301.227C25.1564 301.227 30.3069 296.208 30.3069 290.475C30.3069 285.294 27.3081 281.439 22.5434 279.406H19.1167Z" fill="#00DA62"/>
<path fill-rule="evenodd" clip-rule="evenodd" d="M184.703 370.867V367.753C186.658 362.917 190.592 360.288 195.808 360.332C201.955 360.383 207.143 364.73 207.505 370.867C207.887 377.359 202.311 382.79 195.808 382.721C190.286 382.662 186.049 379.322 184.703 373.966V370.867Z" fill="#00DA62"/>
<path d="M251.659 334.182C251.3 328.136 245.804 323.377 239.747 323.304C234.62 323.243 230.78 326.378 228.687 331.059V334.967V338.563C230.748 343.266 234.614 346.203 239.747 346.124C246.146 346.025 252.051 340.789 251.659 334.182Z" fill="#00DA62"/>
<path d="M233.762 180.075C235.564 185.051 239.597 188.307 244.889 188.263C251.121 188.21 256.607 183.09 256.496 176.86C256.388 170.731 251.019 165.918 244.889 165.84C239.666 165.773 235.706 168.868 233.762 173.717V176.86V180.075Z" fill="#00DA62"/>
<path d="M184.757 124.67C186.25 129.973 190.586 133.411 196.095 133.292C202.486 133.154 208.013 127.579 207.814 121.189C207.621 115 202.284 110.006 196.095 109.804C190.75 109.63 186.579 112.681 184.757 117.709V121.189V124.67Z" fill="#00DA62"/>
<path d="M59.5051 128.827C60.8289 128.827 62.895 128.827 62.895 128.827C62.895 128.827 65.1874 128.827 66.5113 128.827C71.2956 127.37 74.4539 122.948 74.3243 118.001C74.1947 113.053 68.7102 106.63 62.2141 106.814C56.1004 106.986 50.5263 111.768 50.8099 118.001C51.0446 123.157 54.4739 127.674 59.5051 128.827Z" fill="#00DA62"/>
<path d="M66.285 157.755C66.285 157.755 66.5113 140.124 66.5113 128.827C65.1874 128.827 62.895 128.827 62.895 128.827C62.895 128.827 60.8289 128.827 59.5051 128.827C59.5051 141.242 59.5051 160.617 59.5051 160.617L86.1727 186.08V336.443L60.5597 360.097C60.5597 360.097 60.5597 368.361 60.5597 373.657C61.6482 373.657 63.347 373.657 63.347 373.657C63.347 373.657 65.0458 373.657 66.1343 373.657C66.1343 369.832 66.1343 363.864 66.1343 363.864L91.8979 339.178V183.368L66.285 157.755Z" fill="#00DA62"/>
<path d="M74.7972 385.409C74.7972 379.27 71.7539 374.895 66.1343 373.657H63.347H60.5597C55.3767 374.724 51.9724 378.89 51.9724 384.657C51.9724 390.423 57.9364 396.056 63.9488 396.056C70.5847 396.056 74.7972 391.548 74.7972 385.409Z" fill="#00DA62"/>
<path d="M24.2021 147.731C18.9484 148.505 15.3283 152.454 15.0133 157.755C14.6371 164.085 20.253 169.349 26.5912 169.141C32.7282 168.94 37.6504 163.891 37.4341 157.755C37.2623 152.882 34.6059 149.304 29.9911 147.731H27.0966H24.2021Z" fill="#00DA62"/>
<path d="M27.0966 147.731H29.9911C29.9911 147.731 29.9911 99.9596 29.9911 69.35C28.6993 69.35 26.6831 69.35 26.6831 69.35C26.6831 69.35 25.059 69.35 24.0184 69.35C24.0901 99.9596 24.2021 147.731 24.2021 147.731H27.0966Z" fill="#00DA62"/>
<path d="M29.9911 69.35C34.5762 68.2342 37.231 64.6936 37.3916 59.9773C37.5911 54.1166 32.539 48.0167 26.6831 48.3281C21.1325 48.6232 16.0334 53.7418 16.1722 59.2985C16.2872 63.9048 19.6031 68.032 24.0184 69.35H26.6831H29.9911Z" fill="#00DA62"/>
<path d="M66.9233 240.761C70.9118 240.761 76.0686 235.499 76.0889 230.279C76.1123 224.271 70.241 218.719 64.2333 218.81C58.3211 218.899 52.5543 224.366 52.5656 230.279C52.5755 235.471 57.616 240.761 61.7675 240.761L61.9135 322.582L30.6083 353.016V415.443C25.3764 416.325 22.2243 421.062 22.0821 426.366C21.9144 432.619 27.1415 437.426 33.4104 437.426C39.4458 437.426 44.6339 432.401 44.5555 426.366C44.4899 421.31 41.3084 416.796 36.4366 415.443L35.3718 355.646L66.9233 325.44V240.761Z" fill="#00DA62"/>
<path fill-rule="evenodd" clip-rule="evenodd" d="M106.554 152.627H156.47L6.89436 9.42968V204.702L22.5434 220.457V279.406H19.1167H16.3073V222.575L1.72037 208.691V1.95582L244.853 0.650391L369.802 125.599V364.742L245.485 489.375H0.648438V341.018L35.4126 309.385V287.477V214.258C30.1211 213.078 26.7311 208.954 26.5961 203.535C26.4378 197.176 31.7172 192.079 38.0773 191.981C44.5373 191.881 50.1067 197.077 49.9183 203.535C49.7576 209.044 46.1605 213.248 40.7421 214.258V312.028L6.77673 344.74V480.137L157.522 339.178H106.554V152.627ZM209.945 396.056L273.625 332.919V251.768L192.33 331.059H228.687V334.967V338.563H184.21L169.604 352.741H150.902L138.882 363.57L135.49 367.753H184.703V370.867V373.966L127.526 374.399L104.815 396.056H209.945ZM167.633 347.624H157.141L166.202 338.563H176.779L167.633 347.624ZM182.166 333.226H111.995L112.203 158.697H180.702L203.237 180.908L204.672 310.929L182.166 333.226ZM211.208 304.454L210.755 187.81L220.942 198.007L220.727 295.023L211.208 304.454ZM270.165 246.045L227.239 288.572V203.987L270.165 246.045ZM106.617 94.1789H209.322L273.625 157.368V241.753L210.394 180.075H233.762C235.564 185.051 239.597 188.307 244.889 188.263C251.121 188.21 256.607 183.09 256.496 176.86C256.388 170.731 251.019 165.918 244.889 165.84C239.666 165.773 235.706 168.868 233.762 173.717H203.773L182.291 152.627H165.96L136.159 124.138L184.757 124.67C186.25 129.973 190.586 133.411 196.095 133.292C202.486 133.154 208.013 127.579 207.814 121.189C207.621 115 202.284 110.006 196.095 109.804C190.75 109.63 186.579 112.681 184.757 117.709H129.843L106.617 94.1789Z" fill="#00DA62"/>
</g>
<path d="M184.703 367.753V370.867M184.703 367.753C186.658 362.917 190.592 360.288 195.808 360.332C201.955 360.383 207.143 364.73 207.505 370.867C207.887 377.359 202.311 382.79 195.808 382.721C190.286 382.662 186.049 379.322 184.703 373.966M184.703 367.753H135.49M184.703 367.753C165.484 367.753 135.49 367.753 135.49 367.753M184.703 367.753C184.703 368.969 184.703 370.867 184.703 370.867M184.703 367.753C184.703 370.179 184.703 371.54 184.703 373.966M184.703 370.867V373.966M184.703 373.966L127.526 374.399M184.703 373.966C162.374 374.135 127.526 374.399 127.526 374.399M40.7421 312.028L6.77673 344.74V480.137L157.522 339.178H106.554V152.627H156.47L6.89436 9.42968V204.702L22.5434 220.457M40.7421 312.028C40.7421 312.028 40.7421 252.44 40.7421 214.258M40.7421 312.028V214.258M40.7421 214.258C46.1605 213.248 49.7576 209.044 49.9183 203.535C50.1067 197.077 44.5373 191.881 38.0773 191.981C31.7172 192.079 26.4378 197.176 26.5961 203.535C26.7311 208.954 30.1211 213.078 35.4126 214.258M40.7421 214.258C39.7014 214.258 38.0773 214.258 38.0773 214.258C38.0773 214.258 36.4532 214.258 35.4126 214.258M35.4126 214.258C35.4126 242.852 35.4126 287.477 35.4126 287.477M35.4126 214.258V287.477M35.4126 287.477V309.385L0.648438 341.018V489.375H245.485L369.802 364.742V125.599L244.853 0.650391L1.72037 1.95582V208.691L16.3073 222.575M16.3073 222.575V279.406M16.3073 222.575C16.3073 222.575 16.3073 257.212 16.3073 279.406M16.3073 279.406H19.1167M16.3073 279.406C11.0489 280.748 7.70869 284.595 7.70869 290.022C7.70869 296.043 13.0965 301.227 19.1167 301.227C25.1564 301.227 30.3069 296.208 30.3069 290.475C30.3069 285.294 27.3081 281.439 22.5434 279.406M16.3073 279.406C17.5812 279.406 19.1167 279.406 19.1167 279.406M19.1167 279.406H22.5434M19.1167 279.406C19.1167 279.406 21.3819 279.406 22.5434 279.406M22.5434 279.406V220.457M22.5434 279.406C22.5434 256.385 22.5434 220.457 22.5434 220.457M127.526 374.399L104.815 396.056H209.945L273.625 332.919V251.768L192.33 331.059M135.49 367.753L138.882 363.57L150.902 352.741H169.604L184.21 338.563M184.21 338.563H228.687M184.21 338.563C184.21 338.563 211.318 338.563 228.687 338.563M228.687 338.563V334.967M228.687 338.563C230.748 343.266 234.614 346.203 239.747 346.124C246.146 346.025 252.051 340.789 251.659 334.182C251.3 328.136 245.804 323.377 239.747 323.304C234.62 323.243 230.78 326.378 228.687 331.059M228.687 338.563C228.687 337.158 228.687 334.967 228.687 334.967M228.687 334.967V331.059M228.687 334.967C228.687 334.967 228.687 332.585 228.687 331.059M228.687 331.059H192.33M228.687 331.059C214.489 331.059 192.33 331.059 192.33 331.059M210.394 180.075L273.625 241.753V157.368L209.322 94.1789H106.617L129.843 117.709M210.394 180.075H233.762M210.394 180.075C210.394 180.075 224.636 180.075 233.762 180.075M233.762 180.075V176.86M233.762 180.075C235.564 185.051 239.597 188.307 244.889 188.263C251.121 188.21 256.607 183.09 256.496 176.86C256.388 170.731 251.019 165.918 244.889 165.84C239.666 165.773 235.706 168.868 233.762 173.717M233.762 180.075C233.762 178.819 233.762 176.86 233.762 176.86M233.762 176.86V173.717M233.762 176.86C233.762 176.86 233.762 174.944 233.762 173.717M233.762 173.717H203.773M233.762 173.717C222.051 173.717 203.773 173.717 203.773 173.717M203.773 173.717L182.291 152.627H165.96L136.159 124.138M136.159 124.138L184.757 124.67M136.159 124.138C136.159 124.138 165.778 124.462 184.757 124.67M184.757 124.67V121.189M184.757 124.67C186.25 129.973 190.586 133.411 196.095 133.292C202.486 133.154 208.013 127.579 207.814 121.189C207.621 115 202.284 110.006 196.095 109.804C190.75 109.63 186.579 112.681 184.757 117.709M184.757 124.67C184.757 123.31 184.757 121.189 184.757 121.189M184.757 121.189V117.709M184.757 121.189C184.757 121.189 184.757 119.068 184.757 117.709M184.757 117.709H129.843M184.757 117.709C163.312 117.709 129.843 117.709 129.843 117.709M59.5051 128.827C60.8289 128.827 62.895 128.827 62.895 128.827C62.895 128.827 65.1874 128.827 66.5113 128.827M59.5051 128.827C54.4739 127.674 51.0446 123.157 50.8099 118.001C50.5263 111.768 56.1004 106.986 62.2141 106.814C68.7102 106.63 74.1947 113.053 74.3243 118.001C74.4539 122.948 71.2956 127.37 66.5113 128.827M59.5051 128.827C59.5051 141.242 59.5051 160.617 59.5051 160.617L86.1727 186.08V336.443M66.5113 128.827C66.5113 140.124 66.285 157.755 66.285 157.755L91.8979 183.368V339.178L66.1343 363.864C66.1343 363.864 66.1343 369.832 66.1343 373.657M86.1727 336.443L60.5597 360.097M86.1727 336.443C86.1727 336.443 69.0974 352.212 60.5597 360.097M60.5597 360.097C60.5597 360.097 60.5597 368.361 60.5597 373.657M60.5597 373.657C61.6482 373.657 63.347 373.657 63.347 373.657M60.5597 373.657H63.347M60.5597 373.657C55.3767 374.724 51.9724 378.89 51.9724 384.657C51.9724 390.423 57.9364 396.056 63.9488 396.056C70.5847 396.056 74.7972 391.548 74.7972 385.409C74.7972 379.27 71.7539 374.895 66.1343 373.657M63.347 373.657C63.347 373.657 65.0458 373.657 66.1343 373.657M63.347 373.657H66.1343M24.2021 147.731C18.9484 148.505 15.3283 152.454 15.0133 157.755C14.6371 164.085 20.253 169.349 26.5912 169.141C32.7282 168.94 37.6504 163.891 37.4341 157.755C37.2623 152.882 34.6059 149.304 29.9911 147.731M24.2021 147.731H27.0966M24.2021 147.731C24.2021 147.731 24.0901 99.9596 24.0184 69.35M24.2021 147.731C25.3325 147.731 27.0966 147.731 27.0966 147.731M24.2021 147.731C24.1304 117.121 24.0901 99.9596 24.0184 69.35M29.9911 147.731H27.0966M29.9911 147.731C29.9911 147.731 29.9911 99.9596 29.9911 69.35M29.9911 147.731C28.8607 147.731 27.0966 147.731 27.0966 147.731M29.9911 147.731C29.9911 117.121 29.9911 99.9596 29.9911 69.35M29.9911 69.35C28.6993 69.35 26.6831 69.35 26.6831 69.35M29.9911 69.35C34.5762 68.2342 37.231 64.6936 37.3916 59.9773C37.5911 54.1166 32.539 48.0167 26.6831 48.3281C21.1325 48.6232 16.0334 53.7418 16.1722 59.2985C16.2872 63.9048 19.6031 68.032 24.0184 69.35M29.9911 69.35H26.6831M26.6831 69.35C26.6831 69.35 25.059 69.35 24.0184 69.35M26.6831 69.35H24.0184M30.6083 353.016L61.9135 322.582L61.7675 240.761C57.616 240.761 52.5755 235.471 52.5656 230.279C52.5543 224.366 58.3211 218.899 64.2333 218.81C70.241 218.719 76.1123 224.271 76.0889 230.279C76.0686 235.499 70.9118 240.761 66.9233 240.761V325.44L35.3718 355.646M30.6083 353.016V415.443M30.6083 353.016C30.6083 353.016 30.6083 391.064 30.6083 415.443M30.6083 415.443C25.3764 416.325 22.2243 421.062 22.0821 426.366C21.9144 432.619 27.1415 437.426 33.4104 437.426C39.4458 437.426 44.6339 432.401 44.5555 426.366C44.4899 421.31 41.3084 416.796 36.4366 415.443M30.6083 415.443C31.7026 415.443 26.9297 415.443 26.9297 415.443C26.9297 415.443 35.2548 415.443 36.4366 415.443M36.4366 415.443L35.3718 355.646M36.4366 415.443C36.0208 392.091 35.3718 355.646 35.3718 355.646M157.141 347.624H167.633L176.779 338.563H166.202L157.141 347.624ZM111.995 333.226H182.166L204.672 310.929L203.237 180.908L180.702 158.697H112.203L111.995 333.226ZM210.755 187.81L211.208 304.454L220.727 295.023L220.942 198.007L210.755 187.81ZM227.239 288.572L270.165 246.045L227.239 203.987V288.572Z" stroke="#00DA62" stroke-width="1.29614"/>
<path d="M438.82 467.65V438.85H462.38C463.34 438.85 464.22 439.09 465.02 439.57C465.82 440.024 466.447 440.65 466.9 441.45C467.38 442.224 467.62 443.09 467.62 444.05V462.45C467.62 463.41 467.38 464.29 466.9 465.09C466.447 465.864 465.82 466.49 465.02 466.97C464.22 467.424 463.34 467.65 462.38 467.65H438.82ZM444.1 463.33H462.3C462.567 463.33 462.793 463.237 462.98 463.05C463.167 462.837 463.26 462.597 463.26 462.33V444.17C463.26 443.904 463.167 443.677 462.98 443.49C462.793 443.277 462.567 443.17 462.3 443.17H444.1C443.833 443.17 443.607 443.277 443.42 443.49C443.233 443.677 443.14 443.904 443.14 444.17V462.33C443.14 462.597 443.233 462.837 443.42 463.05C443.607 463.237 443.833 463.33 444.1 463.33ZM488.179 467.65V444.05C488.179 443.09 488.406 442.224 488.859 441.45C489.339 440.65 489.966 440.024 490.739 439.57C491.539 439.09 492.419 438.85 493.379 438.85H511.739C512.699 438.85 513.579 439.09 514.379 439.57C515.179 440.024 515.806 440.65 516.259 441.45C516.739 442.224 516.979 443.09 516.979 444.05V467.65H512.619V457.57H492.499V467.65H488.179ZM492.499 453.25H512.619V444.17C512.619 443.904 512.526 443.677 512.339 443.49C512.153 443.277 511.926 443.17 511.659 443.17H493.499C493.233 443.17 492.993 443.277 492.779 443.49C492.593 443.677 492.499 443.904 492.499 444.17V453.25ZM537.617 467.65V438.85H564.017V443.17H541.977V451.09H559.697V455.41H541.977V467.65H537.617ZM582.523 467.65V438.85H608.923V443.17H586.883V451.09H604.603V455.41H586.883V467.65H582.523ZM632.469 467.65C631.509 467.65 630.629 467.424 629.829 466.97C629.056 466.49 628.429 465.864 627.949 465.09C627.496 464.29 627.269 463.41 627.269 462.45V444.05C627.269 443.09 627.496 442.224 627.949 441.45C628.429 440.65 629.056 440.024 629.829 439.57C630.629 439.09 631.509 438.85 632.469 438.85H650.869C651.803 438.85 652.669 439.09 653.469 439.57C654.269 440.024 654.896 440.65 655.349 441.45C655.829 442.224 656.069 443.09 656.069 444.05V462.45C656.069 463.41 655.829 464.29 655.349 465.09C654.896 465.864 654.269 466.49 653.469 466.97C652.669 467.424 651.803 467.65 650.869 467.65H632.469ZM632.589 463.33H650.749C651.016 463.33 651.243 463.237 651.429 463.05C651.616 462.837 651.709 462.597 651.709 462.33V444.17C651.709 443.904 651.616 443.677 651.429 443.49C651.243 443.277 651.016 443.17 650.749 443.17H632.589C632.323 443.17 632.083 443.277 631.869 443.49C631.683 443.677 631.589 443.904 631.589 444.17V462.33C631.589 462.597 631.683 462.837 631.869 463.05C632.083 463.237 632.323 463.33 632.589 463.33ZM676.554 467.65V438.85H700.114C701.074 438.85 701.954 439.09 702.754 439.57C703.554 440.024 704.181 440.65 704.634 441.45C705.114 442.224 705.354 443.09 705.354 444.05V462.45C705.354 463.41 705.114 464.29 704.634 465.09C704.181 465.864 703.554 466.49 702.754 466.97C701.954 467.424 701.074 467.65 700.114 467.65H676.554ZM681.834 463.33H700.034C700.301 463.33 700.528 463.237 700.714 463.05C700.901 462.837 700.994 462.597 700.994 462.33V444.17C700.994 443.904 700.901 443.677 700.714 443.49C700.528 443.277 700.301 443.17 700.034 443.17H681.834C681.568 443.17 681.341 443.277 681.154 443.49C680.968 443.677 680.874 443.904 680.874 444.17V462.33C680.874 462.597 680.968 462.837 681.154 463.05C681.341 463.237 681.568 463.33 681.834 463.33ZM725.714 467.65V438.85H730.034V467.65H725.714ZM750.428 467.65V438.81H754.748V463.33H779.228V467.65H750.428ZM825.042 467.65V438.85H829.362V467.65H825.042ZM849.717 467.65V438.85H854.877L874.157 461.81V438.85H878.517V467.65H873.357L854.037 444.65V467.65H849.717ZM909.798 467.65V443.17H897.558V438.85H926.358V443.17H914.118V467.65H909.798ZM945.429 467.65V438.85H971.829V443.17H949.789V451.09H967.509V455.41H949.789V463.33H971.829V467.65H945.429ZM1015.57 467.65L1006.57 456.89H1012.21L1020.61 466.85V467.65H1015.57ZM991.974 467.65V438.89H1015.53C1016.49 438.89 1017.37 439.13 1018.17 439.61C1018.97 440.09 1019.6 440.73 1020.05 441.53C1020.53 442.304 1020.77 443.157 1020.77 444.09V452.17C1020.77 453.13 1020.53 454.01 1020.05 454.81C1019.6 455.584 1018.97 456.21 1018.17 456.69C1017.37 457.144 1016.49 457.37 1015.53 457.37L996.294 457.41V467.65H991.974ZM997.294 453.01H1015.45C1015.72 453.01 1015.95 452.917 1016.13 452.73C1016.32 452.544 1016.41 452.317 1016.41 452.05V444.21C1016.41 443.944 1016.32 443.717 1016.13 443.53C1015.95 443.317 1015.72 443.21 1015.45 443.21H997.294C997.028 443.21 996.788 443.317 996.574 443.53C996.388 443.717 996.294 443.944 996.294 444.21V452.05C996.294 452.317 996.388 452.544 996.574 452.73C996.788 452.917 997.028 453.01 997.294 453.01ZM1040.98 467.65V438.85H1046.14L1065.42 461.81V438.85H1069.78V467.65H1064.62L1045.3 444.65V467.65H1040.98ZM1090.34 467.65V444.05C1090.34 443.09 1090.57 442.224 1091.02 441.45C1091.5 440.65 1092.13 440.024 1092.9 439.57C1093.7 439.09 1094.58 438.85 1095.54 438.85H1113.9C1114.86 438.85 1115.74 439.09 1116.54 439.57C1117.34 440.024 1117.97 440.65 1118.42 441.45C1118.9 442.224 1119.14 443.09 1119.14 444.05V467.65H1114.78V457.57H1094.66V467.65H1090.34ZM1094.66 453.25H1114.78V444.17C1114.78 443.904 1114.69 443.677 1114.5 443.49C1114.32 443.277 1114.09 443.17 1113.82 443.17H1095.66C1095.4 443.17 1095.16 443.277 1094.94 443.49C1094.76 443.677 1094.66 443.904 1094.66 444.17V453.25ZM1150.5 467.65V443.17H1138.26V438.85H1167.06V443.17H1154.82V467.65H1150.5ZM1185.93 467.65V438.85H1190.25V467.65H1185.93ZM1215.73 467.65C1214.77 467.65 1213.89 467.424 1213.09 466.97C1212.31 466.49 1211.69 465.864 1211.21 465.09C1210.75 464.29 1210.53 463.41 1210.53 462.45V444.05C1210.53 443.09 1210.75 442.224 1211.21 441.45C1211.69 440.65 1212.31 440.024 1213.09 439.57C1213.89 439.09 1214.77 438.85 1215.73 438.85H1234.13C1235.06 438.85 1235.93 439.09 1236.73 439.57C1237.53 440.024 1238.15 440.65 1238.61 441.45C1239.09 442.224 1239.33 443.09 1239.33 444.05V462.45C1239.33 463.41 1239.09 464.29 1238.61 465.09C1238.15 465.864 1237.53 466.49 1236.73 466.97C1235.93 467.424 1235.06 467.65 1234.13 467.65H1215.73ZM1215.85 463.33H1234.01C1234.27 463.33 1234.5 463.237 1234.69 463.05C1234.87 462.837 1234.97 462.597 1234.97 462.33V444.17C1234.97 443.904 1234.87 443.677 1234.69 443.49C1234.5 443.277 1234.27 443.17 1234.01 443.17H1215.85C1215.58 443.17 1215.34 443.277 1215.13 443.49C1214.94 443.677 1214.85 443.904 1214.85 444.17V462.33C1214.85 462.597 1214.94 462.837 1215.13 463.05C1215.34 463.237 1215.58 463.33 1215.85 463.33ZM1259.73 467.65V438.85H1264.89L1284.17 461.81V438.85H1288.53V467.65H1283.37L1264.05 444.65V467.65H1259.73ZM1309.09 467.65V444.05C1309.09 443.09 1309.32 442.224 1309.77 441.45C1310.25 440.65 1310.88 440.024 1311.65 439.57C1312.45 439.09 1313.33 438.85 1314.29 438.85H1332.65C1333.61 438.85 1334.49 439.09 1335.29 439.57C1336.09 440.024 1336.72 440.65 1337.17 441.45C1337.65 442.224 1337.89 443.09 1337.89 444.05V467.65H1333.53V457.57H1313.41V467.65H1309.09ZM1313.41 453.25H1333.53V444.17C1333.53 443.904 1333.44 443.677 1333.25 443.49C1333.07 443.277 1332.84 443.17 1332.57 443.17H1314.41C1314.15 443.17 1313.91 443.277 1313.69 443.49C1313.51 443.677 1313.41 443.904 1313.41 444.17V453.25ZM1358.49 467.65V438.81H1362.81V463.33H1387.29V467.65H1358.49ZM1438.42 467.65C1437.46 467.65 1436.58 467.424 1435.78 466.97C1435.01 466.49 1434.38 465.864 1433.9 465.09C1433.45 464.29 1433.22 463.41 1433.22 462.45V444.05C1433.22 443.09 1433.45 442.224 1433.9 441.45C1434.38 440.65 1435.01 440.024 1435.78 439.57C1436.58 439.09 1437.46 438.85 1438.42 438.85H1461.94V443.17H1439.02C1438.6 443.17 1438.24 443.317 1437.94 443.61C1437.68 443.877 1437.54 444.224 1437.54 444.65V461.85C1437.54 462.277 1437.68 462.637 1437.94 462.93C1438.24 463.197 1438.6 463.33 1439.02 463.33H1461.94V467.65H1438.42ZM1487.24 467.65C1486.28 467.65 1485.4 467.424 1484.6 466.97C1483.82 466.49 1483.2 465.864 1482.72 465.09C1482.26 464.29 1482.04 463.41 1482.04 462.45V444.05C1482.04 443.09 1482.26 442.224 1482.72 441.45C1483.2 440.65 1483.82 440.024 1484.6 439.57C1485.4 439.09 1486.28 438.85 1487.24 438.85H1505.64C1506.57 438.85 1507.44 439.09 1508.24 439.57C1509.04 440.024 1509.66 440.65 1510.12 441.45C1510.6 442.224 1510.84 443.09 1510.84 444.05V462.45C1510.84 463.41 1510.6 464.29 1510.12 465.09C1509.66 465.864 1509.04 466.49 1508.24 466.97C1507.44 467.424 1506.57 467.65 1505.64 467.65H1487.24ZM1487.36 463.33H1505.52C1505.78 463.33 1506.01 463.237 1506.2 463.05C1506.38 462.837 1506.48 462.597 1506.48 462.33V444.17C1506.48 443.904 1506.38 443.677 1506.2 443.49C1506.01 443.277 1505.78 443.17 1505.52 443.17H1487.36C1487.09 443.17 1486.85 443.277 1486.64 443.49C1486.45 443.677 1486.36 443.904 1486.36 444.17V462.33C1486.36 462.597 1486.45 462.837 1486.64 463.05C1486.85 463.237 1487.09 463.33 1487.36 463.33ZM1531.28 467.65V438.81H1535.6V463.33H1560.08V467.65H1531.28ZM1578.45 467.65V438.81H1582.77V463.33H1607.25V467.65H1578.45ZM1625.66 467.65V438.85H1652.06V443.17H1630.02V451.09H1647.74V455.41H1630.02V463.33H1652.06V467.65H1625.66ZM1677.41 467.65C1676.45 467.65 1675.57 467.424 1674.77 466.97C1674 466.49 1673.37 465.864 1672.89 465.09C1672.44 464.29 1672.21 463.41 1672.21 462.45V444.05C1672.21 443.09 1672.44 442.224 1672.89 441.45C1673.37 440.65 1674 440.024 1674.77 439.57C1675.57 439.09 1676.45 438.85 1677.41 438.85H1695.77C1696.73 438.85 1697.61 439.09 1698.41 439.57C1699.21 440.024 1699.84 440.65 1700.29 441.45C1700.77 442.224 1701.01 443.09 1701.01 444.05V445.77H1696.65V444.17C1696.65 443.904 1696.56 443.677 1696.37 443.49C1696.18 443.277 1695.96 443.17 1695.69 443.17H1677.53C1677.26 443.17 1677.02 443.277 1676.81 443.49C1676.62 443.677 1676.53 443.904 1676.53 444.17V462.33C1676.53 462.597 1676.62 462.837 1676.81 463.05C1677.02 463.237 1677.26 463.33 1677.53 463.33H1695.69C1695.96 463.33 1696.18 463.237 1696.37 463.05C1696.56 462.837 1696.65 462.597 1696.65 462.33V456.21H1689.85V451.85H1701.01V462.45C1701.01 463.41 1700.77 464.29 1700.29 465.09C1699.84 465.864 1699.21 466.49 1698.41 466.97C1697.61 467.424 1696.73 467.65 1695.77 467.65H1677.41ZM1721.49 467.65V438.85H1747.89V443.17H1725.85V451.09H1743.57V455.41H1725.85V463.33H1747.89V467.65H1721.49ZM739.013 539.65V510.89H762.573C763.533 510.89 764.413 511.13 765.213 511.61C766.013 512.09 766.64 512.73 767.093 513.53C767.573 514.304 767.813 515.157 767.813 516.09V524.17C767.813 525.13 767.573 526.01 767.093 526.81C766.64 527.584 766.013 528.21 765.213 528.69C764.413 529.144 763.533 529.37 762.573 529.37L743.333 529.41V539.65H739.013ZM744.333 525.01H762.493C762.76 525.01 762.987 524.917 763.173 524.73C763.36 524.544 763.453 524.317 763.453 524.05V516.21C763.453 515.944 763.36 515.717 763.173 515.53C762.987 515.317 762.76 515.21 762.493 515.21H744.333C744.067 515.21 743.827 515.317 743.613 515.53C743.427 515.717 743.333 515.944 743.333 516.21V524.05C743.333 524.317 743.427 524.544 743.613 524.73C743.827 524.917 744.067 525.01 744.333 525.01ZM810.254 539.65L801.254 528.89H806.894L815.294 538.85V539.65H810.254ZM786.654 539.65V510.89H810.214C811.174 510.89 812.054 511.13 812.854 511.61C813.654 512.09 814.281 512.73 814.734 513.53C815.214 514.304 815.454 515.157 815.454 516.09V524.17C815.454 525.13 815.214 526.01 814.734 526.81C814.281 527.584 813.654 528.21 812.854 528.69C812.054 529.144 811.174 529.37 810.214 529.37L790.974 529.41V539.65H786.654ZM791.974 525.01H810.134C810.401 525.01 810.627 524.917 810.814 524.73C811.001 524.544 811.094 524.317 811.094 524.05V516.21C811.094 515.944 811.001 515.717 810.814 515.53C810.627 515.317 810.401 515.21 810.134 515.21H791.974C791.707 515.21 791.467 515.317 791.254 515.53C791.067 515.717 790.974 515.944 790.974 516.21V524.05C790.974 524.317 791.067 524.544 791.254 524.73C791.467 524.917 791.707 525.01 791.974 525.01ZM840.782 539.65C839.822 539.65 838.942 539.424 838.142 538.97C837.369 538.49 836.742 537.864 836.262 537.09C835.809 536.29 835.582 535.41 835.582 534.45V516.05C835.582 515.09 835.809 514.224 836.262 513.45C836.742 512.65 837.369 512.024 838.142 511.57C838.942 511.09 839.822 510.85 840.782 510.85H859.182C860.115 510.85 860.982 511.09 861.782 511.57C862.582 512.024 863.209 512.65 863.662 513.45C864.142 514.224 864.382 515.09 864.382 516.05V534.45C864.382 535.41 864.142 536.29 863.662 537.09C863.209 537.864 862.582 538.49 861.782 538.97C860.982 539.424 860.115 539.65 859.182 539.65H840.782ZM840.902 535.33H859.062C859.329 535.33 859.555 535.237 859.742 535.05C859.929 534.837 860.022 534.597 860.022 534.33V516.17C860.022 515.904 859.929 515.677 859.742 515.49C859.555 515.277 859.329 515.17 859.062 515.17H840.902C840.635 515.17 840.395 515.277 840.182 515.49C839.995 515.677 839.902 515.904 839.902 516.17V534.33C839.902 534.597 839.995 534.837 840.182 535.05C840.395 535.237 840.635 535.33 840.902 535.33ZM889.987 539.65C889.027 539.65 888.147 539.424 887.347 538.97C886.574 538.49 885.947 537.864 885.467 537.09C885.014 536.29 884.787 535.41 884.787 534.45V516.05C884.787 515.09 885.014 514.224 885.467 513.45C885.947 512.65 886.574 512.024 887.347 511.57C888.147 511.09 889.027 510.85 889.987 510.85H908.347C909.307 510.85 910.187 511.09 910.987 511.57C911.787 512.024 912.414 512.65 912.867 513.45C913.347 514.224 913.587 515.09 913.587 516.05V517.77H909.227V516.17C909.227 515.904 909.134 515.677 908.947 515.49C908.76 515.277 908.534 515.17 908.267 515.17H890.107C889.84 515.17 889.6 515.277 889.387 515.49C889.2 515.677 889.107 515.904 889.107 516.17V534.33C889.107 534.597 889.2 534.837 889.387 535.05C889.6 535.237 889.84 535.33 890.107 535.33H908.267C908.534 535.33 908.76 535.237 908.947 535.05C909.134 534.837 909.227 534.597 909.227 534.33V528.21H902.427V523.85H913.587V534.45C913.587 535.41 913.347 536.29 912.867 537.09C912.414 537.864 911.787 538.49 910.987 538.97C910.187 539.424 909.307 539.65 908.347 539.65H889.987ZM957.59 539.65L948.59 528.89H954.23L962.63 538.85V539.65H957.59ZM933.99 539.65V510.89H957.55C958.51 510.89 959.39 511.13 960.19 511.61C960.99 512.09 961.617 512.73 962.07 513.53C962.55 514.304 962.79 515.157 962.79 516.09V524.17C962.79 525.13 962.55 526.01 962.07 526.81C961.617 527.584 960.99 528.21 960.19 528.69C959.39 529.144 958.51 529.37 957.55 529.37L938.31 529.41V539.65H933.99ZM939.31 525.01H957.47C957.737 525.01 957.963 524.917 958.15 524.73C958.337 524.544 958.43 524.317 958.43 524.05V516.21C958.43 515.944 958.337 515.717 958.15 515.53C957.963 515.317 957.737 515.21 957.47 515.21H939.31C939.043 515.21 938.803 515.317 938.59 515.53C938.403 515.717 938.31 515.944 938.31 516.21V524.05C938.31 524.317 938.403 524.544 938.59 524.73C938.803 524.917 939.043 525.01 939.31 525.01ZM983.078 539.65V516.05C983.078 515.09 983.304 514.224 983.758 513.45C984.238 512.65 984.864 512.024 985.638 511.57C986.438 511.09 987.318 510.85 988.278 510.85H1006.64C1007.6 510.85 1008.48 511.09 1009.28 511.57C1010.08 512.024 1010.7 512.65 1011.16 513.45C1011.64 514.224 1011.88 515.09 1011.88 516.05V539.65H1007.52V529.57H987.398V539.65H983.078ZM987.398 525.25H1007.52V516.17C1007.52 515.904 1007.42 515.677 1007.24 515.49C1007.05 515.277 1006.82 515.17 1006.56 515.17H988.398C988.131 515.17 987.891 515.277 987.678 515.49C987.491 515.677 987.398 515.904 987.398 516.17V525.25ZM1032.44 539.65V510.85H1037.6L1048.76 524.13L1059.88 510.85H1065.08V539.65H1060.72V516.65L1048.76 530.89L1036.76 516.65V539.65H1032.44ZM1085.54 539.65V510.85H1090.7L1101.86 524.13L1112.98 510.85H1118.18V539.65H1113.82V516.65L1101.86 530.89L1089.86 516.65V539.65H1085.54ZM1138.53 539.65V510.85H1142.85V539.65H1138.53ZM1163.21 539.65V510.85H1168.37L1187.65 533.81V510.85H1192.01V539.65H1186.85L1167.53 516.65V539.65H1163.21ZM1217.69 539.65C1216.73 539.65 1215.85 539.424 1215.05 538.97C1214.28 538.49 1213.65 537.864 1213.17 537.09C1212.72 536.29 1212.49 535.41 1212.49 534.45V516.05C1212.49 515.09 1212.72 514.224 1213.17 513.45C1213.65 512.65 1214.28 512.024 1215.05 511.57C1215.85 511.09 1216.73 510.85 1217.69 510.85H1236.05C1237.01 510.85 1237.89 511.09 1238.69 511.57C1239.49 512.024 1240.12 512.65 1240.57 513.45C1241.05 514.224 1241.29 515.09 1241.29 516.05V517.77H1236.93V516.17C1236.93 515.904 1236.84 515.677 1236.65 515.49C1236.46 515.277 1236.24 515.17 1235.97 515.17H1217.81C1217.54 515.17 1217.3 515.277 1217.09 515.49C1216.9 515.677 1216.81 515.904 1216.81 516.17V534.33C1216.81 534.597 1216.9 534.837 1217.09 535.05C1217.3 535.237 1217.54 535.33 1217.81 535.33H1235.97C1236.24 535.33 1236.46 535.237 1236.65 535.05C1236.84 534.837 1236.93 534.597 1236.93 534.33V528.21H1230.13V523.85H1241.29V534.45C1241.29 535.41 1241.05 536.29 1240.57 537.09C1240.12 537.864 1239.49 538.49 1238.69 538.97C1237.89 539.424 1237.01 539.65 1236.05 539.65H1217.69ZM1294.49 539.65C1293.53 539.65 1292.65 539.424 1291.85 538.97C1291.08 538.49 1290.45 537.864 1289.97 537.09C1289.52 536.29 1289.29 535.41 1289.29 534.45V516.05C1289.29 515.09 1289.52 514.224 1289.97 513.45C1290.45 512.65 1291.08 512.024 1291.85 511.57C1292.65 511.09 1293.53 510.85 1294.49 510.85H1318.01V515.17H1295.09C1294.67 515.17 1294.31 515.317 1294.01 515.61C1293.75 515.877 1293.61 516.224 1293.61 516.65V533.85C1293.61 534.277 1293.75 534.637 1294.01 534.93C1294.31 535.197 1294.67 535.33 1295.09 535.33H1318.01V539.65H1294.49ZM1338.23 539.65V510.81H1342.55V535.33H1367.03V539.65H1338.23ZM1390.48 539.65C1389.52 539.65 1388.64 539.424 1387.84 538.97C1387.06 538.49 1386.44 537.864 1385.96 537.09C1385.5 536.29 1385.28 535.41 1385.28 534.45V510.85H1389.6V534.33C1389.6 534.597 1389.69 534.837 1389.88 535.05C1390.09 535.237 1390.33 535.33 1390.6 535.33H1408.76C1409.02 535.33 1409.25 535.237 1409.44 535.05C1409.62 534.837 1409.72 534.597 1409.72 534.33V510.85H1414.08V534.45C1414.08 535.41 1413.84 536.29 1413.36 537.09C1412.9 537.864 1412.28 538.49 1411.48 538.97C1410.68 539.424 1409.81 539.65 1408.88 539.65H1390.48ZM1434.6 539.65V510.85H1457C1457.94 510.85 1458.8 511.09 1459.6 511.57C1460.4 512.024 1461.03 512.65 1461.48 513.45C1461.96 514.224 1462.2 515.09 1462.2 516.05V521.93C1462.2 522.277 1462.16 522.624 1462.08 522.97C1462.03 523.317 1461.92 523.637 1461.76 523.93C1462.3 524.677 1462.7 525.384 1462.96 526.05C1463.26 526.69 1463.4 527.344 1463.4 528.01V534.45C1463.4 535.41 1463.16 536.29 1462.68 537.09C1462.23 537.864 1461.6 538.49 1460.8 538.97C1460 539.424 1459.12 539.65 1458.16 539.65H1434.6ZM1439.92 535.33H1458.08C1458.35 535.33 1458.58 535.237 1458.76 535.05C1458.95 534.837 1459.04 534.597 1459.04 534.33V528.13C1459.04 527.864 1458.95 527.637 1458.76 527.45C1458.58 527.237 1458.35 527.13 1458.08 527.13H1439.92C1439.66 527.13 1439.42 527.237 1439.2 527.45C1439.02 527.637 1438.92 527.864 1438.92 528.13V534.33C1438.92 534.597 1439.02 534.837 1439.2 535.05C1439.42 535.237 1439.66 535.33 1439.92 535.33ZM1439.92 522.81H1456.88C1457.15 522.81 1457.38 522.717 1457.56 522.53C1457.75 522.317 1457.84 522.077 1457.84 521.81V516.17C1457.84 515.904 1457.75 515.677 1457.56 515.49C1457.38 515.277 1457.15 515.17 1456.88 515.17H1439.92C1439.66 515.17 1439.42 515.277 1439.2 515.49C1439.02 515.677 1438.92 515.904 1438.92 516.17V521.81C1438.92 522.077 1439.02 522.317 1439.2 522.53C1439.42 522.717 1439.66 522.81 1439.92 522.81Z" fill="#EEEEEE"/>
<path d="M448.648 136.65L471.148 190.65H603.574C603.574 190.65 678.148 188.736 678.148 244.65C678.148 300.565 603.574 297.989 603.574 297.989H539.13V210.278H466.648V352.65L606.148 352.657C669.148 352.657 745.648 321.157 745.648 240.786C745.648 145.659 642.148 136.642 603.574 136.65C543.072 136.664 448.648 136.65 448.648 136.65Z" fill="#00DA62"/>
<path d="M1138.15 189.511L1097.65 136.895H1313.65C1313.65 136.895 1448.65 127.974 1448.65 217.9C1448.65 307.825 1313.65 296.495 1313.65 296.495H1227.95V352.895L1160.11 298.895V244.895C1211.49 244.895 1331.65 244.895 1331.65 244.895C1331.65 244.895 1381.15 249.395 1381.15 217.895C1381.15 186.395 1331.65 189.511 1331.65 189.511H1138.15Z" fill="url(#paint0_linear_257_65)"/>
<path d="M772.648 136.65H844.648V352.65H772.648V136.65Z" fill="#00DA62"/>
<path d="M1078.65 136.65L1121.18 190.65L1002.15 191.311C1002.15 191.311 948.148 193.828 948.148 244.65C948.148 295.472 1002.15 298.65 1002.15 298.65H1137.15L1204.65 352.65H1002.15C961.648 352.65 880.648 327.278 880.648 244.65C880.648 142.955 991.992 136.65 991.992 136.65H1078.65Z" fill="#4D4D4D"/>
<path d="M1753.65 136.65L1713.15 191.311H1596.15C1596.15 191.311 1542.15 193.828 1542.15 244.65C1542.15 295.472 1596.15 298.65 1596.15 298.65H1753.65L1713.15 352.65H1596.15C1555.65 352.65 1474.65 327.278 1474.65 244.65C1474.65 142.955 1585.99 136.65 1585.99 136.65H1753.65Z" fill="#00DA62"/>
<defs>
<filter id="filter0_i_257_65" x="-10.3692" y="-7.1288" width="380.818" height="497.152" filterUnits="userSpaceOnUse" color-interpolation-filters="sRGB">
<feFlood flood-opacity="0" result="BackgroundImageFix"/>
<feBlend mode="normal" in="SourceGraphic" in2="BackgroundImageFix" result="shape"/>
<feColorMatrix in="SourceAlpha" type="matrix" values="0 0 0 0 0 0 0 0 0 0 0 0 0 0 0 0 0 0 127 0" result="hardAlpha"/>
<feOffset dx="-10.3692" dy="-7.1288"/>
<feGaussianBlur stdDeviation="12.9614"/>
<feComposite in2="hardAlpha" operator="arithmetic" k2="-1" k3="1"/>
<feColorMatrix type="matrix" values="0 0 0 0 0.745192 0 0 0 0 0.74161 0 0 0 0 0.74161 0 0 0 0.25 0"/>
<feBlend mode="normal" in2="shape" result="effect1_innerShadow_257_65"/>
</filter>
<linearGradient id="paint0_linear_257_65" x1="1413.15" y1="231.966" x2="896.648" y2="231.966" gradientUnits="userSpaceOnUse">
<stop stop-color="#AAB2AE"/>
<stop offset="1" stop-color="#202020"/>
</linearGradient>
</defs>
</svg>
