<svg width="1457" height="483" viewBox="0 0 1457 483" fill="none" xmlns="http://www.w3.org/2000/svg">
<path d="M66.1716 334V305.2H89.7316C90.6916 305.2 91.5716 305.44 92.3716 305.92C93.1716 306.373 93.7982 307 94.2516 307.8C94.7316 308.573 94.9716 309.44 94.9716 310.4V328.8C94.9716 329.76 94.7316 330.64 94.2516 331.44C93.7982 332.213 93.1716 332.84 92.3716 333.32C91.5716 333.773 90.6916 334 89.7316 334H66.1716ZM71.4516 329.68H89.6516C89.9182 329.68 90.1449 329.587 90.3316 329.4C90.5182 329.187 90.6116 328.947 90.6116 328.68V310.52C90.6116 310.253 90.5182 310.027 90.3316 309.84C90.1449 309.627 89.9182 309.52 89.6516 309.52H71.4516C71.1849 309.52 70.9582 309.627 70.7716 309.84C70.5849 310.027 70.4916 310.253 70.4916 310.52V328.68C70.4916 328.947 70.5849 329.187 70.7716 329.4C70.9582 329.587 71.1849 329.68 71.4516 329.68ZM115.531 334V310.4C115.531 309.44 115.758 308.573 116.211 307.8C116.691 307 117.318 306.373 118.091 305.92C118.891 305.44 119.771 305.2 120.731 305.2H139.091C140.051 305.2 140.931 305.44 141.731 305.92C142.531 306.373 143.158 307 143.611 307.8C144.091 308.573 144.331 309.44 144.331 310.4V334H139.971V323.92H119.851V334H115.531ZM119.851 319.6H139.971V310.52C139.971 310.253 139.878 310.027 139.691 309.84C139.504 309.627 139.278 309.52 139.011 309.52H120.851C120.584 309.52 120.344 309.627 120.131 309.84C119.944 310.027 119.851 310.253 119.851 310.52V319.6ZM164.968 334V305.2H191.368V309.52H169.328V317.44H187.048V321.76H169.328V334H164.968ZM209.875 334V305.2H236.275V309.52H214.235V317.44H231.955V321.76H214.235V334H209.875ZM259.821 334C258.861 334 257.981 333.773 257.181 333.32C256.408 332.84 255.781 332.213 255.301 331.44C254.848 330.64 254.621 329.76 254.621 328.8V310.4C254.621 309.44 254.848 308.573 255.301 307.8C255.781 307 256.408 306.373 257.181 305.92C257.981 305.44 258.861 305.2 259.821 305.2H278.221C279.154 305.2 280.021 305.44 280.821 305.92C281.621 306.373 282.248 307 282.701 307.8C283.181 308.573 283.421 309.44 283.421 310.4V328.8C283.421 329.76 283.181 330.64 282.701 331.44C282.248 332.213 281.621 332.84 280.821 333.32C280.021 333.773 279.154 334 278.221 334H259.821ZM259.941 329.68H278.101C278.368 329.68 278.594 329.587 278.781 329.4C278.968 329.187 279.061 328.947 279.061 328.68V310.52C279.061 310.253 278.968 310.027 278.781 309.84C278.594 309.627 278.368 309.52 278.101 309.52H259.941C259.674 309.52 259.434 309.627 259.221 309.84C259.034 310.027 258.941 310.253 258.941 310.52V328.68C258.941 328.947 259.034 329.187 259.221 329.4C259.434 329.587 259.674 329.68 259.941 329.68ZM303.906 334V305.2H327.466C328.426 305.2 329.306 305.44 330.106 305.92C330.906 306.373 331.533 307 331.986 307.8C332.466 308.573 332.706 309.44 332.706 310.4V328.8C332.706 329.76 332.466 330.64 331.986 331.44C331.533 332.213 330.906 332.84 330.106 333.32C329.306 333.773 328.426 334 327.466 334H303.906ZM309.186 329.68H327.386C327.653 329.68 327.879 329.587 328.066 329.4C328.253 329.187 328.346 328.947 328.346 328.68V310.52C328.346 310.253 328.253 310.027 328.066 309.84C327.879 309.627 327.653 309.52 327.386 309.52H309.186C308.919 309.52 308.693 309.627 308.506 309.84C308.319 310.027 308.226 310.253 308.226 310.52V328.68C308.226 328.947 308.319 329.187 308.506 329.4C308.693 329.587 308.919 329.68 309.186 329.68ZM353.065 334V305.2H357.385V334H353.065ZM377.78 334V305.16H382.1V329.68H406.58V334H377.78ZM452.393 334V305.2H456.713V334H452.393ZM477.068 334V305.2H482.228L501.508 328.16V305.2H505.868V334H500.708L481.388 311V334H477.068ZM537.149 334V309.52H524.909V305.2H553.709V309.52H541.469V334H537.149ZM572.781 334V305.2H599.181V309.52H577.141V317.44H594.861V321.76H577.141V329.68H599.181V334H572.781ZM642.926 334L633.926 323.24H639.566L647.966 333.2V334H642.926ZM619.326 334V305.24H642.886C643.846 305.24 644.726 305.48 645.526 305.96C646.326 306.44 646.953 307.08 647.406 307.88C647.886 308.653 648.126 309.507 648.126 310.44V318.52C648.126 319.48 647.886 320.36 647.406 321.16C646.953 321.933 646.326 322.56 645.526 323.04C644.726 323.493 643.846 323.72 642.886 323.72L623.646 323.76V334H619.326ZM624.646 319.36H642.806C643.073 319.36 643.299 319.267 643.486 319.08C643.673 318.893 643.766 318.667 643.766 318.4V310.56C643.766 310.293 643.673 310.067 643.486 309.88C643.299 309.667 643.073 309.56 642.806 309.56H624.646C624.379 309.56 624.139 309.667 623.926 309.88C623.739 310.067 623.646 310.293 623.646 310.56V318.4C623.646 318.667 623.739 318.893 623.926 319.08C624.139 319.267 624.379 319.36 624.646 319.36ZM668.334 334V305.2H673.494L692.774 328.16V305.2H697.134V334H691.974L672.654 311V334H668.334ZM717.695 334V310.4C717.695 309.44 717.922 308.573 718.375 307.8C718.855 307 719.482 306.373 720.255 305.92C721.055 305.44 721.935 305.2 722.895 305.2H741.255C742.215 305.2 743.095 305.44 743.895 305.92C744.695 306.373 745.322 307 745.775 307.8C746.255 308.573 746.495 309.44 746.495 310.4V334H742.135V323.92H722.015V334H717.695ZM722.015 319.6H742.135V310.52C742.135 310.253 742.042 310.027 741.855 309.84C741.668 309.627 741.442 309.52 741.175 309.52H723.015C722.748 309.52 722.508 309.627 722.295 309.84C722.108 310.027 722.015 310.253 722.015 310.52V319.6ZM777.853 334V309.52H765.613V305.2H794.413V309.52H782.173V334H777.853ZM813.284 334V305.2H817.604V334H813.284ZM843.079 334C842.119 334 841.239 333.773 840.439 333.32C839.665 332.84 839.039 332.213 838.559 331.44C838.105 330.64 837.879 329.76 837.879 328.8V310.4C837.879 309.44 838.105 308.573 838.559 307.8C839.039 307 839.665 306.373 840.439 305.92C841.239 305.44 842.119 305.2 843.079 305.2H861.479C862.412 305.2 863.279 305.44 864.079 305.92C864.879 306.373 865.505 307 865.959 307.8C866.439 308.573 866.679 309.44 866.679 310.4V328.8C866.679 329.76 866.439 330.64 865.959 331.44C865.505 332.213 864.879 332.84 864.079 333.32C863.279 333.773 862.412 334 861.479 334H843.079ZM843.199 329.68H861.359C861.625 329.68 861.852 329.587 862.039 329.4C862.225 329.187 862.319 328.947 862.319 328.68V310.52C862.319 310.253 862.225 310.027 862.039 309.84C861.852 309.627 861.625 309.52 861.359 309.52H843.199C842.932 309.52 842.692 309.627 842.479 309.84C842.292 310.027 842.199 310.253 842.199 310.52V328.68C842.199 328.947 842.292 329.187 842.479 329.4C842.692 329.587 842.932 329.68 843.199 329.68ZM887.084 334V305.2H892.244L911.524 328.16V305.2H915.884V334H910.724L891.404 311V334H887.084ZM936.445 334V310.4C936.445 309.44 936.672 308.573 937.125 307.8C937.605 307 938.232 306.373 939.005 305.92C939.805 305.44 940.685 305.2 941.645 305.2H960.005C960.965 305.2 961.845 305.44 962.645 305.92C963.445 306.373 964.072 307 964.525 307.8C965.005 308.573 965.245 309.44 965.245 310.4V334H960.885V323.92H940.765V334H936.445ZM940.765 319.6H960.885V310.52C960.885 310.253 960.792 310.027 960.605 309.84C960.418 309.627 960.192 309.52 959.925 309.52H941.765C941.498 309.52 941.258 309.627 941.045 309.84C940.858 310.027 940.765 310.253 940.765 310.52V319.6ZM985.843 334V305.16H990.163V329.68H1014.64V334H985.843ZM1065.78 334C1064.82 334 1063.94 333.773 1063.14 333.32C1062.36 332.84 1061.74 332.213 1061.26 331.44C1060.8 330.64 1060.58 329.76 1060.58 328.8V310.4C1060.58 309.44 1060.8 308.573 1061.26 307.8C1061.74 307 1062.36 306.373 1063.14 305.92C1063.94 305.44 1064.82 305.2 1065.78 305.2H1089.3V309.52H1066.38C1065.95 309.52 1065.59 309.667 1065.3 309.96C1065.03 310.227 1064.9 310.573 1064.9 311V328.2C1064.9 328.627 1065.03 328.987 1065.3 329.28C1065.59 329.547 1065.95 329.68 1066.38 329.68H1089.3V334H1065.78ZM1114.59 334C1113.63 334 1112.75 333.773 1111.95 333.32C1111.17 332.84 1110.55 332.213 1110.07 331.44C1109.61 330.64 1109.39 329.76 1109.39 328.8V310.4C1109.39 309.44 1109.61 308.573 1110.07 307.8C1110.55 307 1111.17 306.373 1111.95 305.92C1112.75 305.44 1113.63 305.2 1114.59 305.2H1132.99C1133.92 305.2 1134.79 305.44 1135.59 305.92C1136.39 306.373 1137.01 307 1137.47 307.8C1137.95 308.573 1138.19 309.44 1138.19 310.4V328.8C1138.19 329.76 1137.95 330.64 1137.47 331.44C1137.01 332.213 1136.39 332.84 1135.59 333.32C1134.79 333.773 1133.92 334 1132.99 334H1114.59ZM1114.71 329.68H1132.87C1133.13 329.68 1133.36 329.587 1133.55 329.4C1133.73 329.187 1133.83 328.947 1133.83 328.68V310.52C1133.83 310.253 1133.73 310.027 1133.55 309.84C1133.36 309.627 1133.13 309.52 1132.87 309.52H1114.71C1114.44 309.52 1114.2 309.627 1113.99 309.84C1113.8 310.027 1113.71 310.253 1113.71 310.52V328.68C1113.71 328.947 1113.8 329.187 1113.99 329.4C1114.2 329.587 1114.44 329.68 1114.71 329.68ZM1158.63 334V305.16H1162.95V329.68H1187.43V334H1158.63ZM1205.8 334V305.16H1210.12V329.68H1234.6V334H1205.8ZM1253.02 334V305.2H1279.42V309.52H1257.38V317.44H1275.1V321.76H1257.38V329.68H1279.42V334H1253.02ZM1304.76 334C1303.8 334 1302.92 333.773 1302.12 333.32C1301.35 332.84 1300.72 332.213 1300.24 331.44C1299.79 330.64 1299.56 329.76 1299.56 328.8V310.4C1299.56 309.44 1299.79 308.573 1300.24 307.8C1300.72 307 1301.35 306.373 1302.12 305.92C1302.92 305.44 1303.8 305.2 1304.76 305.2H1323.12C1324.08 305.2 1324.96 305.44 1325.76 305.92C1326.56 306.373 1327.19 307 1327.64 307.8C1328.12 308.573 1328.36 309.44 1328.36 310.4V312.12H1324V310.52C1324 310.253 1323.91 310.027 1323.72 309.84C1323.53 309.627 1323.31 309.52 1323.04 309.52H1304.88C1304.61 309.52 1304.37 309.627 1304.16 309.84C1303.97 310.027 1303.88 310.253 1303.88 310.52V328.68C1303.88 328.947 1303.97 329.187 1304.16 329.4C1304.37 329.587 1304.61 329.68 1304.88 329.68H1323.04C1323.31 329.68 1323.53 329.587 1323.72 329.4C1323.91 329.187 1324 328.947 1324 328.68V322.56H1317.2V318.2H1328.36V328.8C1328.36 329.76 1328.12 330.64 1327.64 331.44C1327.19 332.213 1326.56 332.84 1325.76 333.32C1324.96 333.773 1324.08 334 1323.12 334H1304.76ZM1348.84 334V305.2H1375.24V309.52H1353.2V317.44H1370.92V321.76H1353.2V329.68H1375.24V334H1348.84ZM366.365 406V377.24H389.925C390.885 377.24 391.765 377.48 392.565 377.96C393.365 378.44 393.992 379.08 394.445 379.88C394.925 380.653 395.165 381.507 395.165 382.44V390.52C395.165 391.48 394.925 392.36 394.445 393.16C393.992 393.933 393.365 394.56 392.565 395.04C391.765 395.493 390.885 395.72 389.925 395.72L370.685 395.76V406H366.365ZM371.685 391.36H389.845C390.112 391.36 390.338 391.267 390.525 391.08C390.712 390.893 390.805 390.667 390.805 390.4V382.56C390.805 382.293 390.712 382.067 390.525 381.88C390.338 381.667 390.112 381.56 389.845 381.56H371.685C371.418 381.56 371.178 381.667 370.965 381.88C370.778 382.067 370.685 382.293 370.685 382.56V390.4C370.685 390.667 370.778 390.893 370.965 391.08C371.178 391.267 371.418 391.36 371.685 391.36ZM437.606 406L428.606 395.24H434.246L442.646 405.2V406H437.606ZM414.006 406V377.24H437.566C438.526 377.24 439.406 377.48 440.206 377.96C441.006 378.44 441.632 379.08 442.086 379.88C442.566 380.653 442.806 381.507 442.806 382.44V390.52C442.806 391.48 442.566 392.36 442.086 393.16C441.632 393.933 441.006 394.56 440.206 395.04C439.406 395.493 438.526 395.72 437.566 395.72L418.326 395.76V406H414.006ZM419.326 391.36H437.486C437.752 391.36 437.979 391.267 438.166 391.08C438.352 390.893 438.446 390.667 438.446 390.4V382.56C438.446 382.293 438.352 382.067 438.166 381.88C437.979 381.667 437.752 381.56 437.486 381.56H419.326C419.059 381.56 418.819 381.667 418.606 381.88C418.419 382.067 418.326 382.293 418.326 382.56V390.4C418.326 390.667 418.419 390.893 418.606 391.08C418.819 391.267 419.059 391.36 419.326 391.36ZM468.133 406C467.173 406 466.293 405.773 465.493 405.32C464.72 404.84 464.093 404.213 463.613 403.44C463.16 402.64 462.933 401.76 462.933 400.8V382.4C462.933 381.44 463.16 380.573 463.613 379.8C464.093 379 464.72 378.373 465.493 377.92C466.293 377.44 467.173 377.2 468.133 377.2H486.533C487.467 377.2 488.333 377.44 489.133 377.92C489.933 378.373 490.56 379 491.013 379.8C491.493 380.573 491.733 381.44 491.733 382.4V400.8C491.733 401.76 491.493 402.64 491.013 403.44C490.56 404.213 489.933 404.84 489.133 405.32C488.333 405.773 487.467 406 486.533 406H468.133ZM468.253 401.68H486.413C486.68 401.68 486.907 401.587 487.093 401.4C487.28 401.187 487.373 400.947 487.373 400.68V382.52C487.373 382.253 487.28 382.027 487.093 381.84C486.907 381.627 486.68 381.52 486.413 381.52H468.253C467.987 381.52 467.747 381.627 467.533 381.84C467.347 382.027 467.253 382.253 467.253 382.52V400.68C467.253 400.947 467.347 401.187 467.533 401.4C467.747 401.587 467.987 401.68 468.253 401.68ZM517.338 406C516.378 406 515.498 405.773 514.698 405.32C513.925 404.84 513.298 404.213 512.818 403.44C512.365 402.64 512.138 401.76 512.138 400.8V382.4C512.138 381.44 512.365 380.573 512.818 379.8C513.298 379 513.925 378.373 514.698 377.92C515.498 377.44 516.378 377.2 517.338 377.2H535.698C536.658 377.2 537.538 377.44 538.338 377.92C539.138 378.373 539.765 379 540.218 379.8C540.698 380.573 540.938 381.44 540.938 382.4V384.12H536.578V382.52C536.578 382.253 536.485 382.027 536.298 381.84C536.112 381.627 535.885 381.52 535.618 381.52H517.458C517.192 381.52 516.952 381.627 516.738 381.84C516.552 382.027 516.458 382.253 516.458 382.52V400.68C516.458 400.947 516.552 401.187 516.738 401.4C516.952 401.587 517.192 401.68 517.458 401.68H535.618C535.885 401.68 536.112 401.587 536.298 401.4C536.485 401.187 536.578 400.947 536.578 400.68V394.56H529.778V390.2H540.938V400.8C540.938 401.76 540.698 402.64 540.218 403.44C539.765 404.213 539.138 404.84 538.338 405.32C537.538 405.773 536.658 406 535.698 406H517.338ZM584.942 406L575.942 395.24H581.582L589.982 405.2V406H584.942ZM561.342 406V377.24H584.902C585.862 377.24 586.742 377.48 587.542 377.96C588.342 378.44 588.968 379.08 589.422 379.88C589.902 380.653 590.142 381.507 590.142 382.44V390.52C590.142 391.48 589.902 392.36 589.422 393.16C588.968 393.933 588.342 394.56 587.542 395.04C586.742 395.493 585.862 395.72 584.902 395.72L565.662 395.76V406H561.342ZM566.662 391.36H584.822C585.088 391.36 585.315 391.267 585.502 391.08C585.688 390.893 585.782 390.667 585.782 390.4V382.56C585.782 382.293 585.688 382.067 585.502 381.88C585.315 381.667 585.088 381.56 584.822 381.56H566.662C566.395 381.56 566.155 381.667 565.942 381.88C565.755 382.067 565.662 382.293 565.662 382.56V390.4C565.662 390.667 565.755 390.893 565.942 391.08C566.155 391.267 566.395 391.36 566.662 391.36ZM610.429 406V382.4C610.429 381.44 610.656 380.573 611.109 379.8C611.589 379 612.216 378.373 612.989 377.92C613.789 377.44 614.669 377.2 615.629 377.2H633.989C634.949 377.2 635.829 377.44 636.629 377.92C637.429 378.373 638.056 379 638.509 379.8C638.989 380.573 639.229 381.44 639.229 382.4V406H634.869V395.92H614.749V406H610.429ZM614.749 391.6H634.869V382.52C634.869 382.253 634.776 382.027 634.589 381.84C634.403 381.627 634.176 381.52 633.909 381.52H615.749C615.483 381.52 615.243 381.627 615.029 381.84C614.843 382.027 614.749 382.253 614.749 382.52V391.6ZM659.787 406V377.2H664.947L676.107 390.48L687.227 377.2H692.427V406H688.067V383L676.107 397.24L664.107 383V406H659.787ZM712.896 406V377.2H718.056L729.216 390.48L740.336 377.2H745.536V406H741.176V383L729.216 397.24L717.216 383V406H712.896ZM765.886 406V377.2H770.206V406H765.886ZM790.56 406V377.2H795.72L815 400.16V377.2H819.36V406H814.2L794.88 383V406H790.56ZM845.042 406C844.082 406 843.202 405.773 842.402 405.32C841.628 404.84 841.002 404.213 840.522 403.44C840.068 402.64 839.842 401.76 839.842 400.8V382.4C839.842 381.44 840.068 380.573 840.522 379.8C841.002 379 841.628 378.373 842.402 377.92C843.202 377.44 844.082 377.2 845.042 377.2H863.402C864.362 377.2 865.242 377.44 866.042 377.92C866.842 378.373 867.468 379 867.922 379.8C868.402 380.573 868.642 381.44 868.642 382.4V384.12H864.282V382.52C864.282 382.253 864.188 382.027 864.002 381.84C863.815 381.627 863.588 381.52 863.322 381.52H845.162C844.895 381.52 844.655 381.627 844.442 381.84C844.255 382.027 844.162 382.253 844.162 382.52V400.68C844.162 400.947 844.255 401.187 844.442 401.4C844.655 401.587 844.895 401.68 845.162 401.68H863.322C863.588 401.68 863.815 401.587 864.002 401.4C864.188 401.187 864.282 400.947 864.282 400.68V394.56H857.482V390.2H868.642V400.8C868.642 401.76 868.402 402.64 867.922 403.44C867.468 404.213 866.842 404.84 866.042 405.32C865.242 405.773 864.362 406 863.402 406H845.042ZM921.846 406C920.886 406 920.006 405.773 919.206 405.32C918.433 404.84 917.806 404.213 917.326 403.44C916.873 402.64 916.646 401.76 916.646 400.8V382.4C916.646 381.44 916.873 380.573 917.326 379.8C917.806 379 918.433 378.373 919.206 377.92C920.006 377.44 920.886 377.2 921.846 377.2H945.366V381.52H922.446C922.02 381.52 921.66 381.667 921.366 381.96C921.1 382.227 920.966 382.573 920.966 383V400.2C920.966 400.627 921.1 400.987 921.366 401.28C921.66 401.547 922.02 401.68 922.446 401.68H945.366V406H921.846ZM965.577 406V377.16H969.897V401.68H994.377V406H965.577ZM1017.83 406C1016.87 406 1015.99 405.773 1015.19 405.32C1014.42 404.84 1013.79 404.213 1013.31 403.44C1012.86 402.64 1012.63 401.76 1012.63 400.8V377.2H1016.95V400.68C1016.95 400.947 1017.04 401.187 1017.23 401.4C1017.44 401.587 1017.68 401.68 1017.95 401.68H1036.11C1036.38 401.68 1036.6 401.587 1036.79 401.4C1036.98 401.187 1037.07 400.947 1037.07 400.68V377.2H1041.43V400.8C1041.43 401.76 1041.19 402.64 1040.71 403.44C1040.26 404.213 1039.63 404.84 1038.83 405.32C1038.03 405.773 1037.16 406 1036.23 406H1017.83ZM1061.95 406V377.2H1084.35C1085.29 377.2 1086.15 377.44 1086.95 377.92C1087.75 378.373 1088.38 379 1088.83 379.8C1089.31 380.573 1089.55 381.44 1089.55 382.4V388.28C1089.55 388.627 1089.51 388.973 1089.43 389.32C1089.38 389.667 1089.27 389.987 1089.11 390.28C1089.65 391.027 1090.05 391.733 1090.31 392.4C1090.61 393.04 1090.75 393.693 1090.75 394.36V400.8C1090.75 401.76 1090.51 402.64 1090.03 403.44C1089.58 404.213 1088.95 404.84 1088.15 405.32C1087.35 405.773 1086.47 406 1085.51 406H1061.95ZM1067.27 401.68H1085.43C1085.7 401.68 1085.93 401.587 1086.11 401.4C1086.3 401.187 1086.39 400.947 1086.39 400.68V394.48C1086.39 394.213 1086.3 393.987 1086.11 393.8C1085.93 393.587 1085.7 393.48 1085.43 393.48H1067.27C1067.01 393.48 1066.77 393.587 1066.55 393.8C1066.37 393.987 1066.27 394.213 1066.27 394.48V400.68C1066.27 400.947 1066.37 401.187 1066.55 401.4C1066.77 401.587 1067.01 401.68 1067.27 401.68ZM1067.27 389.16H1084.23C1084.5 389.16 1084.73 389.067 1084.91 388.88C1085.1 388.667 1085.19 388.427 1085.19 388.16V382.52C1085.19 382.253 1085.1 382.027 1084.91 381.84C1084.73 381.627 1084.5 381.52 1084.23 381.52H1067.27C1067.01 381.52 1066.77 381.627 1066.55 381.84C1066.37 382.027 1066.27 382.253 1066.27 382.52V388.16C1066.27 388.427 1066.37 388.667 1066.55 388.88C1066.77 389.067 1067.01 389.16 1067.27 389.16Z" fill="#EEEEEE"/>
<path d="M76 0L98.5 54H230.925C230.925 54 305.5 52.0852 305.5 108C305.5 163.915 230.925 161.339 230.925 161.339H166.481V73.6271H94V216L233.5 216.007C296.5 216.007 373 184.506 373 104.136C373 9.00872 269.5 -0.00872323 230.925 0C170.423 0.0136818 76 0 76 0Z" fill="#00D370"/>
<path d="M765.5 52.8607L725 0.244535H941C941 0.244535 1076 -8.67661 1076 81.2491C1076 171.175 941 159.845 941 159.845H855.305V216.245L787.46 162.245V108.245C838.845 108.245 959 108.245 959 108.245C959 108.245 1008.5 112.745 1008.5 81.2445C1008.5 49.7445 959 52.8607 959 52.8607H765.5Z" fill="url(#paint0_linear_327_26)"/>
<path d="M400 0H472V216H400V0Z" fill="#00D370"/>
<path d="M706 0L748.533 54L629.5 54.661C629.5 54.661 575.5 57.178 575.5 108C575.5 158.822 629.5 162 629.5 162H764.5L832 216H629.5C589 216 508 190.627 508 108C508 6.30509 619.344 0 619.344 0H706Z" fill="#4D4D4D"/>
<path d="M1381 0L1340.5 54.661H1223.5C1223.5 54.661 1169.5 57.178 1169.5 108C1169.5 158.822 1223.5 162 1223.5 162H1381L1340.5 216H1223.5C1183 216 1102 190.627 1102 108C1102 6.30509 1213.34 0 1213.34 0H1381Z" fill="#00D370"/>
<defs>
<linearGradient id="paint0_linear_327_26" x1="1040.5" y1="95.316" x2="524" y2="95.316" gradientUnits="userSpaceOnUse">
<stop stop-color="#AAB2AE"/>
<stop offset="1" stop-color="#202020"/>
</linearGradient>
</defs>
</svg>
