<svg width="2148" height="2708" viewBox="0 0 2148 2708" fill="none" xmlns="http://www.w3.org/2000/svg">
<g opacity="0.6">
<path d="M2023.42 2482.5C2023.42 2402.46 1958.53 2337.57 1878.48 2337.57C1798.44 2337.57 1733.55 2402.46 1733.55 2482.5C1733.55 2562.54 1798.44 2627.43 1878.48 2627.43V2628.93L1877.54 2628.93C1797.1 2628.42 1732.05 2563.06 1732.05 2482.5C1732.05 2401.63 1797.61 2336.07 1878.48 2336.07L1879.43 2336.07C1959.87 2336.58 2024.92 2401.94 2024.92 2482.5L2024.91 2483.45C2024.4 2563.88 1959.04 2628.93 1878.48 2628.93V2627.43C1958.53 2627.43 2023.42 2562.54 2023.42 2482.5Z" fill="url(#paint0_linear_299_394)"/>
<path d="M2111.45 2482.5C2111.45 2353.84 2007.15 2249.55 1878.49 2249.55C1749.84 2249.55 1645.54 2353.84 1645.54 2482.5C1645.54 2611.16 1749.84 2715.45 1878.49 2715.45V2716.95C1749.26 2716.95 1644.45 2612.39 1644.04 2483.26L1644.04 2482.5C1644.04 2353.02 1749.01 2248.05 1878.49 2248.05C2007.98 2248.05 2112.95 2353.02 2112.95 2482.5L2112.95 2483.26C2112.54 2612.39 2007.73 2716.95 1878.49 2716.95V2715.45C2007.15 2715.45 2111.45 2611.16 2111.45 2482.5Z" fill="url(#paint1_linear_299_394)"/>
<path d="M2185.07 2482.5C2185.07 2313.19 2047.82 2175.93 1878.51 2175.93C1709.19 2175.93 1571.94 2313.19 1571.94 2482.5C1571.94 2651.81 1709.19 2789.07 1878.51 2789.07V2790.57L1877.51 2790.57C1708.16 2790.03 1570.97 2652.85 1570.44 2483.5L1570.44 2482.5C1570.44 2312.36 1708.36 2174.43 1878.51 2174.43L1879.5 2174.43C2049.19 2174.97 2186.57 2312.69 2186.57 2482.5L2186.57 2483.5C2186.04 2653.18 2048.31 2790.57 1878.51 2790.57V2789.07C2047.82 2789.07 2185.07 2651.81 2185.07 2482.5Z" fill="url(#paint2_linear_299_394)"/>
<path d="M2260.28 2482.5C2260.28 2271.65 2089.35 2100.71 1878.49 2100.71C1667.64 2100.71 1496.71 2271.65 1496.71 2482.5C1496.71 2693.36 1667.64 2864.29 1878.49 2864.29V2865.79L1877.25 2865.79C1666.14 2865.12 1495.21 2693.77 1495.21 2482.5C1495.21 2270.82 1666.81 2099.21 1878.49 2099.21C2090.17 2099.21 2261.78 2270.82 2261.78 2482.5L2261.78 2483.74C2261.11 2694.85 2089.76 2865.79 1878.49 2865.79V2864.29C2089.35 2864.29 2260.28 2693.36 2260.28 2482.5Z" fill="url(#paint3_linear_299_394)"/>
<path d="M2319.5 2482.5C2319.5 2238.94 2122.06 2041.5 1878.5 2041.5C1634.94 2041.5 1437.5 2238.94 1437.5 2482.5C1437.5 2726.06 1634.94 2923.5 1878.5 2923.5V2925L1877.07 2925C1633.34 2924.23 1436 2726.41 1436 2482.5C1436 2238.11 1634.11 2040 1878.5 2040L1879.93 2040C2123.66 2040.77 2321 2238.59 2321 2482.5L2321 2483.93C2320.23 2727.66 2122.41 2925 1878.5 2925V2923.5C2122.06 2923.5 2319.5 2726.06 2319.5 2482.5Z" fill="url(#paint4_linear_299_394)"/>
</g>
<g opacity="0.6">
<path d="M113.582 1656.5C113.582 1576.46 178.471 1511.57 258.515 1511.57C338.559 1511.57 403.448 1576.46 403.448 1656.5C403.448 1736.54 338.559 1801.43 258.515 1801.43V1802.93L259.462 1802.93C339.899 1802.42 404.948 1737.06 404.948 1656.5C404.948 1575.63 339.388 1510.07 258.515 1510.07L257.568 1510.07C177.131 1510.58 112.082 1575.94 112.082 1656.5L112.085 1657.45C112.594 1737.88 177.958 1802.93 258.515 1802.93V1801.43C178.471 1801.43 113.582 1736.54 113.582 1656.5Z" fill="url(#paint5_linear_299_394)"/>
<path d="M25.553 1656.5C25.553 1527.84 129.85 1423.55 258.506 1423.55C387.162 1423.55 491.459 1527.84 491.459 1656.5C491.459 1785.16 387.162 1889.45 258.506 1889.45V1890.95C387.738 1890.95 492.549 1786.39 492.958 1657.26L492.959 1656.5C492.959 1527.02 387.991 1422.05 258.506 1422.05C129.021 1422.05 24.053 1527.02 24.053 1656.5L24.0543 1657.26C24.4632 1786.39 129.274 1890.95 258.506 1890.95V1889.45C129.85 1889.45 25.5531 1785.16 25.553 1656.5Z" fill="url(#paint6_linear_299_394)"/>
<path d="M-48.0737 1656.5C-48.0737 1487.19 89.1822 1349.93 258.496 1349.93C427.81 1349.93 565.065 1487.19 565.065 1656.5C565.065 1825.81 427.81 1963.07 258.496 1963.07V1964.57L259.492 1964.57C428.844 1964.03 566.028 1826.85 566.564 1657.5L566.565 1656.5C566.565 1486.36 428.638 1348.43 258.496 1348.43L257.499 1348.43C87.8155 1348.97 -49.5737 1486.69 -49.5737 1656.5L-49.5719 1657.5C-49.0346 1827.18 88.6861 1964.57 258.496 1964.57V1963.07C89.1822 1963.07 -48.0736 1825.81 -48.0737 1656.5Z" fill="url(#paint7_linear_299_394)"/>
<path d="M-123.278 1656.5C-123.278 1445.65 47.6535 1274.71 258.508 1274.71C469.363 1274.71 640.295 1445.65 640.295 1656.5C640.295 1867.36 469.363 2038.29 258.508 2038.29V2039.79L259.748 2039.79C470.861 2039.12 641.795 1867.77 641.795 1656.5C641.795 1444.82 470.192 1273.21 258.508 1273.21C46.825 1273.21 -124.778 1444.82 -124.778 1656.5L-124.776 1657.74C-124.108 1868.85 47.2385 2039.79 258.508 2039.79V2038.29C47.6534 2038.29 -123.278 1867.36 -123.278 1656.5Z" fill="url(#paint8_linear_299_394)"/>
<path d="M-182.5 1656.5C-182.5 1412.94 14.9425 1215.5 258.5 1215.5C502.058 1215.5 699.5 1412.94 699.5 1656.5C699.5 1900.06 502.058 2097.5 258.5 2097.5V2099L259.931 2099C503.659 2098.23 701 1900.41 701 1656.5C701 1412.11 502.886 1214 258.5 1214L257.069 1214C13.3409 1214.77 -184 1412.59 -184 1656.5L-183.998 1657.93C-183.226 1901.66 14.5913 2099 258.5 2099V2097.5C14.9425 2097.5 -182.5 1900.06 -182.5 1656.5Z" fill="url(#paint9_linear_299_394)"/>
</g>
<g style="mix-blend-mode:darken" opacity="0.43">
<path d="M2147.97 0.000976562C2147.97 234.748 1812.34 591.664 1502.25 591.664C1342.31 591.664 1727.75 789.527 2138.5 948.924M2147.97 0.000976562C2147.97 345.699 1948.61 645.147 1491.96 645.147C1245.94 645.147 1682.99 877.693 2138.5 1038.16M2147.97 0.000976562C2147.97 273.492 1859.91 605.121 1498.64 605.121C1309.29 605.121 1712.17 816.367 2138.5 978.045M2147.97 0.000976562C2147.97 384.647 1996.44 665.577 1488.35 665.577C1210.82 665.577 1667.17 910.128 2138.5 1069.4M2147.97 0.000976562C2147.97 306.228 1899.58 623.961 1495.62 623.961C1281.19 623.961 1699.12 844.55 2138.5 1005.75M2147.97 0.000976562C2147.97 420.183 2039.33 690.042 1485.04 690.042C1178.7 690.042 1652.92 943.791 2138.5 1099.88" stroke="url(#paint10_radial_299_394)" stroke-width="2.99474"/>
</g>
<defs>
<linearGradient id="paint0_linear_299_394" x1="1974.95" y1="2446.93" x2="1710.87" y2="2419.79" gradientUnits="userSpaceOnUse">
<stop stop-color="#414141"/>
<stop offset="1" stop-color="#A7A7A7" stop-opacity="0.52"/>
</linearGradient>
<linearGradient id="paint1_linear_299_394" x1="2032.94" y1="2425.54" x2="1610.13" y2="2382.1" gradientUnits="userSpaceOnUse">
<stop stop-color="#414141"/>
<stop offset="1" stop-color="#A7A7A7" stop-opacity="0.52"/>
</linearGradient>
<linearGradient id="paint2_linear_299_394" x1="2081.45" y1="2407.66" x2="1525.88" y2="2350.57" gradientUnits="userSpaceOnUse">
<stop stop-color="#414141"/>
<stop offset="1" stop-color="#A7A7A7" stop-opacity="0.52"/>
</linearGradient>
<linearGradient id="paint3_linear_299_394" x1="2130.98" y1="2389.39" x2="1439.77" y2="2318.36" gradientUnits="userSpaceOnUse">
<stop stop-color="#414141"/>
<stop offset="1" stop-color="#A7A7A7" stop-opacity="0.52"/>
</linearGradient>
<linearGradient id="paint4_linear_299_394" x1="2170" y1="2375" x2="1372" y2="2293" gradientUnits="userSpaceOnUse">
<stop stop-color="#414141"/>
<stop offset="1" stop-color="#A7A7A7" stop-opacity="0.52"/>
</linearGradient>
<linearGradient id="paint5_linear_299_394" x1="162.051" y1="1620.93" x2="426.127" y2="1593.79" gradientUnits="userSpaceOnUse">
<stop stop-color="#414141"/>
<stop offset="1" stop-color="#A7A7A7" stop-opacity="0.52"/>
</linearGradient>
<linearGradient id="paint6_linear_299_394" x1="104.058" y1="1599.54" x2="526.869" y2="1556.1" gradientUnits="userSpaceOnUse">
<stop stop-color="#414141"/>
<stop offset="1" stop-color="#A7A7A7" stop-opacity="0.52"/>
</linearGradient>
<linearGradient id="paint7_linear_299_394" x1="55.5529" y1="1581.66" x2="611.122" y2="1524.57" gradientUnits="userSpaceOnUse">
<stop stop-color="#414141"/>
<stop offset="1" stop-color="#A7A7A7" stop-opacity="0.52"/>
</linearGradient>
<linearGradient id="paint8_linear_299_394" x1="6.01541" y1="1563.39" x2="697.231" y2="1492.36" gradientUnits="userSpaceOnUse">
<stop stop-color="#414141"/>
<stop offset="1" stop-color="#A7A7A7" stop-opacity="0.52"/>
</linearGradient>
<linearGradient id="paint9_linear_299_394" x1="-33" y1="1549" x2="765" y2="1467" gradientUnits="userSpaceOnUse">
<stop stop-color="#414141"/>
<stop offset="1" stop-color="#A7A7A7" stop-opacity="0.52"/>
</linearGradient>
<radialGradient id="paint10_radial_299_394" cx="0" cy="0" r="1" gradientUnits="userSpaceOnUse" gradientTransform="translate(2032 698.501) rotate(170.031) scale(632.55 390.606)">
<stop stop-color="#C0C0C0"/>
<stop offset="1" stop-color="#9C9699" stop-opacity="0.4"/>
</radialGradient>
</defs>
</svg>
