<svg width="277" height="235" viewBox="0 0 277 235" fill="none" xmlns="http://www.w3.org/2000/svg">
<g opacity="0.41">
<path d="M99.7977 46.1086H128.853L157.276 74.5321H168.646M95.3763 56.2147L82.7436 43.582H42.6348V66.6367L57.1624 81.1643V95.0603L72.9532 110.851V128.537M42.6348 81.1643V102.324L57.1624 116.852V132.958" stroke="#4B5563" stroke-width="2.52654"/>
<path d="M206.228 45.4772H156.645L144.644 33.4761H98.5347L94.1133 29.0547H28.1074V104.535L39.4768 115.904V214.124" stroke="#4B5563" stroke-width="2.52654"/>
<path d="M264.655 6.94922H6.31641V222.653" stroke="#4B5563" stroke-width="2.52654"/>
<circle cx="6.63217" cy="228.335" r="5.3689" stroke="#4B5563" stroke-width="2.52654"/>
<circle cx="39.4769" cy="219.492" r="5.3689" stroke="#4B5563" stroke-width="2.52654"/>
<circle cx="270.024" cy="6.63217" r="5.3689" stroke="#4B5563" stroke-width="2.52654"/>
<path d="M183.174 36.3204L166.436 19.582H17.6855V106.748L29.3708 118.433V160.121L17.6855 171.806" stroke="#4B5563" stroke-width="2.52654"/>
<circle cx="211.913" cy="45.7923" r="5.3689" stroke="#4B5563" stroke-width="2.52654"/>
<circle cx="174.647" cy="74.847" r="5.3689" stroke="#4B5563" stroke-width="2.52654"/>
<circle cx="73.2697" cy="133.275" r="4.42144" stroke="#4B5563" stroke-width="2.52654"/>
<circle cx="56.8468" cy="137.696" r="4.42144" stroke="#4B5563" stroke-width="2.52654"/>
</g>
</svg>
