<svg width="277" height="235" viewBox="0 0 277 235" fill="none" xmlns="http://www.w3.org/2000/svg">
<g opacity="0.41">
<path d="M176.857 46.1086H147.802L119.378 74.5321H108.009M181.279 56.2147L193.911 43.582H234.02V66.6367L219.493 81.1643V95.0603L203.702 110.851V128.537M234.02 81.1643V102.324L219.493 116.852V132.958" stroke="#4B5563" stroke-width="2.52654"/>
<path d="M70.4265 45.4772H120.01L132.011 33.4761H178.12L182.542 29.0547H248.548V104.535L237.178 115.904V214.124" stroke="#4B5563" stroke-width="2.52654"/>
<path d="M11.9999 6.94922H270.339V222.653" stroke="#4B5563" stroke-width="2.52654"/>
<circle cx="6.63217" cy="6.63217" r="5.3689" transform="matrix(-1 0 0 1 276.655 221.703)" stroke="#4B5563" stroke-width="2.52654"/>
<circle cx="6.63217" cy="6.63217" r="5.3689" transform="matrix(-1 0 0 1 243.809 212.859)" stroke="#4B5563" stroke-width="2.52654"/>
<circle cx="6.63217" cy="6.63217" r="5.3689" transform="matrix(-1 0 0 1 13.2643 0)" stroke="#4B5563" stroke-width="2.52654"/>
<path d="M93.4811 36.3204L110.219 19.582H258.969V106.748L247.284 118.433V160.121L258.969 171.806" stroke="#4B5563" stroke-width="2.52654"/>
<circle cx="6.63217" cy="6.63217" r="5.3689" transform="matrix(-1 0 0 1 71.3737 39.1602)" stroke="#4B5563" stroke-width="2.52654"/>
<circle cx="6.63217" cy="6.63217" r="5.3689" transform="matrix(-1 0 0 1 108.641 68.2148)" stroke="#4B5563" stroke-width="2.52654"/>
<circle cx="5.68471" cy="5.68471" r="4.42144" transform="matrix(-1 0 0 1 209.071 127.59)" stroke="#4B5563" stroke-width="2.52654"/>
<circle cx="5.68471" cy="5.68471" r="4.42144" transform="matrix(-1 0 0 1 225.493 132.012)" stroke="#4B5563" stroke-width="2.52654"/>
</g>
</svg>
