<svg width="1070" height="244" viewBox="0 0 1070 244" fill="none" xmlns="http://www.w3.org/2000/svg">
<path d="M215.27 161.98H253.258L207.241 86.6151L253.258 11.5691H215.074L169.058 86.6151L215.27 161.98Z" fill="#3C9978"/>
<path d="M167.066 161.98H205.054L159.037 86.6151L205.054 11.5691H166.87L120.853 86.6151L167.066 161.98Z" fill="#3C9978"/>
<path d="M109.091 173.789H152.983L99.8151 86.7105L152.983 0.000839233H108.865L55.6968 86.7105L109.091 173.789Z" fill="#3C9978"/>
<path d="M53.395 173.789H97.2871L44.1189 86.7105L97.2871 0.000839233H53.1688L0.000518799 86.7105L53.395 173.789Z" fill="#3C9978"/>
<path d="M854.247 161.98H816.259L862.275 86.6151L816.259 11.5691H854.443L900.459 86.6151L854.247 161.98Z" fill="#3C9978"/>
<path d="M902.452 161.98H864.464L910.48 86.6151L864.464 11.5691H902.648L948.664 86.6151L902.452 161.98Z" fill="#3C9978"/>
<path d="M960.424 173.789H916.532L969.7 86.7105L916.532 0.000839233H960.651L1013.82 86.7105L960.424 173.789Z" fill="#3C9978"/>
<path d="M1016.12 173.789H972.229L1025.4 86.7105L972.229 0.000839233H1016.35L1069.52 86.7105L1016.12 173.789Z" fill="#3C9978"/>
<path d="M273.001 25L281.905 46.3696H334.311C334.311 46.3696 363.824 45.6119 363.824 67.7392C363.824 89.8666 334.311 88.8473 334.311 88.8473H308.808V54.1367H280.124V110.478L335.33 110.481C360.262 110.481 390.536 98.0154 390.536 66.2099C390.536 28.5651 349.577 24.9965 334.311 25C310.368 25.0054 273.001 25 273.001 25Z" fill="#277D5F"/>
<path d="M549.03 45.9187L533.003 25.0968H618.483C618.483 25.0968 671.908 21.5664 671.908 57.153C671.908 92.7396 618.483 88.2559 618.483 88.2559H584.57V110.575L557.721 89.2056V67.836C578.056 67.836 625.606 67.836 625.606 67.836C625.606 67.836 645.196 69.6168 645.196 57.1512C645.196 44.6856 625.606 45.9187 625.606 45.9187H549.03Z" fill="#363435"/>
<path d="M401.215 25H429.708V110.478H401.215V25Z" fill="#277D5F"/>
<path d="M522.309 25L539.142 46.3696L492.035 46.6312C492.035 46.6312 470.665 47.6272 470.665 67.7392C470.665 87.8512 492.035 89.1088 492.035 89.1088H545.46L572.173 110.478H492.035C476.008 110.478 443.953 100.438 443.953 67.7392C443.953 27.4951 488.016 25 488.016 25H522.309Z" fill="#363435"/>
<path d="M796.558 25L780.53 46.6312H734.228C734.228 46.6312 712.858 47.6272 712.858 67.7392C712.858 87.8512 734.228 89.1088 734.228 89.1088H796.558L780.53 110.478H734.228C718.201 110.478 686.146 100.438 686.146 67.7392C686.146 27.4951 730.209 25 730.209 25H796.558Z" fill="#277D5F"/>
<path d="M289.344 152H284.608V137.372H289.494C290.927 137.372 292.158 137.664 293.187 138.25C294.215 138.831 295.003 139.667 295.551 140.757C296.103 141.843 296.379 143.145 296.379 144.664C296.379 146.188 296.101 147.498 295.544 148.593C294.991 149.688 294.191 150.531 293.144 151.121C292.096 151.707 290.829 152 289.344 152ZM286.815 150.071H289.222C290.337 150.071 291.263 149.862 292.001 149.443C292.739 149.019 293.291 148.407 293.658 147.607C294.025 146.802 294.208 145.821 294.208 144.664C294.208 143.517 294.025 142.543 293.658 141.743C293.296 140.943 292.756 140.336 292.037 139.922C291.318 139.507 290.425 139.3 289.358 139.3H286.815V150.071ZM302.95 152.243C302.255 152.243 301.626 152.114 301.064 151.857C300.502 151.595 300.057 151.217 299.729 150.721C299.405 150.226 299.243 149.619 299.243 148.9C299.243 148.281 299.362 147.771 299.6 147.371C299.838 146.971 300.16 146.655 300.564 146.421C300.969 146.188 301.421 146.012 301.921 145.893C302.421 145.774 302.931 145.683 303.45 145.621C304.107 145.545 304.641 145.483 305.05 145.436C305.46 145.383 305.757 145.3 305.943 145.186C306.129 145.071 306.221 144.886 306.221 144.629V144.579C306.221 143.955 306.045 143.471 305.693 143.129C305.345 142.786 304.826 142.614 304.136 142.614C303.417 142.614 302.85 142.774 302.436 143.093C302.026 143.407 301.743 143.757 301.586 144.143L299.579 143.686C299.817 143.019 300.164 142.481 300.621 142.071C301.083 141.657 301.614 141.357 302.214 141.172C302.814 140.981 303.445 140.886 304.107 140.886C304.545 140.886 305.01 140.938 305.5 141.043C305.995 141.143 306.457 141.329 306.886 141.6C307.319 141.871 307.674 142.26 307.95 142.764C308.226 143.264 308.364 143.914 308.364 144.714V152H306.279V150.5H306.193C306.055 150.776 305.848 151.048 305.571 151.314C305.295 151.581 304.941 151.802 304.507 151.979C304.074 152.155 303.555 152.243 302.95 152.243ZM303.414 150.529C304.005 150.529 304.51 150.412 304.929 150.179C305.352 149.945 305.674 149.64 305.893 149.264C306.117 148.883 306.229 148.476 306.229 148.043V146.629C306.152 146.705 306.005 146.776 305.786 146.843C305.571 146.905 305.326 146.96 305.05 147.007C304.774 147.05 304.505 147.091 304.243 147.129C303.981 147.162 303.762 147.191 303.586 147.214C303.171 147.267 302.793 147.355 302.45 147.479C302.112 147.602 301.841 147.781 301.636 148.014C301.436 148.243 301.336 148.548 301.336 148.929C301.336 149.457 301.531 149.857 301.921 150.129C302.312 150.395 302.81 150.529 303.414 150.529ZM317.235 141.029V142.743H311.035V141.029H317.235ZM312.735 152V139.757C312.735 139.072 312.885 138.502 313.185 138.05C313.485 137.593 313.883 137.252 314.378 137.029C314.873 136.8 315.411 136.686 315.992 136.686C316.421 136.686 316.787 136.722 317.092 136.793C317.397 136.86 317.623 136.922 317.771 136.979L317.271 138.707C317.171 138.679 317.042 138.645 316.885 138.607C316.728 138.564 316.537 138.543 316.313 138.543C315.794 138.543 315.423 138.672 315.199 138.929C314.98 139.186 314.871 139.557 314.871 140.043V152H312.735ZM325.464 141.029V142.743H319.264V141.029H325.464ZM320.964 152V139.757C320.964 139.072 321.114 138.502 321.414 138.05C321.714 137.593 322.112 137.252 322.607 137.029C323.103 136.8 323.641 136.686 324.222 136.686C324.65 136.686 325.017 136.722 325.322 136.793C325.626 136.86 325.852 136.922 326 136.979L325.5 138.707C325.4 138.679 325.272 138.645 325.114 138.607C324.957 138.564 324.767 138.543 324.543 138.543C324.024 138.543 323.652 138.672 323.429 138.929C323.21 139.186 323.1 139.557 323.1 140.043V152H320.964ZM332.662 152.221C331.633 152.221 330.736 151.986 329.969 151.514C329.202 151.043 328.607 150.383 328.183 149.536C327.759 148.688 327.548 147.698 327.548 146.564C327.548 145.426 327.759 144.431 328.183 143.579C328.607 142.726 329.202 142.064 329.969 141.593C330.736 141.122 331.633 140.886 332.662 140.886C333.69 140.886 334.588 141.122 335.355 141.593C336.121 142.064 336.717 142.726 337.14 143.579C337.564 144.431 337.776 145.426 337.776 146.564C337.776 147.698 337.564 148.688 337.14 149.536C336.717 150.383 336.121 151.043 335.355 151.514C334.588 151.986 333.69 152.221 332.662 152.221ZM332.669 150.429C333.336 150.429 333.888 150.252 334.326 149.9C334.764 149.548 335.088 149.079 335.297 148.493C335.512 147.907 335.619 147.262 335.619 146.557C335.619 145.857 335.512 145.214 335.297 144.629C335.088 144.038 334.764 143.564 334.326 143.207C333.888 142.85 333.336 142.671 332.669 142.671C331.997 142.671 331.44 142.85 330.997 143.207C330.559 143.564 330.233 144.038 330.019 144.629C329.809 145.214 329.705 145.857 329.705 146.557C329.705 147.262 329.809 147.907 330.019 148.493C330.233 149.079 330.559 149.548 330.997 149.9C331.44 150.252 331.997 150.429 332.669 150.429ZM345.072 152.214C344.186 152.214 343.395 151.988 342.7 151.536C342.01 151.079 341.467 150.429 341.072 149.586C340.681 148.738 340.486 147.721 340.486 146.536C340.486 145.35 340.684 144.336 341.079 143.493C341.479 142.65 342.026 142.005 342.722 141.557C343.417 141.11 344.205 140.886 345.086 140.886C345.767 140.886 346.314 141 346.729 141.229C347.148 141.452 347.472 141.714 347.7 142.014C347.933 142.314 348.114 142.579 348.243 142.807H348.372V137.372H350.507V152H348.422V150.293H348.243C348.114 150.526 347.929 150.793 347.686 151.093C347.448 151.393 347.119 151.655 346.7 151.879C346.281 152.102 345.738 152.214 345.072 152.214ZM345.543 150.393C346.157 150.393 346.676 150.231 347.1 149.907C347.529 149.579 347.853 149.124 348.072 148.543C348.295 147.962 348.407 147.286 348.407 146.514C348.407 145.752 348.298 145.086 348.079 144.514C347.86 143.943 347.538 143.498 347.114 143.179C346.691 142.86 346.167 142.7 345.543 142.7C344.9 142.7 344.364 142.867 343.936 143.2C343.507 143.533 343.184 143.988 342.964 144.564C342.75 145.141 342.643 145.791 342.643 146.514C342.643 147.248 342.753 147.907 342.972 148.493C343.191 149.079 343.514 149.543 343.943 149.886C344.376 150.224 344.91 150.393 345.543 150.393ZM354.36 152V141.029H356.496V152H354.36ZM355.439 139.336C355.067 139.336 354.748 139.212 354.481 138.964C354.22 138.712 354.089 138.412 354.089 138.064C354.089 137.712 354.22 137.412 354.481 137.164C354.748 136.912 355.067 136.786 355.439 136.786C355.81 136.786 356.127 136.912 356.389 137.164C356.655 137.412 356.789 137.712 356.789 138.064C356.789 138.412 356.655 138.712 356.389 138.964C356.127 139.212 355.81 139.336 355.439 139.336ZM362.309 137.372V152H360.174V137.372H362.309ZM374.493 137.372V152H372.286V137.372H374.493ZM380.476 145.486V152H378.341V141.029H380.391V142.814H380.526C380.779 142.233 381.174 141.767 381.712 141.414C382.255 141.062 382.938 140.886 383.762 140.886C384.51 140.886 385.164 141.043 385.726 141.357C386.288 141.667 386.724 142.129 387.033 142.743C387.343 143.357 387.498 144.117 387.498 145.021V152H385.362V145.279C385.362 144.483 385.155 143.862 384.741 143.414C384.326 142.962 383.757 142.736 383.033 142.736C382.538 142.736 382.098 142.843 381.712 143.057C381.331 143.271 381.029 143.586 380.805 144C380.586 144.41 380.476 144.905 380.476 145.486ZM396.288 141.029V142.743H390.295V141.029H396.288ZM391.902 138.4H394.038V148.779C394.038 149.193 394.1 149.505 394.224 149.714C394.347 149.919 394.507 150.06 394.702 150.136C394.902 150.207 395.119 150.243 395.352 150.243C395.524 150.243 395.674 150.231 395.802 150.207C395.931 150.183 396.031 150.164 396.102 150.15L396.488 151.914C396.364 151.962 396.188 152.01 395.959 152.057C395.731 152.11 395.445 152.138 395.102 152.143C394.54 152.152 394.017 152.052 393.531 151.843C393.045 151.633 392.652 151.31 392.352 150.871C392.052 150.433 391.902 149.883 391.902 149.221V138.4ZM404.066 152.221C402.985 152.221 402.054 151.99 401.273 151.529C400.497 151.062 399.897 150.407 399.473 149.564C399.054 148.717 398.844 147.724 398.844 146.586C398.844 145.462 399.054 144.471 399.473 143.614C399.897 142.757 400.487 142.088 401.244 141.607C402.006 141.126 402.897 140.886 403.916 140.886C404.535 140.886 405.135 140.988 405.716 141.193C406.297 141.398 406.818 141.719 407.28 142.157C407.742 142.595 408.106 143.164 408.373 143.864C408.639 144.56 408.773 145.405 408.773 146.4V147.157H400.051V145.557H406.68C406.68 144.995 406.566 144.498 406.337 144.064C406.109 143.626 405.787 143.281 405.373 143.029C404.963 142.776 404.482 142.65 403.93 142.65C403.33 142.65 402.806 142.798 402.359 143.093C401.916 143.383 401.573 143.764 401.33 144.236C401.092 144.702 400.973 145.21 400.973 145.757V147.007C400.973 147.741 401.101 148.364 401.359 148.879C401.62 149.393 401.985 149.786 402.451 150.057C402.918 150.324 403.463 150.457 404.087 150.457C404.492 150.457 404.861 150.4 405.194 150.286C405.528 150.167 405.816 149.99 406.059 149.757C406.301 149.524 406.487 149.236 406.616 148.893L408.637 149.257C408.475 149.852 408.185 150.374 407.766 150.821C407.351 151.264 406.83 151.61 406.201 151.857C405.578 152.1 404.866 152.221 404.066 152.221ZM411.947 152V141.029H414.011V142.771H414.126C414.326 142.181 414.678 141.717 415.183 141.379C415.692 141.036 416.268 140.864 416.911 140.864C417.045 140.864 417.202 140.869 417.383 140.879C417.568 140.888 417.714 140.9 417.818 140.914V142.957C417.733 142.933 417.58 142.907 417.361 142.879C417.142 142.845 416.923 142.829 416.704 142.829C416.199 142.829 415.749 142.936 415.354 143.15C414.964 143.36 414.654 143.652 414.426 144.029C414.197 144.4 414.083 144.824 414.083 145.3V152H411.947ZM422.607 145.486V152H420.471V141.029H422.521V142.814H422.657C422.909 142.233 423.304 141.767 423.843 141.414C424.385 141.062 425.069 140.886 425.893 140.886C426.64 140.886 427.295 141.043 427.857 141.357C428.419 141.667 428.854 142.129 429.164 142.743C429.473 143.357 429.628 144.117 429.628 145.021V152H427.493V145.279C427.493 144.483 427.285 143.862 426.871 143.414C426.457 142.962 425.888 142.736 425.164 142.736C424.669 142.736 424.228 142.843 423.843 143.057C423.462 143.271 423.159 143.586 422.935 144C422.716 144.41 422.607 144.905 422.607 145.486ZM436.49 152.243C435.795 152.243 435.166 152.114 434.604 151.857C434.042 151.595 433.597 151.217 433.268 150.721C432.945 150.226 432.783 149.619 432.783 148.9C432.783 148.281 432.902 147.771 433.14 147.371C433.378 146.971 433.699 146.655 434.104 146.421C434.509 146.188 434.961 146.012 435.461 145.893C435.961 145.774 436.471 145.683 436.99 145.621C437.647 145.545 438.18 145.483 438.59 145.436C438.999 145.383 439.297 145.3 439.483 145.186C439.668 145.071 439.761 144.886 439.761 144.629V144.579C439.761 143.955 439.585 143.471 439.233 143.129C438.885 142.786 438.366 142.614 437.676 142.614C436.957 142.614 436.39 142.774 435.976 143.093C435.566 143.407 435.283 143.757 435.126 144.143L433.118 143.686C433.357 143.019 433.704 142.481 434.161 142.071C434.623 141.657 435.154 141.357 435.754 141.172C436.354 140.981 436.985 140.886 437.647 140.886C438.085 140.886 438.549 140.938 439.04 141.043C439.535 141.143 439.997 141.329 440.426 141.6C440.859 141.871 441.214 142.26 441.49 142.764C441.766 143.264 441.904 143.914 441.904 144.714V152H439.818V150.5H439.733C439.595 150.776 439.387 151.048 439.111 151.314C438.835 151.581 438.48 151.802 438.047 151.979C437.614 152.155 437.095 152.243 436.49 152.243ZM436.954 150.529C437.545 150.529 438.049 150.412 438.468 150.179C438.892 149.945 439.214 149.64 439.433 149.264C439.657 148.883 439.768 148.476 439.768 148.043V146.629C439.692 146.705 439.545 146.776 439.326 146.843C439.111 146.905 438.866 146.96 438.59 147.007C438.314 147.05 438.045 147.091 437.783 147.129C437.521 147.162 437.302 147.191 437.126 147.214C436.711 147.267 436.333 147.355 435.99 147.479C435.652 147.602 435.38 147.781 435.176 148.014C434.976 148.243 434.876 148.548 434.876 148.929C434.876 149.457 435.071 149.857 435.461 150.129C435.852 150.395 436.349 150.529 436.954 150.529ZM450.675 141.029V142.743H444.682V141.029H450.675ZM446.289 138.4H448.425V148.779C448.425 149.193 448.487 149.505 448.61 149.714C448.734 149.919 448.894 150.06 449.089 150.136C449.289 150.207 449.506 150.243 449.739 150.243C449.91 150.243 450.06 150.231 450.189 150.207C450.318 150.183 450.418 150.164 450.489 150.15L450.875 151.914C450.751 151.962 450.575 152.01 450.346 152.057C450.118 152.11 449.832 152.138 449.489 152.143C448.927 152.152 448.403 152.052 447.918 151.843C447.432 151.633 447.039 151.31 446.739 150.871C446.439 150.433 446.289 149.883 446.289 149.221V138.4ZM453.842 152V141.029H455.977V152H453.842ZM454.92 139.336C454.549 139.336 454.23 139.212 453.963 138.964C453.701 138.712 453.57 138.412 453.57 138.064C453.57 137.712 453.701 137.412 453.963 137.164C454.23 136.912 454.549 136.786 454.92 136.786C455.292 136.786 455.608 136.912 455.87 137.164C456.137 137.412 456.27 137.712 456.27 138.064C456.27 138.412 456.137 138.712 455.87 138.964C455.608 139.212 455.292 139.336 454.92 139.336ZM464.277 152.221C463.248 152.221 462.35 151.986 461.584 151.514C460.817 151.043 460.222 150.383 459.798 149.536C459.374 148.688 459.162 147.698 459.162 146.564C459.162 145.426 459.374 144.431 459.798 143.579C460.222 142.726 460.817 142.064 461.584 141.593C462.35 141.122 463.248 140.886 464.277 140.886C465.305 140.886 466.203 141.122 466.969 141.593C467.736 142.064 468.331 142.726 468.755 143.579C469.179 144.431 469.391 145.426 469.391 146.564C469.391 147.698 469.179 148.688 468.755 149.536C468.331 150.383 467.736 151.043 466.969 151.514C466.203 151.986 465.305 152.221 464.277 152.221ZM464.284 150.429C464.95 150.429 465.503 150.252 465.941 149.9C466.379 149.548 466.703 149.079 466.912 148.493C467.127 147.907 467.234 147.262 467.234 146.557C467.234 145.857 467.127 145.214 466.912 144.629C466.703 144.038 466.379 143.564 465.941 143.207C465.503 142.85 464.95 142.671 464.284 142.671C463.612 142.671 463.055 142.85 462.612 143.207C462.174 143.564 461.848 144.038 461.634 144.629C461.424 145.214 461.32 145.857 461.32 146.557C461.32 147.262 461.424 147.907 461.634 148.493C461.848 149.079 462.174 149.548 462.612 149.9C463.055 150.252 463.612 150.429 464.284 150.429ZM474.715 145.486V152H472.579V141.029H474.629V142.814H474.765C475.017 142.233 475.413 141.767 475.951 141.414C476.494 141.062 477.177 140.886 478.001 140.886C478.748 140.886 479.403 141.043 479.965 141.357C480.527 141.667 480.963 142.129 481.272 142.743C481.582 143.357 481.736 144.117 481.736 145.021V152H479.601V145.279C479.601 144.483 479.394 143.862 478.979 143.414C478.565 142.962 477.996 142.736 477.272 142.736C476.777 142.736 476.336 142.843 475.951 143.057C475.57 143.271 475.267 143.586 475.044 144C474.825 144.41 474.715 144.905 474.715 145.486ZM488.598 152.243C487.903 152.243 487.274 152.114 486.712 151.857C486.15 151.595 485.705 151.217 485.377 150.721C485.053 150.226 484.891 149.619 484.891 148.9C484.891 148.281 485.01 147.771 485.248 147.371C485.486 146.971 485.808 146.655 486.212 146.421C486.617 146.188 487.07 146.012 487.57 145.893C488.07 145.774 488.579 145.683 489.098 145.621C489.755 145.545 490.289 145.483 490.698 145.436C491.108 145.383 491.405 145.3 491.591 145.186C491.777 145.071 491.87 144.886 491.87 144.629V144.579C491.87 143.955 491.693 143.471 491.341 143.129C490.993 142.786 490.474 142.614 489.784 142.614C489.065 142.614 488.498 142.774 488.084 143.093C487.674 143.407 487.391 143.757 487.234 144.143L485.227 143.686C485.465 143.019 485.812 142.481 486.27 142.071C486.731 141.657 487.262 141.357 487.862 141.172C488.462 140.981 489.093 140.886 489.755 140.886C490.193 140.886 490.658 140.938 491.148 141.043C491.643 141.143 492.105 141.329 492.534 141.6C492.967 141.871 493.322 142.26 493.598 142.764C493.874 143.264 494.012 143.914 494.012 144.714V152H491.927V150.5H491.841C491.703 150.776 491.496 151.048 491.22 151.314C490.943 151.581 490.589 151.802 490.155 151.979C489.722 152.155 489.203 152.243 488.598 152.243ZM489.062 150.529C489.653 150.529 490.158 150.412 490.577 150.179C491 149.945 491.322 149.64 491.541 149.264C491.765 148.883 491.877 148.476 491.877 148.043V146.629C491.8 146.705 491.653 146.776 491.434 146.843C491.22 146.905 490.974 146.96 490.698 147.007C490.422 147.05 490.153 147.091 489.891 147.129C489.629 147.162 489.41 147.191 489.234 147.214C488.82 147.267 488.441 147.355 488.098 147.479C487.76 147.602 487.489 147.781 487.284 148.014C487.084 148.243 486.984 148.548 486.984 148.929C486.984 149.457 487.179 149.857 487.57 150.129C487.96 150.395 488.458 150.529 489.062 150.529ZM499.797 137.372V152H497.662V137.372H499.797ZM521.924 142.129H519.696C519.61 141.652 519.45 141.233 519.217 140.872C518.984 140.51 518.698 140.202 518.36 139.95C518.022 139.698 517.643 139.507 517.224 139.379C516.81 139.25 516.369 139.186 515.903 139.186C515.06 139.186 514.305 139.398 513.638 139.822C512.977 140.245 512.453 140.867 512.067 141.686C511.686 142.505 511.496 143.505 511.496 144.686C511.496 145.876 511.686 146.881 512.067 147.7C512.453 148.519 512.979 149.138 513.646 149.557C514.312 149.976 515.062 150.186 515.896 150.186C516.357 150.186 516.796 150.124 517.21 150C517.629 149.871 518.007 149.683 518.346 149.436C518.684 149.188 518.969 148.886 519.203 148.529C519.441 148.167 519.605 147.752 519.696 147.286L521.924 147.293C521.805 148.012 521.574 148.674 521.231 149.279C520.893 149.879 520.457 150.398 519.924 150.836C519.396 151.269 518.791 151.605 518.11 151.843C517.429 152.081 516.686 152.2 515.881 152.2C514.615 152.2 513.486 151.9 512.496 151.3C511.505 150.695 510.724 149.831 510.153 148.707C509.586 147.583 509.303 146.243 509.303 144.686C509.303 143.124 509.588 141.783 510.16 140.664C510.731 139.541 511.512 138.679 512.503 138.079C513.493 137.474 514.619 137.172 515.881 137.172C516.657 137.172 517.381 137.283 518.053 137.507C518.729 137.726 519.336 138.05 519.874 138.479C520.412 138.902 520.857 139.422 521.21 140.036C521.562 140.645 521.8 141.343 521.924 142.129ZM529.82 152.221C528.791 152.221 527.893 151.986 527.127 151.514C526.36 151.043 525.765 150.383 525.341 149.536C524.917 148.688 524.705 147.698 524.705 146.564C524.705 145.426 524.917 144.431 525.341 143.579C525.765 142.726 526.36 142.064 527.127 141.593C527.893 141.122 528.791 140.886 529.82 140.886C530.848 140.886 531.746 141.122 532.512 141.593C533.279 142.064 533.874 142.726 534.298 143.579C534.722 144.431 534.934 145.426 534.934 146.564C534.934 147.698 534.722 148.688 534.298 149.536C533.874 150.383 533.279 151.043 532.512 151.514C531.746 151.986 530.848 152.221 529.82 152.221ZM529.827 150.429C530.493 150.429 531.046 150.252 531.484 149.9C531.922 149.548 532.246 149.079 532.455 148.493C532.67 147.907 532.777 147.262 532.777 146.557C532.777 145.857 532.67 145.214 532.455 144.629C532.246 144.038 531.922 143.564 531.484 143.207C531.046 142.85 530.493 142.671 529.827 142.671C529.155 142.671 528.598 142.85 528.155 143.207C527.717 143.564 527.391 144.038 527.177 144.629C526.967 145.214 526.863 145.857 526.863 146.557C526.863 147.262 526.967 147.907 527.177 148.493C527.391 149.079 527.717 149.548 528.155 149.9C528.598 150.252 529.155 150.429 529.827 150.429ZM540.258 137.372V152H538.122V137.372H540.258ZM546.072 137.372V152H543.936V137.372H546.072ZM554.478 152.221C553.397 152.221 552.466 151.99 551.685 151.529C550.909 151.062 550.309 150.407 549.885 149.564C549.466 148.717 549.256 147.724 549.256 146.586C549.256 145.462 549.466 144.471 549.885 143.614C550.309 142.757 550.899 142.088 551.656 141.607C552.418 141.126 553.309 140.886 554.328 140.886C554.947 140.886 555.547 140.988 556.128 141.193C556.709 141.398 557.23 141.719 557.692 142.157C558.154 142.595 558.518 143.164 558.785 143.864C559.052 144.56 559.185 145.405 559.185 146.4V147.157H550.464V145.557H557.092C557.092 144.995 556.978 144.498 556.749 144.064C556.521 143.626 556.199 143.281 555.785 143.029C555.375 142.776 554.895 142.65 554.342 142.65C553.742 142.65 553.218 142.798 552.771 143.093C552.328 143.383 551.985 143.764 551.742 144.236C551.504 144.702 551.385 145.21 551.385 145.757V147.007C551.385 147.741 551.514 148.364 551.771 148.879C552.033 149.393 552.397 149.786 552.864 150.057C553.33 150.324 553.875 150.457 554.499 150.457C554.904 150.457 555.273 150.4 555.606 150.286C555.94 150.167 556.228 149.99 556.471 149.757C556.714 149.524 556.899 149.236 557.028 148.893L559.049 149.257C558.887 149.852 558.597 150.374 558.178 150.821C557.764 151.264 557.242 151.61 556.614 151.857C555.99 152.1 555.278 152.221 554.478 152.221ZM566.959 156.343C566.088 156.343 565.338 156.229 564.709 156C564.085 155.771 563.576 155.469 563.181 155.093C562.785 154.717 562.49 154.305 562.295 153.857L564.131 153.1C564.259 153.31 564.431 153.531 564.645 153.764C564.864 154.002 565.159 154.205 565.531 154.371C565.907 154.538 566.39 154.621 566.981 154.621C567.79 154.621 568.459 154.424 568.988 154.029C569.516 153.638 569.781 153.014 569.781 152.157V150H569.645C569.516 150.233 569.331 150.493 569.088 150.779C568.85 151.064 568.521 151.312 568.102 151.521C567.683 151.731 567.138 151.836 566.466 151.836C565.6 151.836 564.819 151.633 564.123 151.229C563.433 150.819 562.885 150.217 562.481 149.421C562.081 148.621 561.881 147.638 561.881 146.471C561.881 145.305 562.078 144.305 562.473 143.471C562.873 142.638 563.421 142 564.116 141.557C564.811 141.11 565.6 140.886 566.481 140.886C567.161 140.886 567.711 141 568.131 141.229C568.55 141.452 568.876 141.714 569.109 142.014C569.347 142.314 569.531 142.579 569.659 142.807H569.816V141.029H571.909V152.243C571.909 153.186 571.69 153.96 571.252 154.564C570.814 155.169 570.221 155.617 569.473 155.907C568.731 156.198 567.892 156.343 566.959 156.343ZM566.938 150.064C567.552 150.064 568.071 149.921 568.495 149.636C568.923 149.345 569.247 148.931 569.466 148.393C569.69 147.85 569.802 147.2 569.802 146.443C569.802 145.705 569.692 145.055 569.473 144.493C569.254 143.931 568.933 143.493 568.509 143.179C568.085 142.86 567.561 142.7 566.938 142.7C566.295 142.7 565.759 142.867 565.331 143.2C564.902 143.529 564.578 143.976 564.359 144.543C564.145 145.11 564.038 145.743 564.038 146.443C564.038 147.162 564.147 147.793 564.366 148.336C564.585 148.879 564.909 149.302 565.338 149.607C565.771 149.912 566.304 150.064 566.938 150.064ZM580.306 152.221C579.226 152.221 578.295 151.99 577.514 151.529C576.737 151.062 576.137 150.407 575.714 149.564C575.295 148.717 575.085 147.724 575.085 146.586C575.085 145.462 575.295 144.471 575.714 143.614C576.137 142.757 576.728 142.088 577.485 141.607C578.247 141.126 579.137 140.886 580.156 140.886C580.775 140.886 581.375 140.988 581.956 141.193C582.537 141.398 583.059 141.719 583.521 142.157C583.983 142.595 584.347 143.164 584.614 143.864C584.88 144.56 585.014 145.405 585.014 146.4V147.157H576.292V145.557H582.921C582.921 144.995 582.806 144.498 582.578 144.064C582.349 143.626 582.028 143.281 581.614 143.029C581.204 142.776 580.723 142.65 580.171 142.65C579.571 142.65 579.047 142.798 578.599 143.093C578.156 143.383 577.814 143.764 577.571 144.236C577.333 144.702 577.214 145.21 577.214 145.757V147.007C577.214 147.741 577.342 148.364 577.599 148.879C577.861 149.393 578.226 149.786 578.692 150.057C579.159 150.324 579.704 150.457 580.328 150.457C580.733 150.457 581.102 150.4 581.435 150.286C581.768 150.167 582.056 149.99 582.299 149.757C582.542 149.524 582.728 149.236 582.856 148.893L584.878 149.257C584.716 149.852 584.425 150.374 584.006 150.821C583.592 151.264 583.071 151.61 582.442 151.857C581.818 152.1 581.106 152.221 580.306 152.221ZM594.487 152V137.372H599.701C600.839 137.372 601.782 137.579 602.53 137.993C603.277 138.407 603.837 138.974 604.208 139.693C604.58 140.407 604.765 141.212 604.765 142.107C604.765 143.007 604.577 143.817 604.201 144.536C603.83 145.25 603.268 145.817 602.515 146.236C601.768 146.65 600.827 146.857 599.694 146.857H596.108V144.986H599.494C600.213 144.986 600.796 144.862 601.244 144.614C601.692 144.362 602.02 144.019 602.23 143.586C602.439 143.152 602.544 142.66 602.544 142.107C602.544 141.555 602.439 141.064 602.23 140.636C602.02 140.207 601.689 139.872 601.237 139.629C600.789 139.386 600.199 139.264 599.465 139.264H596.694V152H594.487ZM607.986 152V141.029H610.05V142.771H610.165C610.365 142.181 610.717 141.717 611.222 141.379C611.731 141.036 612.307 140.864 612.95 140.864C613.084 140.864 613.241 140.869 613.422 140.879C613.607 140.888 613.753 140.9 613.857 140.914V142.957C613.772 142.933 613.619 142.907 613.4 142.879C613.181 142.845 612.962 142.829 612.743 142.829C612.238 142.829 611.788 142.936 611.393 143.15C611.003 143.36 610.693 143.652 610.465 144.029C610.236 144.4 610.122 144.824 610.122 145.3V152H607.986ZM620.739 152.221C619.71 152.221 618.813 151.986 618.046 151.514C617.279 151.043 616.684 150.383 616.26 149.536C615.836 148.688 615.624 147.698 615.624 146.564C615.624 145.426 615.836 144.431 616.26 143.579C616.684 142.726 617.279 142.064 618.046 141.593C618.813 141.122 619.71 140.886 620.739 140.886C621.767 140.886 622.665 141.122 623.432 141.593C624.198 142.064 624.793 142.726 625.217 143.579C625.641 144.431 625.853 145.426 625.853 146.564C625.853 147.698 625.641 148.688 625.217 149.536C624.793 150.383 624.198 151.043 623.432 151.514C622.665 151.986 621.767 152.221 620.739 152.221ZM620.746 150.429C621.413 150.429 621.965 150.252 622.403 149.9C622.841 149.548 623.165 149.079 623.374 148.493C623.589 147.907 623.696 147.262 623.696 146.557C623.696 145.857 623.589 145.214 623.374 144.629C623.165 144.038 622.841 143.564 622.403 143.207C621.965 142.85 621.413 142.671 620.746 142.671C620.074 142.671 619.517 142.85 619.074 143.207C618.636 143.564 618.31 144.038 618.096 144.629C617.886 145.214 617.782 145.857 617.782 146.557C617.782 147.262 617.886 147.907 618.096 148.493C618.31 149.079 618.636 149.548 619.074 149.9C619.517 150.252 620.074 150.429 620.746 150.429ZM633.641 156.343C632.77 156.343 632.02 156.229 631.391 156C630.768 155.771 630.258 155.469 629.863 155.093C629.468 154.717 629.172 154.305 628.977 153.857L630.813 153.1C630.941 153.31 631.113 153.531 631.327 153.764C631.546 154.002 631.841 154.205 632.213 154.371C632.589 154.538 633.072 154.621 633.663 154.621C634.472 154.621 635.141 154.424 635.67 154.029C636.199 153.638 636.463 153.014 636.463 152.157V150H636.327C636.199 150.233 636.013 150.493 635.77 150.779C635.532 151.064 635.203 151.312 634.784 151.521C634.365 151.731 633.82 151.836 633.149 151.836C632.282 151.836 631.501 151.633 630.806 151.229C630.115 150.819 629.568 150.217 629.163 149.421C628.763 148.621 628.563 147.638 628.563 146.471C628.563 145.305 628.76 144.305 629.156 143.471C629.556 142.638 630.103 142 630.799 141.557C631.494 141.11 632.282 140.886 633.163 140.886C633.844 140.886 634.394 141 634.813 141.229C635.232 141.452 635.558 141.714 635.791 142.014C636.029 142.314 636.213 142.579 636.341 142.807H636.499V141.029H638.591V152.243C638.591 153.186 638.372 153.96 637.934 154.564C637.496 155.169 636.903 155.617 636.156 155.907C635.413 156.198 634.575 156.343 633.641 156.343ZM633.62 150.064C634.234 150.064 634.753 149.921 635.177 149.636C635.606 149.345 635.929 148.931 636.149 148.393C636.372 147.85 636.484 147.2 636.484 146.443C636.484 145.705 636.375 145.055 636.156 144.493C635.937 143.931 635.615 143.493 635.191 143.179C634.768 142.86 634.244 142.7 633.62 142.7C632.977 142.7 632.441 142.867 632.013 143.2C631.584 143.529 631.26 143.976 631.041 144.543C630.827 145.11 630.72 145.743 630.72 146.443C630.72 147.162 630.83 147.793 631.049 148.336C631.268 148.879 631.591 149.302 632.02 149.607C632.453 149.912 632.987 150.064 633.62 150.064ZM642.26 152V141.029H644.324V142.771H644.439C644.639 142.181 644.991 141.717 645.496 141.379C646.005 141.036 646.582 140.864 647.224 140.864C647.358 140.864 647.515 140.869 647.696 140.879C647.882 140.888 648.027 140.9 648.132 140.914V142.957C648.046 142.933 647.894 142.907 647.674 142.879C647.455 142.845 647.236 142.829 647.017 142.829C646.513 142.829 646.063 142.936 645.667 143.15C645.277 143.36 644.967 143.652 644.739 144.029C644.51 144.4 644.396 144.824 644.396 145.3V152H642.26ZM653.879 152.243C653.184 152.243 652.555 152.114 651.993 151.857C651.431 151.595 650.986 151.217 650.658 150.721C650.334 150.226 650.172 149.619 650.172 148.9C650.172 148.281 650.291 147.771 650.529 147.371C650.767 146.971 651.089 146.655 651.493 146.421C651.898 146.188 652.35 146.012 652.85 145.893C653.35 145.774 653.86 145.683 654.379 145.621C655.036 145.545 655.569 145.483 655.979 145.436C656.389 145.383 656.686 145.3 656.872 145.186C657.058 145.071 657.15 144.886 657.15 144.629V144.579C657.15 143.955 656.974 143.471 656.622 143.129C656.274 142.786 655.755 142.614 655.065 142.614C654.346 142.614 653.779 142.774 653.365 143.093C652.955 143.407 652.672 143.757 652.515 144.143L650.508 143.686C650.746 143.019 651.093 142.481 651.55 142.071C652.012 141.657 652.543 141.357 653.143 141.172C653.743 140.981 654.374 140.886 655.036 140.886C655.474 140.886 655.939 140.938 656.429 141.043C656.924 141.143 657.386 141.329 657.815 141.6C658.248 141.871 658.603 142.26 658.879 142.764C659.155 143.264 659.293 143.914 659.293 144.714V152H657.208V150.5H657.122C656.984 150.776 656.777 151.048 656.5 151.314C656.224 151.581 655.869 151.802 655.436 151.979C655.003 152.155 654.484 152.243 653.879 152.243ZM654.343 150.529C654.934 150.529 655.439 150.412 655.858 150.179C656.281 149.945 656.603 149.64 656.822 149.264C657.046 148.883 657.158 148.476 657.158 148.043V146.629C657.081 146.705 656.934 146.776 656.715 146.843C656.5 146.905 656.255 146.96 655.979 147.007C655.703 147.05 655.434 147.091 655.172 147.129C654.91 147.162 654.691 147.191 654.515 147.214C654.1 147.267 653.722 147.355 653.379 147.479C653.041 147.602 652.769 147.781 652.565 148.014C652.365 148.243 652.265 148.548 652.265 148.929C652.265 149.457 652.46 149.857 652.85 150.129C653.241 150.395 653.739 150.529 654.343 150.529ZM662.942 152V141.029H664.992V142.814H665.128C665.357 142.21 665.73 141.738 666.25 141.4C666.769 141.057 667.39 140.886 668.114 140.886C668.847 140.886 669.461 141.057 669.957 141.4C670.457 141.743 670.826 142.214 671.064 142.814H671.178C671.44 142.229 671.857 141.762 672.428 141.414C672.999 141.062 673.68 140.886 674.471 140.886C675.466 140.886 676.278 141.198 676.907 141.822C677.54 142.445 677.857 143.386 677.857 144.643V152H675.721V144.843C675.721 144.1 675.519 143.562 675.114 143.229C674.709 142.895 674.226 142.729 673.664 142.729C672.969 142.729 672.428 142.943 672.042 143.371C671.657 143.795 671.464 144.341 671.464 145.007V152H669.335V144.707C669.335 144.112 669.15 143.633 668.778 143.271C668.407 142.91 667.923 142.729 667.328 142.729C666.923 142.729 666.55 142.836 666.207 143.05C665.869 143.26 665.595 143.552 665.385 143.929C665.18 144.305 665.078 144.741 665.078 145.236V152H662.942ZM681.524 152V141.029H683.574V142.814H683.709C683.938 142.21 684.312 141.738 684.831 141.4C685.35 141.057 685.971 140.886 686.695 140.886C687.428 140.886 688.043 141.057 688.538 141.4C689.038 141.743 689.407 142.214 689.645 142.814H689.759C690.021 142.229 690.438 141.762 691.009 141.414C691.581 141.062 692.262 140.886 693.052 140.886C694.047 140.886 694.859 141.198 695.488 141.822C696.121 142.445 696.438 143.386 696.438 144.643V152H694.302V144.843C694.302 144.1 694.1 143.562 693.695 143.229C693.29 142.895 692.807 142.729 692.245 142.729C691.55 142.729 691.009 142.943 690.624 143.371C690.238 143.795 690.045 144.341 690.045 145.007V152H687.916V144.707C687.916 144.112 687.731 143.633 687.359 143.271C686.988 142.91 686.505 142.729 685.909 142.729C685.505 142.729 685.131 142.836 684.788 143.05C684.45 143.26 684.176 143.552 683.966 143.929C683.762 144.305 683.659 144.741 683.659 145.236V152H681.524ZM700.105 152V141.029H702.241V152H700.105ZM701.183 139.336C700.812 139.336 700.493 139.212 700.226 138.964C699.964 138.712 699.833 138.412 699.833 138.064C699.833 137.712 699.964 137.412 700.226 137.164C700.493 136.912 700.812 136.786 701.183 136.786C701.555 136.786 701.872 136.912 702.133 137.164C702.4 137.412 702.533 137.712 702.533 138.064C702.533 138.412 702.4 138.712 702.133 138.964C701.872 139.212 701.555 139.336 701.183 139.336ZM708.054 145.486V152H705.918V141.029H707.968V142.814H708.104C708.356 142.233 708.752 141.767 709.29 141.414C709.833 141.062 710.516 140.886 711.34 140.886C712.087 140.886 712.742 141.043 713.304 141.357C713.866 141.667 714.302 142.129 714.611 142.743C714.921 143.357 715.075 144.117 715.075 145.021V152H712.94V145.279C712.94 144.483 712.733 143.862 712.318 143.414C711.904 142.962 711.335 142.736 710.611 142.736C710.116 142.736 709.675 142.843 709.29 143.057C708.909 143.271 708.606 143.586 708.383 144C708.164 144.41 708.054 144.905 708.054 145.486ZM723.344 156.343C722.473 156.343 721.723 156.229 721.094 156C720.47 155.771 719.961 155.469 719.566 155.093C719.17 154.717 718.875 154.305 718.68 153.857L720.516 153.1C720.644 153.31 720.816 153.531 721.03 153.764C721.249 154.002 721.544 154.205 721.916 154.371C722.292 154.538 722.775 154.621 723.366 154.621C724.175 154.621 724.844 154.424 725.373 154.029C725.901 153.638 726.166 153.014 726.166 152.157V150H726.03C725.901 150.233 725.716 150.493 725.473 150.779C725.235 151.064 724.906 151.312 724.487 151.521C724.068 151.731 723.523 151.836 722.851 151.836C721.985 151.836 721.204 151.633 720.509 151.229C719.818 150.819 719.27 150.217 718.866 149.421C718.466 148.621 718.266 147.638 718.266 146.471C718.266 145.305 718.463 144.305 718.859 143.471C719.259 142.638 719.806 142 720.501 141.557C721.197 141.11 721.985 140.886 722.866 140.886C723.547 140.886 724.097 141 724.516 141.229C724.935 141.452 725.261 141.714 725.494 142.014C725.732 142.314 725.916 142.579 726.044 142.807H726.201V141.029H728.294V152.243C728.294 153.186 728.075 153.96 727.637 154.564C727.199 155.169 726.606 155.617 725.858 155.907C725.116 156.198 724.278 156.343 723.344 156.343ZM723.323 150.064C723.937 150.064 724.456 149.921 724.88 149.636C725.308 149.345 725.632 148.931 725.851 148.393C726.075 147.85 726.187 147.2 726.187 146.443C726.187 145.705 726.078 145.055 725.858 144.493C725.639 143.931 725.318 143.493 724.894 143.179C724.47 142.86 723.947 142.7 723.323 142.7C722.68 142.7 722.144 142.867 721.716 143.2C721.287 143.529 720.963 143.976 720.744 144.543C720.53 145.11 720.423 145.743 720.423 146.443C720.423 147.162 720.532 147.793 720.751 148.336C720.97 148.879 721.294 149.302 721.723 149.607C722.156 149.912 722.689 150.064 723.323 150.064ZM750.412 142.129H748.184C748.098 141.652 747.938 141.233 747.705 140.872C747.472 140.51 747.186 140.202 746.848 139.95C746.51 139.698 746.131 139.507 745.712 139.379C745.298 139.25 744.857 139.186 744.391 139.186C743.548 139.186 742.793 139.398 742.126 139.822C741.465 140.245 740.941 140.867 740.555 141.686C740.174 142.505 739.984 143.505 739.984 144.686C739.984 145.876 740.174 146.881 740.555 147.7C740.941 148.519 741.467 149.138 742.134 149.557C742.8 149.976 743.55 150.186 744.384 150.186C744.845 150.186 745.284 150.124 745.698 150C746.117 149.871 746.495 149.683 746.834 149.436C747.172 149.188 747.457 148.886 747.691 148.529C747.929 148.167 748.093 147.752 748.184 147.286L750.412 147.293C750.293 148.012 750.062 148.674 749.719 149.279C749.381 149.879 748.945 150.398 748.412 150.836C747.884 151.269 747.279 151.605 746.598 151.843C745.917 152.081 745.174 152.2 744.369 152.2C743.103 152.2 741.974 151.9 740.984 151.3C739.993 150.695 739.212 149.831 738.641 148.707C738.074 147.583 737.791 146.243 737.791 144.686C737.791 143.124 738.076 141.783 738.648 140.664C739.219 139.541 740 138.679 740.991 138.079C741.981 137.474 743.107 137.172 744.369 137.172C745.145 137.172 745.869 137.283 746.541 137.507C747.217 137.726 747.824 138.05 748.362 138.479C748.9 138.902 749.345 139.422 749.698 140.036C750.05 140.645 750.288 141.343 750.412 142.129ZM755.822 137.372V152H753.686V137.372H755.822ZM766.45 147.45V141.029H768.593V152H766.493V150.1H766.378C766.126 150.686 765.721 151.174 765.164 151.564C764.612 151.95 763.924 152.143 763.1 152.143C762.395 152.143 761.771 151.988 761.228 151.679C760.69 151.364 760.266 150.9 759.957 150.286C759.652 149.671 759.5 148.912 759.5 148.007V141.029H761.635V147.75C761.635 148.498 761.843 149.093 762.257 149.536C762.671 149.979 763.209 150.2 763.871 150.2C764.271 150.2 764.669 150.1 765.064 149.9C765.464 149.7 765.795 149.398 766.057 148.993C766.324 148.588 766.454 148.074 766.45 147.45ZM772.438 152V137.372H774.574V142.807H774.702C774.826 142.579 775.005 142.314 775.238 142.014C775.471 141.714 775.795 141.452 776.21 141.229C776.624 141 777.171 140.886 777.852 140.886C778.738 140.886 779.529 141.11 780.224 141.557C780.919 142.005 781.464 142.65 781.86 143.493C782.26 144.336 782.46 145.35 782.46 146.536C782.46 147.721 782.262 148.738 781.867 149.586C781.471 150.429 780.929 151.079 780.238 151.536C779.548 151.988 778.76 152.214 777.874 152.214C777.207 152.214 776.662 152.102 776.238 151.879C775.819 151.655 775.491 151.393 775.252 151.093C775.014 150.793 774.831 150.526 774.702 150.293H774.524V152H772.438ZM774.531 146.514C774.531 147.286 774.643 147.962 774.867 148.543C775.091 149.124 775.414 149.579 775.838 149.907C776.262 150.231 776.781 150.393 777.395 150.393C778.033 150.393 778.567 150.224 778.995 149.886C779.424 149.543 779.748 149.079 779.967 148.493C780.19 147.907 780.302 147.248 780.302 146.514C780.302 145.791 780.193 145.141 779.974 144.564C779.76 143.988 779.436 143.533 779.002 143.2C778.574 142.867 778.038 142.7 777.395 142.7C776.776 142.7 776.252 142.86 775.824 143.179C775.4 143.498 775.079 143.943 774.86 144.514C774.641 145.086 774.531 145.752 774.531 146.514Z" fill="#1F2937"/>
<circle cx="6.47426" cy="6.47426" r="6.47426" transform="matrix(-1 0 0 1 574.95 220.473)" fill="#0B8C6C"/>
<circle cx="8.05334" cy="8.05334" r="8.05334" transform="matrix(-1 0 0 1 601.796 218.578)" fill="#0B8C6C"/>
<circle cx="9.94825" cy="9.94825" r="9.94825" transform="matrix(-1 0 0 1 632.745 216.684)" fill="#0B8C6C"/>
<circle cx="13.1064" cy="13.1064" r="13.1064" transform="matrix(-1 0 0 1 670.011 213.527)" fill="#0B8C6C"/>
<circle cx="15.633" cy="15.633" r="15.633" transform="matrix(-1 0 0 1 712.331 211)" stroke="#0B8C6C" stroke-width="2"/>
<circle cx="501.856" cy="226.947" r="6.47426" fill="#0B8C6C"/>
<circle cx="476.589" cy="226.631" r="8.05334" fill="#0B8C6C"/>
<circle cx="447.535" cy="226.632" r="9.94825" fill="#0B8C6C"/>
<circle cx="413.427" cy="226.634" r="13.1064" fill="#0B8C6C"/>
<circle cx="373.634" cy="226.633" r="15.633" stroke="#0B8C6C" stroke-width="2"/>
</svg>
