<svg width="1070" height="244" viewBox="0 0 1070 244" fill="none" xmlns="http://www.w3.org/2000/svg">
<path d="M215.269 161.984H253.257L207.24 86.619L253.257 11.573H215.073L169.057 86.619L215.269 161.984Z" fill="#20D595"/>
<path d="M167.065 161.984H205.053L159.036 86.619L205.053 11.573H166.869L120.853 86.619L167.065 161.984Z" fill="#20D595"/>
<path d="M109.09 173.789H152.982L99.8142 86.7105L152.982 0.000839233H108.864L55.6958 86.7105L109.09 173.789Z" fill="#20D595"/>
<path d="M53.394 173.789H97.2861L44.1179 86.7105L97.2861 0.000839233H53.1678L-0.000457764 86.7105L53.394 173.789Z" fill="#20D595"/>
<path d="M854.246 161.984H816.258L862.274 86.619L816.258 11.573H854.442L900.458 86.619L854.246 161.984Z" fill="#20D595"/>
<path d="M902.451 161.984H864.463L910.479 86.619L864.463 11.573H902.647L948.663 86.619L902.451 161.984Z" fill="#20D595"/>
<path d="M960.423 173.789H916.531L969.7 86.7105L916.531 0.000839233H960.65L1013.82 86.7105L960.423 173.789Z" fill="#20D595"/>
<path d="M1016.12 173.789H972.229L1025.4 86.7105L972.229 0.000839233H1016.35L1069.52 86.7105L1016.12 173.789Z" fill="#20D595"/>
<path d="M273 25L281.904 46.3696H334.31C334.31 46.3696 363.823 45.6119 363.823 67.7392C363.823 89.8666 334.31 88.8473 334.31 88.8473H308.807V54.1367H280.123V110.478L335.329 110.481C360.261 110.481 390.535 98.0154 390.535 66.2099C390.535 28.5651 349.576 24.9965 334.31 25C310.367 25.0054 273 25 273 25Z" fill="#15B97F"/>
<path d="M549.029 45.9187L533.002 25.0968H618.482C618.482 25.0968 671.907 21.5664 671.907 57.153C671.907 92.7396 618.482 88.2559 618.482 88.2559H584.569V110.575L557.72 89.2056V67.836C578.055 67.836 625.605 67.836 625.605 67.836C625.605 67.836 645.195 69.6168 645.195 57.1512C645.195 44.6856 625.605 45.9187 625.605 45.9187H549.029Z" fill="url(#paint0_linear_314_56)"/>
<path d="M401.213 25H429.706V110.478H401.213V25Z" fill="#15B97F"/>
<path d="M522.308 25L539.141 46.3696L492.034 46.6312C492.034 46.6312 470.664 47.6272 470.664 67.7392C470.664 87.8512 492.034 89.1088 492.034 89.1088H545.459L572.172 110.478H492.034C476.007 110.478 443.952 100.438 443.952 67.7392C443.952 27.4951 488.015 25 488.015 25H522.308Z" fill="url(#paint1_linear_314_56)"/>
<path d="M796.557 25L780.529 46.6312H734.227C734.227 46.6312 712.857 47.6272 712.857 67.7392C712.857 87.8512 734.227 89.1088 734.227 89.1088H796.557L780.529 110.478H734.227C718.2 110.478 686.145 100.438 686.145 67.7392C686.145 27.4951 730.208 25 730.208 25H796.557Z" fill="#15B97F"/>
<path d="M289.343 152H284.607V137.372H289.493C290.926 137.372 292.157 137.664 293.186 138.25C294.214 138.831 295.002 139.667 295.55 140.757C296.102 141.843 296.378 143.145 296.378 144.664C296.378 146.188 296.1 147.498 295.543 148.593C294.99 149.688 294.19 150.531 293.143 151.121C292.095 151.707 290.829 152 289.343 152ZM286.814 150.071H289.221C290.336 150.071 291.262 149.862 292 149.443C292.738 149.019 293.29 148.407 293.657 147.607C294.024 146.802 294.207 145.821 294.207 144.664C294.207 143.517 294.024 142.543 293.657 141.743C293.295 140.943 292.755 140.336 292.036 139.922C291.317 139.507 290.424 139.3 289.357 139.3H286.814V150.071ZM302.949 152.243C302.254 152.243 301.625 152.114 301.063 151.857C300.501 151.595 300.056 151.217 299.728 150.721C299.404 150.226 299.242 149.619 299.242 148.9C299.242 148.281 299.361 147.771 299.599 147.371C299.837 146.971 300.159 146.655 300.563 146.421C300.968 146.188 301.421 146.012 301.921 145.893C302.421 145.774 302.93 145.683 303.449 145.621C304.106 145.545 304.64 145.483 305.049 145.436C305.459 145.383 305.756 145.3 305.942 145.186C306.128 145.071 306.22 144.886 306.22 144.629V144.579C306.22 143.955 306.044 143.471 305.692 143.129C305.344 142.786 304.825 142.614 304.135 142.614C303.416 142.614 302.849 142.774 302.435 143.093C302.025 143.407 301.742 143.757 301.585 144.143L299.578 143.686C299.816 143.019 300.163 142.481 300.621 142.071C301.082 141.657 301.613 141.357 302.213 141.172C302.813 140.981 303.444 140.886 304.106 140.886C304.544 140.886 305.009 140.938 305.499 141.043C305.994 141.143 306.456 141.329 306.885 141.6C307.318 141.871 307.673 142.26 307.949 142.764C308.225 143.264 308.363 143.914 308.363 144.714V152H306.278V150.5H306.192C306.054 150.776 305.847 151.048 305.57 151.314C305.294 151.581 304.94 151.802 304.506 151.979C304.073 152.155 303.554 152.243 302.949 152.243ZM303.413 150.529C304.004 150.529 304.509 150.412 304.928 150.179C305.351 149.945 305.673 149.64 305.892 149.264C306.116 148.883 306.228 148.476 306.228 148.043V146.629C306.151 146.705 306.004 146.776 305.785 146.843C305.57 146.905 305.325 146.96 305.049 147.007C304.773 147.05 304.504 147.091 304.242 147.129C303.98 147.162 303.761 147.191 303.585 147.214C303.17 147.267 302.792 147.355 302.449 147.479C302.111 147.602 301.84 147.781 301.635 148.014C301.435 148.243 301.335 148.548 301.335 148.929C301.335 149.457 301.53 149.857 301.921 150.129C302.311 150.395 302.809 150.529 303.413 150.529ZM317.234 141.029V142.743H311.034V141.029H317.234ZM312.734 152V139.757C312.734 139.072 312.884 138.502 313.184 138.05C313.484 137.593 313.882 137.252 314.377 137.029C314.872 136.8 315.41 136.686 315.991 136.686C316.42 136.686 316.786 136.722 317.091 136.793C317.396 136.86 317.622 136.922 317.77 136.979L317.27 138.707C317.17 138.679 317.041 138.645 316.884 138.607C316.727 138.564 316.536 138.543 316.312 138.543C315.793 138.543 315.422 138.672 315.198 138.929C314.979 139.186 314.87 139.557 314.87 140.043V152H312.734ZM325.463 141.029V142.743H319.263V141.029H325.463ZM320.963 152V139.757C320.963 139.072 321.113 138.502 321.413 138.05C321.713 137.593 322.111 137.252 322.606 137.029C323.102 136.8 323.64 136.686 324.221 136.686C324.649 136.686 325.016 136.722 325.321 136.793C325.625 136.86 325.852 136.922 325.999 136.979L325.499 138.707C325.399 138.679 325.271 138.645 325.113 138.607C324.956 138.564 324.766 138.543 324.542 138.543C324.023 138.543 323.652 138.672 323.428 138.929C323.209 139.186 323.099 139.557 323.099 140.043V152H320.963ZM332.661 152.221C331.632 152.221 330.735 151.986 329.968 151.514C329.201 151.043 328.606 150.383 328.182 149.536C327.758 148.688 327.547 147.698 327.547 146.564C327.547 145.426 327.758 144.431 328.182 143.579C328.606 142.726 329.201 142.064 329.968 141.593C330.735 141.122 331.632 140.886 332.661 140.886C333.689 140.886 334.587 141.122 335.354 141.593C336.12 142.064 336.716 142.726 337.139 143.579C337.563 144.431 337.775 145.426 337.775 146.564C337.775 147.698 337.563 148.688 337.139 149.536C336.716 150.383 336.12 151.043 335.354 151.514C334.587 151.986 333.689 152.221 332.661 152.221ZM332.668 150.429C333.335 150.429 333.887 150.252 334.325 149.9C334.763 149.548 335.087 149.079 335.296 148.493C335.511 147.907 335.618 147.262 335.618 146.557C335.618 145.857 335.511 145.214 335.296 144.629C335.087 144.038 334.763 143.564 334.325 143.207C333.887 142.85 333.335 142.671 332.668 142.671C331.997 142.671 331.439 142.85 330.997 143.207C330.558 143.564 330.232 144.038 330.018 144.629C329.808 145.214 329.704 145.857 329.704 146.557C329.704 147.262 329.808 147.907 330.018 148.493C330.232 149.079 330.558 149.548 330.997 149.9C331.439 150.252 331.997 150.429 332.668 150.429ZM345.071 152.214C344.185 152.214 343.394 151.988 342.699 151.536C342.009 151.079 341.466 150.429 341.071 149.586C340.68 148.738 340.485 147.721 340.485 146.536C340.485 145.35 340.683 144.336 341.078 143.493C341.478 142.65 342.025 142.005 342.721 141.557C343.416 141.11 344.204 140.886 345.085 140.886C345.766 140.886 346.313 141 346.728 141.229C347.147 141.452 347.471 141.714 347.699 142.014C347.933 142.314 348.113 142.579 348.242 142.807H348.371V137.372H350.506V152H348.421V150.293H348.242C348.113 150.526 347.928 150.793 347.685 151.093C347.447 151.393 347.118 151.655 346.699 151.879C346.28 152.102 345.737 152.214 345.071 152.214ZM345.542 150.393C346.156 150.393 346.675 150.231 347.099 149.907C347.528 149.579 347.852 149.124 348.071 148.543C348.294 147.962 348.406 147.286 348.406 146.514C348.406 145.752 348.297 145.086 348.078 144.514C347.859 143.943 347.537 143.498 347.113 143.179C346.69 142.86 346.166 142.7 345.542 142.7C344.899 142.7 344.363 142.867 343.935 143.2C343.506 143.533 343.183 143.988 342.964 144.564C342.749 145.141 342.642 145.791 342.642 146.514C342.642 147.248 342.752 147.907 342.971 148.493C343.19 149.079 343.513 149.543 343.942 149.886C344.375 150.224 344.909 150.393 345.542 150.393ZM354.359 152V141.029H356.495V152H354.359ZM355.438 139.336C355.066 139.336 354.747 139.212 354.48 138.964C354.219 138.712 354.088 138.412 354.088 138.064C354.088 137.712 354.219 137.412 354.48 137.164C354.747 136.912 355.066 136.786 355.438 136.786C355.809 136.786 356.126 136.912 356.388 137.164C356.654 137.412 356.788 137.712 356.788 138.064C356.788 138.412 356.654 138.712 356.388 138.964C356.126 139.212 355.809 139.336 355.438 139.336ZM362.308 137.372V152H360.173V137.372H362.308ZM374.492 137.372V152H372.285V137.372H374.492ZM380.475 145.486V152H378.34V141.029H380.39V142.814H380.525C380.778 142.233 381.173 141.767 381.711 141.414C382.254 141.062 382.937 140.886 383.761 140.886C384.509 140.886 385.163 141.043 385.725 141.357C386.287 141.667 386.723 142.129 387.032 142.743C387.342 143.357 387.497 144.117 387.497 145.021V152H385.361V145.279C385.361 144.483 385.154 143.862 384.74 143.414C384.325 142.962 383.756 142.736 383.033 142.736C382.537 142.736 382.097 142.843 381.711 143.057C381.33 143.271 381.028 143.586 380.804 144C380.585 144.41 380.475 144.905 380.475 145.486ZM396.287 141.029V142.743H390.294V141.029H396.287ZM391.901 138.4H394.037V148.779C394.037 149.193 394.099 149.505 394.223 149.714C394.347 149.919 394.506 150.06 394.701 150.136C394.901 150.207 395.118 150.243 395.351 150.243C395.523 150.243 395.673 150.231 395.801 150.207C395.93 150.183 396.03 150.164 396.101 150.15L396.487 151.914C396.363 151.962 396.187 152.01 395.958 152.057C395.73 152.11 395.444 152.138 395.101 152.143C394.539 152.152 394.016 152.052 393.53 151.843C393.044 151.633 392.651 151.31 392.351 150.871C392.051 150.433 391.901 149.883 391.901 149.221V138.4ZM404.065 152.221C402.984 152.221 402.053 151.99 401.272 151.529C400.496 151.062 399.896 150.407 399.472 149.564C399.053 148.717 398.843 147.724 398.843 146.586C398.843 145.462 399.053 144.471 399.472 143.614C399.896 142.757 400.486 142.088 401.243 141.607C402.005 141.126 402.896 140.886 403.915 140.886C404.534 140.886 405.134 140.988 405.715 141.193C406.296 141.398 406.817 141.719 407.279 142.157C407.741 142.595 408.105 143.164 408.372 143.864C408.638 144.56 408.772 145.405 408.772 146.4V147.157H400.05V145.557H406.679C406.679 144.995 406.565 144.498 406.336 144.064C406.108 143.626 405.786 143.281 405.372 143.029C404.962 142.776 404.481 142.65 403.929 142.65C403.329 142.65 402.805 142.798 402.358 143.093C401.915 143.383 401.572 143.764 401.329 144.236C401.091 144.702 400.972 145.21 400.972 145.757V147.007C400.972 147.741 401.1 148.364 401.358 148.879C401.619 149.393 401.984 149.786 402.45 150.057C402.917 150.324 403.462 150.457 404.086 150.457C404.491 150.457 404.86 150.4 405.193 150.286C405.527 150.167 405.815 149.99 406.058 149.757C406.3 149.524 406.486 149.236 406.615 148.893L408.636 149.257C408.474 149.852 408.184 150.374 407.765 150.821C407.35 151.264 406.829 151.61 406.2 151.857C405.577 152.1 404.865 152.221 404.065 152.221ZM411.946 152V141.029H414.01V142.771H414.125C414.325 142.181 414.677 141.717 415.182 141.379C415.691 141.036 416.267 140.864 416.91 140.864C417.044 140.864 417.201 140.869 417.382 140.879C417.567 140.888 417.713 140.9 417.817 140.914V142.957C417.732 142.933 417.579 142.907 417.36 142.879C417.141 142.845 416.922 142.829 416.703 142.829C416.198 142.829 415.748 142.936 415.353 143.15C414.963 143.36 414.653 143.652 414.425 144.029C414.196 144.4 414.082 144.824 414.082 145.3V152H411.946ZM422.606 145.486V152H420.47V141.029H422.52V142.814H422.656C422.908 142.233 423.303 141.767 423.842 141.414C424.384 141.062 425.068 140.886 425.892 140.886C426.639 140.886 427.294 141.043 427.856 141.357C428.418 141.667 428.853 142.129 429.163 142.743C429.472 143.357 429.627 144.117 429.627 145.021V152H427.492V145.279C427.492 144.483 427.284 143.862 426.87 143.414C426.456 142.962 425.887 142.736 425.163 142.736C424.668 142.736 424.227 142.843 423.842 143.057C423.461 143.271 423.158 143.586 422.934 144C422.715 144.41 422.606 144.905 422.606 145.486ZM436.489 152.243C435.794 152.243 435.165 152.114 434.603 151.857C434.041 151.595 433.596 151.217 433.268 150.721C432.944 150.226 432.782 149.619 432.782 148.9C432.782 148.281 432.901 147.771 433.139 147.371C433.377 146.971 433.698 146.655 434.103 146.421C434.508 146.188 434.96 146.012 435.46 145.893C435.96 145.774 436.47 145.683 436.989 145.621C437.646 145.545 438.179 145.483 438.589 145.436C438.998 145.383 439.296 145.3 439.482 145.186C439.667 145.071 439.76 144.886 439.76 144.629V144.579C439.76 143.955 439.584 143.471 439.232 143.129C438.884 142.786 438.365 142.614 437.675 142.614C436.956 142.614 436.389 142.774 435.975 143.093C435.565 143.407 435.282 143.757 435.125 144.143L433.118 143.686C433.356 143.019 433.703 142.481 434.16 142.071C434.622 141.657 435.153 141.357 435.753 141.172C436.353 140.981 436.984 140.886 437.646 140.886C438.084 140.886 438.548 140.938 439.039 141.043C439.534 141.143 439.996 141.329 440.425 141.6C440.858 141.871 441.213 142.26 441.489 142.764C441.765 143.264 441.903 143.914 441.903 144.714V152H439.817V150.5H439.732C439.594 150.776 439.387 151.048 439.11 151.314C438.834 151.581 438.479 151.802 438.046 151.979C437.613 152.155 437.094 152.243 436.489 152.243ZM436.953 150.529C437.544 150.529 438.048 150.412 438.467 150.179C438.891 149.945 439.213 149.64 439.432 149.264C439.656 148.883 439.767 148.476 439.767 148.043V146.629C439.691 146.705 439.544 146.776 439.325 146.843C439.11 146.905 438.865 146.96 438.589 147.007C438.313 147.05 438.044 147.091 437.782 147.129C437.52 147.162 437.301 147.191 437.125 147.214C436.71 147.267 436.332 147.355 435.989 147.479C435.651 147.602 435.379 147.781 435.175 148.014C434.975 148.243 434.875 148.548 434.875 148.929C434.875 149.457 435.07 149.857 435.46 150.129C435.851 150.395 436.348 150.529 436.953 150.529ZM450.674 141.029V142.743H444.681V141.029H450.674ZM446.288 138.4H448.424V148.779C448.424 149.193 448.486 149.505 448.609 149.714C448.733 149.919 448.893 150.06 449.088 150.136C449.288 150.207 449.505 150.243 449.738 150.243C449.909 150.243 450.059 150.231 450.188 150.207C450.317 150.183 450.417 150.164 450.488 150.15L450.874 151.914C450.75 151.962 450.574 152.01 450.345 152.057C450.117 152.11 449.831 152.138 449.488 152.143C448.926 152.152 448.402 152.052 447.917 151.843C447.431 151.633 447.038 151.31 446.738 150.871C446.438 150.433 446.288 149.883 446.288 149.221V138.4ZM453.841 152V141.029H455.976V152H453.841ZM454.919 139.336C454.548 139.336 454.229 139.212 453.962 138.964C453.7 138.712 453.569 138.412 453.569 138.064C453.569 137.712 453.7 137.412 453.962 137.164C454.229 136.912 454.548 136.786 454.919 136.786C455.291 136.786 455.607 136.912 455.869 137.164C456.136 137.412 456.269 137.712 456.269 138.064C456.269 138.412 456.136 138.712 455.869 138.964C455.607 139.212 455.291 139.336 454.919 139.336ZM464.276 152.221C463.247 152.221 462.349 151.986 461.583 151.514C460.816 151.043 460.221 150.383 459.797 149.536C459.373 148.688 459.161 147.698 459.161 146.564C459.161 145.426 459.373 144.431 459.797 143.579C460.221 142.726 460.816 142.064 461.583 141.593C462.349 141.122 463.247 140.886 464.276 140.886C465.304 140.886 466.202 141.122 466.968 141.593C467.735 142.064 468.33 142.726 468.754 143.579C469.178 144.431 469.39 145.426 469.39 146.564C469.39 147.698 469.178 148.688 468.754 149.536C468.33 150.383 467.735 151.043 466.968 151.514C466.202 151.986 465.304 152.221 464.276 152.221ZM464.283 150.429C464.949 150.429 465.502 150.252 465.94 149.9C466.378 149.548 466.702 149.079 466.911 148.493C467.126 147.907 467.233 147.262 467.233 146.557C467.233 145.857 467.126 145.214 466.911 144.629C466.702 144.038 466.378 143.564 465.94 143.207C465.502 142.85 464.949 142.671 464.283 142.671C463.611 142.671 463.054 142.85 462.611 143.207C462.173 143.564 461.847 144.038 461.633 144.629C461.423 145.214 461.319 145.857 461.319 146.557C461.319 147.262 461.423 147.907 461.633 148.493C461.847 149.079 462.173 149.548 462.611 149.9C463.054 150.252 463.611 150.429 464.283 150.429ZM474.714 145.486V152H472.578V141.029H474.628V142.814H474.764C475.016 142.233 475.412 141.767 475.95 141.414C476.493 141.062 477.176 140.886 478 140.886C478.747 140.886 479.402 141.043 479.964 141.357C480.526 141.667 480.962 142.129 481.271 142.743C481.581 143.357 481.735 144.117 481.735 145.021V152H479.6V145.279C479.6 144.483 479.393 143.862 478.978 143.414C478.564 142.962 477.995 142.736 477.271 142.736C476.776 142.736 476.335 142.843 475.95 143.057C475.569 143.271 475.266 143.586 475.043 144C474.824 144.41 474.714 144.905 474.714 145.486ZM488.597 152.243C487.902 152.243 487.273 152.114 486.711 151.857C486.15 151.595 485.704 151.217 485.376 150.721C485.052 150.226 484.89 149.619 484.89 148.9C484.89 148.281 485.009 147.771 485.247 147.371C485.485 146.971 485.807 146.655 486.211 146.421C486.616 146.188 487.069 146.012 487.569 145.893C488.069 145.774 488.578 145.683 489.097 145.621C489.754 145.545 490.288 145.483 490.697 145.436C491.107 145.383 491.404 145.3 491.59 145.186C491.776 145.071 491.869 144.886 491.869 144.629V144.579C491.869 143.955 491.692 143.471 491.34 143.129C490.992 142.786 490.473 142.614 489.783 142.614C489.064 142.614 488.497 142.774 488.083 143.093C487.673 143.407 487.39 143.757 487.233 144.143L485.226 143.686C485.464 143.019 485.811 142.481 486.269 142.071C486.73 141.657 487.261 141.357 487.861 141.172C488.461 140.981 489.092 140.886 489.754 140.886C490.192 140.886 490.657 140.938 491.147 141.043C491.642 141.143 492.104 141.329 492.533 141.6C492.966 141.871 493.321 142.26 493.597 142.764C493.873 143.264 494.011 143.914 494.011 144.714V152H491.926V150.5H491.84C491.702 150.776 491.495 151.048 491.219 151.314C490.942 151.581 490.588 151.802 490.154 151.979C489.721 152.155 489.202 152.243 488.597 152.243ZM489.061 150.529C489.652 150.529 490.157 150.412 490.576 150.179C490.999 149.945 491.321 149.64 491.54 149.264C491.764 148.883 491.876 148.476 491.876 148.043V146.629C491.799 146.705 491.652 146.776 491.433 146.843C491.219 146.905 490.973 146.96 490.697 147.007C490.421 147.05 490.152 147.091 489.89 147.129C489.628 147.162 489.409 147.191 489.233 147.214C488.819 147.267 488.44 147.355 488.097 147.479C487.759 147.602 487.488 147.781 487.283 148.014C487.083 148.243 486.983 148.548 486.983 148.929C486.983 149.457 487.178 149.857 487.569 150.129C487.959 150.395 488.457 150.529 489.061 150.529ZM499.796 137.372V152H497.661V137.372H499.796ZM521.923 142.129H519.695C519.609 141.652 519.449 141.233 519.216 140.872C518.983 140.51 518.697 140.202 518.359 139.95C518.021 139.698 517.642 139.507 517.223 139.379C516.809 139.25 516.368 139.186 515.902 139.186C515.059 139.186 514.304 139.398 513.637 139.822C512.976 140.245 512.452 140.867 512.066 141.686C511.685 142.505 511.495 143.505 511.495 144.686C511.495 145.876 511.685 146.881 512.066 147.7C512.452 148.519 512.978 149.138 513.645 149.557C514.311 149.976 515.061 150.186 515.895 150.186C516.356 150.186 516.795 150.124 517.209 150C517.628 149.871 518.006 149.683 518.345 149.436C518.683 149.188 518.968 148.886 519.202 148.529C519.44 148.167 519.604 147.752 519.695 147.286L521.923 147.293C521.804 148.012 521.573 148.674 521.23 149.279C520.892 149.879 520.456 150.398 519.923 150.836C519.395 151.269 518.79 151.605 518.109 151.843C517.428 152.081 516.685 152.2 515.88 152.2C514.614 152.2 513.485 151.9 512.495 151.3C511.504 150.695 510.723 149.831 510.152 148.707C509.585 147.583 509.302 146.243 509.302 144.686C509.302 143.124 509.587 141.783 510.159 140.664C510.73 139.541 511.511 138.679 512.502 138.079C513.492 137.474 514.618 137.172 515.88 137.172C516.656 137.172 517.38 137.283 518.052 137.507C518.728 137.726 519.335 138.05 519.873 138.479C520.411 138.902 520.856 139.422 521.209 140.036C521.561 140.645 521.799 141.343 521.923 142.129ZM529.819 152.221C528.79 152.221 527.893 151.986 527.126 151.514C526.359 151.043 525.764 150.383 525.34 149.536C524.916 148.688 524.704 147.698 524.704 146.564C524.704 145.426 524.916 144.431 525.34 143.579C525.764 142.726 526.359 142.064 527.126 141.593C527.893 141.122 528.79 140.886 529.819 140.886C530.847 140.886 531.745 141.122 532.512 141.593C533.278 142.064 533.873 142.726 534.297 143.579C534.721 144.431 534.933 145.426 534.933 146.564C534.933 147.698 534.721 148.688 534.297 149.536C533.873 150.383 533.278 151.043 532.512 151.514C531.745 151.986 530.847 152.221 529.819 152.221ZM529.826 150.429C530.492 150.429 531.045 150.252 531.483 149.9C531.921 149.548 532.245 149.079 532.454 148.493C532.669 147.907 532.776 147.262 532.776 146.557C532.776 145.857 532.669 145.214 532.454 144.629C532.245 144.038 531.921 143.564 531.483 143.207C531.045 142.85 530.492 142.671 529.826 142.671C529.154 142.671 528.597 142.85 528.154 143.207C527.716 143.564 527.39 144.038 527.176 144.629C526.966 145.214 526.862 145.857 526.862 146.557C526.862 147.262 526.966 147.907 527.176 148.493C527.39 149.079 527.716 149.548 528.154 149.9C528.597 150.252 529.154 150.429 529.826 150.429ZM540.257 137.372V152H538.121V137.372H540.257ZM546.071 137.372V152H543.935V137.372H546.071ZM554.477 152.221C553.396 152.221 552.465 151.99 551.684 151.529C550.908 151.062 550.308 150.407 549.884 149.564C549.465 148.717 549.255 147.724 549.255 146.586C549.255 145.462 549.465 144.471 549.884 143.614C550.308 142.757 550.898 142.088 551.655 141.607C552.417 141.126 553.308 140.886 554.327 140.886C554.946 140.886 555.546 140.988 556.127 141.193C556.708 141.398 557.229 141.719 557.691 142.157C558.153 142.595 558.517 143.164 558.784 143.864C559.051 144.56 559.184 145.405 559.184 146.4V147.157H550.463V145.557H557.091C557.091 144.995 556.977 144.498 556.748 144.064C556.52 143.626 556.198 143.281 555.784 143.029C555.374 142.776 554.894 142.65 554.341 142.65C553.741 142.65 553.217 142.798 552.77 143.093C552.327 143.383 551.984 143.764 551.741 144.236C551.503 144.702 551.384 145.21 551.384 145.757V147.007C551.384 147.741 551.513 148.364 551.77 148.879C552.032 149.393 552.396 149.786 552.863 150.057C553.329 150.324 553.874 150.457 554.498 150.457C554.903 150.457 555.272 150.4 555.605 150.286C555.939 150.167 556.227 149.99 556.47 149.757C556.713 149.524 556.898 149.236 557.027 148.893L559.048 149.257C558.886 149.852 558.596 150.374 558.177 150.821C557.763 151.264 557.241 151.61 556.613 151.857C555.989 152.1 555.277 152.221 554.477 152.221ZM566.958 156.343C566.087 156.343 565.337 156.229 564.708 156C564.084 155.771 563.575 155.469 563.18 155.093C562.784 154.717 562.489 154.305 562.294 153.857L564.13 153.1C564.258 153.31 564.43 153.531 564.644 153.764C564.863 154.002 565.158 154.205 565.53 154.371C565.906 154.538 566.389 154.621 566.98 154.621C567.789 154.621 568.458 154.424 568.987 154.029C569.515 153.638 569.78 153.014 569.78 152.157V150H569.644C569.515 150.233 569.33 150.493 569.087 150.779C568.849 151.064 568.52 151.312 568.101 151.521C567.682 151.731 567.137 151.836 566.465 151.836C565.599 151.836 564.818 151.633 564.122 151.229C563.432 150.819 562.884 150.217 562.48 149.421C562.08 148.621 561.88 147.638 561.88 146.471C561.88 145.305 562.077 144.305 562.472 143.471C562.872 142.638 563.42 142 564.115 141.557C564.811 141.11 565.599 140.886 566.48 140.886C567.161 140.886 567.711 141 568.13 141.229C568.549 141.452 568.875 141.714 569.108 142.014C569.346 142.314 569.53 142.579 569.658 142.807H569.815V141.029H571.908V152.243C571.908 153.186 571.689 153.96 571.251 154.564C570.813 155.169 570.22 155.617 569.472 155.907C568.73 156.198 567.891 156.343 566.958 156.343ZM566.937 150.064C567.551 150.064 568.07 149.921 568.494 149.636C568.922 149.345 569.246 148.931 569.465 148.393C569.689 147.85 569.801 147.2 569.801 146.443C569.801 145.705 569.691 145.055 569.472 144.493C569.253 143.931 568.932 143.493 568.508 143.179C568.084 142.86 567.561 142.7 566.937 142.7C566.294 142.7 565.758 142.867 565.33 143.2C564.901 143.529 564.577 143.976 564.358 144.543C564.144 145.11 564.037 145.743 564.037 146.443C564.037 147.162 564.146 147.793 564.365 148.336C564.584 148.879 564.908 149.302 565.337 149.607C565.77 149.912 566.303 150.064 566.937 150.064ZM580.305 152.221C579.225 152.221 578.294 151.99 577.513 151.529C576.736 151.062 576.136 150.407 575.713 149.564C575.294 148.717 575.084 147.724 575.084 146.586C575.084 145.462 575.294 144.471 575.713 143.614C576.136 142.757 576.727 142.088 577.484 141.607C578.246 141.126 579.136 140.886 580.155 140.886C580.775 140.886 581.375 140.988 581.955 141.193C582.536 141.398 583.058 141.719 583.52 142.157C583.982 142.595 584.346 143.164 584.613 143.864C584.879 144.56 585.013 145.405 585.013 146.4V147.157H576.291V145.557H582.92C582.92 144.995 582.805 144.498 582.577 144.064C582.348 143.626 582.027 143.281 581.613 143.029C581.203 142.776 580.722 142.65 580.17 142.65C579.57 142.65 579.046 142.798 578.598 143.093C578.155 143.383 577.813 143.764 577.57 144.236C577.332 144.702 577.213 145.21 577.213 145.757V147.007C577.213 147.741 577.341 148.364 577.598 148.879C577.86 149.393 578.225 149.786 578.691 150.057C579.158 150.324 579.703 150.457 580.327 150.457C580.732 150.457 581.101 150.4 581.434 150.286C581.767 150.167 582.055 149.99 582.298 149.757C582.541 149.524 582.727 149.236 582.855 148.893L584.877 149.257C584.715 149.852 584.424 150.374 584.005 150.821C583.591 151.264 583.07 151.61 582.441 151.857C581.817 152.1 581.105 152.221 580.305 152.221ZM594.486 152V137.372H599.7C600.838 137.372 601.781 137.579 602.529 137.993C603.276 138.407 603.836 138.974 604.207 139.693C604.579 140.407 604.764 141.212 604.764 142.107C604.764 143.007 604.576 143.817 604.2 144.536C603.829 145.25 603.267 145.817 602.514 146.236C601.767 146.65 600.826 146.857 599.693 146.857H596.107V144.986H599.493C600.212 144.986 600.795 144.862 601.243 144.614C601.691 144.362 602.019 144.019 602.229 143.586C602.438 143.152 602.543 142.66 602.543 142.107C602.543 141.555 602.438 141.064 602.229 140.636C602.019 140.207 601.688 139.872 601.236 139.629C600.788 139.386 600.198 139.264 599.464 139.264H596.693V152H594.486ZM607.985 152V141.029H610.049V142.771H610.164C610.364 142.181 610.716 141.717 611.221 141.379C611.73 141.036 612.306 140.864 612.949 140.864C613.083 140.864 613.24 140.869 613.421 140.879C613.606 140.888 613.752 140.9 613.856 140.914V142.957C613.771 142.933 613.618 142.907 613.399 142.879C613.18 142.845 612.961 142.829 612.742 142.829C612.237 142.829 611.787 142.936 611.392 143.15C611.002 143.36 610.692 143.652 610.464 144.029C610.235 144.4 610.121 144.824 610.121 145.3V152H607.985ZM620.738 152.221C619.709 152.221 618.812 151.986 618.045 151.514C617.278 151.043 616.683 150.383 616.259 149.536C615.835 148.688 615.624 147.698 615.624 146.564C615.624 145.426 615.835 144.431 616.259 143.579C616.683 142.726 617.278 142.064 618.045 141.593C618.812 141.122 619.709 140.886 620.738 140.886C621.766 140.886 622.664 141.122 623.431 141.593C624.197 142.064 624.792 142.726 625.216 143.579C625.64 144.431 625.852 145.426 625.852 146.564C625.852 147.698 625.64 148.688 625.216 149.536C624.792 150.383 624.197 151.043 623.431 151.514C622.664 151.986 621.766 152.221 620.738 152.221ZM620.745 150.429C621.412 150.429 621.964 150.252 622.402 149.9C622.84 149.548 623.164 149.079 623.373 148.493C623.588 147.907 623.695 147.262 623.695 146.557C623.695 145.857 623.588 145.214 623.373 144.629C623.164 144.038 622.84 143.564 622.402 143.207C621.964 142.85 621.412 142.671 620.745 142.671C620.073 142.671 619.516 142.85 619.073 143.207C618.635 143.564 618.309 144.038 618.095 144.629C617.885 145.214 617.781 145.857 617.781 146.557C617.781 147.262 617.885 147.907 618.095 148.493C618.309 149.079 618.635 149.548 619.073 149.9C619.516 150.252 620.073 150.429 620.745 150.429ZM633.64 156.343C632.769 156.343 632.019 156.229 631.39 156C630.767 155.771 630.257 155.469 629.862 155.093C629.467 154.717 629.171 154.305 628.976 153.857L630.812 153.1C630.94 153.31 631.112 153.531 631.326 153.764C631.545 154.002 631.84 154.205 632.212 154.371C632.588 154.538 633.071 154.621 633.662 154.621C634.471 154.621 635.14 154.424 635.669 154.029C636.198 153.638 636.462 153.014 636.462 152.157V150H636.326C636.198 150.233 636.012 150.493 635.769 150.779C635.531 151.064 635.202 151.312 634.783 151.521C634.364 151.731 633.819 151.836 633.148 151.836C632.281 151.836 631.5 151.633 630.805 151.229C630.114 150.819 629.567 150.217 629.162 149.421C628.762 148.621 628.562 147.638 628.562 146.471C628.562 145.305 628.76 144.305 629.155 143.471C629.555 142.638 630.102 142 630.798 141.557C631.493 141.11 632.281 140.886 633.162 140.886C633.843 140.886 634.393 141 634.812 141.229C635.231 141.452 635.557 141.714 635.79 142.014C636.029 142.314 636.212 142.579 636.34 142.807H636.498V141.029H638.59V152.243C638.59 153.186 638.371 153.96 637.933 154.564C637.495 155.169 636.902 155.617 636.155 155.907C635.412 156.198 634.574 156.343 633.64 156.343ZM633.619 150.064C634.233 150.064 634.752 149.921 635.176 149.636C635.605 149.345 635.929 148.931 636.148 148.393C636.371 147.85 636.483 147.2 636.483 146.443C636.483 145.705 636.374 145.055 636.155 144.493C635.936 143.931 635.614 143.493 635.19 143.179C634.767 142.86 634.243 142.7 633.619 142.7C632.976 142.7 632.44 142.867 632.012 143.2C631.583 143.529 631.26 143.976 631.04 144.543C630.826 145.11 630.719 145.743 630.719 146.443C630.719 147.162 630.829 147.793 631.048 148.336C631.267 148.879 631.59 149.302 632.019 149.607C632.452 149.912 632.986 150.064 633.619 150.064ZM642.259 152V141.029H644.324V142.771H644.438C644.638 142.181 644.99 141.717 645.495 141.379C646.004 141.036 646.581 140.864 647.224 140.864C647.357 140.864 647.514 140.869 647.695 140.879C647.881 140.888 648.026 140.9 648.131 140.914V142.957C648.045 142.933 647.893 142.907 647.673 142.879C647.454 142.845 647.235 142.829 647.016 142.829C646.512 142.829 646.062 142.936 645.666 143.15C645.276 143.36 644.966 143.652 644.738 144.029C644.509 144.4 644.395 144.824 644.395 145.3V152H642.259ZM653.878 152.243C653.183 152.243 652.554 152.114 651.992 151.857C651.43 151.595 650.985 151.217 650.657 150.721C650.333 150.226 650.171 149.619 650.171 148.9C650.171 148.281 650.29 147.771 650.528 147.371C650.766 146.971 651.088 146.655 651.492 146.421C651.897 146.188 652.349 146.012 652.849 145.893C653.349 145.774 653.859 145.683 654.378 145.621C655.035 145.545 655.568 145.483 655.978 145.436C656.388 145.383 656.685 145.3 656.871 145.186C657.057 145.071 657.149 144.886 657.149 144.629V144.579C657.149 143.955 656.973 143.471 656.621 143.129C656.273 142.786 655.754 142.614 655.064 142.614C654.345 142.614 653.778 142.774 653.364 143.093C652.954 143.407 652.671 143.757 652.514 144.143L650.507 143.686C650.745 143.019 651.092 142.481 651.549 142.071C652.011 141.657 652.542 141.357 653.142 141.172C653.742 140.981 654.373 140.886 655.035 140.886C655.473 140.886 655.938 140.938 656.428 141.043C656.923 141.143 657.385 141.329 657.814 141.6C658.247 141.871 658.602 142.26 658.878 142.764C659.154 143.264 659.292 143.914 659.292 144.714V152H657.207V150.5H657.121C656.983 150.776 656.776 151.048 656.499 151.314C656.223 151.581 655.868 151.802 655.435 151.979C655.002 152.155 654.483 152.243 653.878 152.243ZM654.342 150.529C654.933 150.529 655.438 150.412 655.857 150.179C656.28 149.945 656.602 149.64 656.821 149.264C657.045 148.883 657.157 148.476 657.157 148.043V146.629C657.08 146.705 656.933 146.776 656.714 146.843C656.499 146.905 656.254 146.96 655.978 147.007C655.702 147.05 655.433 147.091 655.171 147.129C654.909 147.162 654.69 147.191 654.514 147.214C654.099 147.267 653.721 147.355 653.378 147.479C653.04 147.602 652.769 147.781 652.564 148.014C652.364 148.243 652.264 148.548 652.264 148.929C652.264 149.457 652.459 149.857 652.849 150.129C653.24 150.395 653.738 150.529 654.342 150.529ZM662.941 152V141.029H664.991V142.814H665.127C665.356 142.21 665.73 141.738 666.249 141.4C666.768 141.057 667.389 140.886 668.113 140.886C668.846 140.886 669.46 141.057 669.956 141.4C670.456 141.743 670.825 142.214 671.063 142.814H671.177C671.439 142.229 671.856 141.762 672.427 141.414C672.999 141.062 673.679 140.886 674.47 140.886C675.465 140.886 676.277 141.198 676.906 141.822C677.539 142.445 677.856 143.386 677.856 144.643V152H675.72V144.843C675.72 144.1 675.518 143.562 675.113 143.229C674.708 142.895 674.225 142.729 673.663 142.729C672.968 142.729 672.427 142.943 672.041 143.371C671.656 143.795 671.463 144.341 671.463 145.007V152H669.334V144.707C669.334 144.112 669.149 143.633 668.777 143.271C668.406 142.91 667.922 142.729 667.327 142.729C666.922 142.729 666.549 142.836 666.206 143.05C665.868 143.26 665.594 143.552 665.384 143.929C665.18 144.305 665.077 144.741 665.077 145.236V152H662.941ZM681.523 152V141.029H683.573V142.814H683.708C683.937 142.21 684.311 141.738 684.83 141.4C685.349 141.057 685.97 140.886 686.694 140.886C687.427 140.886 688.042 141.057 688.537 141.4C689.037 141.743 689.406 142.214 689.644 142.814H689.758C690.02 142.229 690.437 141.762 691.008 141.414C691.58 141.062 692.261 140.886 693.051 140.886C694.046 140.886 694.858 141.198 695.487 141.822C696.12 142.445 696.437 143.386 696.437 144.643V152H694.301V144.843C694.301 144.1 694.099 143.562 693.694 143.229C693.289 142.895 692.806 142.729 692.244 142.729C691.549 142.729 691.008 142.943 690.623 143.371C690.237 143.795 690.044 144.341 690.044 145.007V152H687.915V144.707C687.915 144.112 687.73 143.633 687.358 143.271C686.987 142.91 686.504 142.729 685.908 142.729C685.504 142.729 685.13 142.836 684.787 143.05C684.449 143.26 684.175 143.552 683.966 143.929C683.761 144.305 683.658 144.741 683.658 145.236V152H681.523ZM700.104 152V141.029H702.24V152H700.104ZM701.182 139.336C700.811 139.336 700.492 139.212 700.225 138.964C699.963 138.712 699.832 138.412 699.832 138.064C699.832 137.712 699.963 137.412 700.225 137.164C700.492 136.912 700.811 136.786 701.182 136.786C701.554 136.786 701.871 136.912 702.132 137.164C702.399 137.412 702.532 137.712 702.532 138.064C702.532 138.412 702.399 138.712 702.132 138.964C701.871 139.212 701.554 139.336 701.182 139.336ZM708.053 145.486V152H705.917V141.029H707.967V142.814H708.103C708.355 142.233 708.751 141.767 709.289 141.414C709.832 141.062 710.515 140.886 711.339 140.886C712.086 140.886 712.741 141.043 713.303 141.357C713.865 141.667 714.301 142.129 714.61 142.743C714.92 143.357 715.074 144.117 715.074 145.021V152H712.939V145.279C712.939 144.483 712.732 143.862 712.317 143.414C711.903 142.962 711.334 142.736 710.61 142.736C710.115 142.736 709.674 142.843 709.289 143.057C708.908 143.271 708.605 143.586 708.382 144C708.163 144.41 708.053 144.905 708.053 145.486ZM723.343 156.343C722.472 156.343 721.722 156.229 721.093 156C720.469 155.771 719.96 155.469 719.565 155.093C719.169 154.717 718.874 154.305 718.679 153.857L720.515 153.1C720.643 153.31 720.815 153.531 721.029 153.764C721.248 154.002 721.543 154.205 721.915 154.371C722.291 154.538 722.774 154.621 723.365 154.621C724.174 154.621 724.843 154.424 725.372 154.029C725.9 153.638 726.165 153.014 726.165 152.157V150H726.029C725.9 150.233 725.715 150.493 725.472 150.779C725.234 151.064 724.905 151.312 724.486 151.521C724.067 151.731 723.522 151.836 722.85 151.836C721.984 151.836 721.203 151.633 720.508 151.229C719.817 150.819 719.269 150.217 718.865 149.421C718.465 148.621 718.265 147.638 718.265 146.471C718.265 145.305 718.462 144.305 718.858 143.471C719.258 142.638 719.805 142 720.5 141.557C721.196 141.11 721.984 140.886 722.865 140.886C723.546 140.886 724.096 141 724.515 141.229C724.934 141.452 725.26 141.714 725.493 142.014C725.731 142.314 725.915 142.579 726.043 142.807H726.2V141.029H728.293V152.243C728.293 153.186 728.074 153.96 727.636 154.564C727.198 155.169 726.605 155.617 725.857 155.907C725.115 156.198 724.277 156.343 723.343 156.343ZM723.322 150.064C723.936 150.064 724.455 149.921 724.879 149.636C725.307 149.345 725.631 148.931 725.85 148.393C726.074 147.85 726.186 147.2 726.186 146.443C726.186 145.705 726.077 145.055 725.857 144.493C725.638 143.931 725.317 143.493 724.893 143.179C724.469 142.86 723.946 142.7 723.322 142.7C722.679 142.7 722.143 142.867 721.715 143.2C721.286 143.529 720.962 143.976 720.743 144.543C720.529 145.11 720.422 145.743 720.422 146.443C720.422 147.162 720.531 147.793 720.75 148.336C720.969 148.879 721.293 149.302 721.722 149.607C722.155 149.912 722.688 150.064 723.322 150.064ZM750.411 142.129H748.183C748.097 141.652 747.937 141.233 747.704 140.872C747.471 140.51 747.185 140.202 746.847 139.95C746.509 139.698 746.13 139.507 745.711 139.379C745.297 139.25 744.856 139.186 744.39 139.186C743.547 139.186 742.792 139.398 742.125 139.822C741.464 140.245 740.94 140.867 740.554 141.686C740.173 142.505 739.983 143.505 739.983 144.686C739.983 145.876 740.173 146.881 740.554 147.7C740.94 148.519 741.466 149.138 742.133 149.557C742.799 149.976 743.549 150.186 744.383 150.186C744.845 150.186 745.283 150.124 745.697 150C746.116 149.871 746.494 149.683 746.833 149.436C747.171 149.188 747.456 148.886 747.69 148.529C747.928 148.167 748.092 147.752 748.183 147.286L750.411 147.293C750.292 148.012 750.061 148.674 749.718 149.279C749.38 149.879 748.944 150.398 748.411 150.836C747.883 151.269 747.278 151.605 746.597 151.843C745.916 152.081 745.173 152.2 744.368 152.2C743.102 152.2 741.973 151.9 740.983 151.3C739.992 150.695 739.211 149.831 738.64 148.707C738.073 147.583 737.79 146.243 737.79 144.686C737.79 143.124 738.076 141.783 738.647 140.664C739.218 139.541 739.999 138.679 740.99 138.079C741.98 137.474 743.106 137.172 744.368 137.172C745.144 137.172 745.868 137.283 746.54 137.507C747.216 137.726 747.823 138.05 748.361 138.479C748.899 138.902 749.344 139.422 749.697 140.036C750.049 140.645 750.287 141.343 750.411 142.129ZM755.821 137.372V152H753.685V137.372H755.821ZM766.449 147.45V141.029H768.592V152H766.492V150.1H766.377C766.125 150.686 765.72 151.174 765.163 151.564C764.611 151.95 763.923 152.143 763.099 152.143C762.394 152.143 761.77 151.988 761.227 151.679C760.689 151.364 760.265 150.9 759.956 150.286C759.651 149.671 759.499 148.912 759.499 148.007V141.029H761.634V147.75C761.634 148.498 761.842 149.093 762.256 149.536C762.67 149.979 763.208 150.2 763.87 150.2C764.27 150.2 764.668 150.1 765.063 149.9C765.463 149.7 765.794 149.398 766.056 148.993C766.323 148.588 766.453 148.074 766.449 147.45ZM772.437 152V137.372H774.573V142.807H774.701C774.825 142.579 775.004 142.314 775.237 142.014C775.47 141.714 775.794 141.452 776.209 141.229C776.623 141 777.17 140.886 777.851 140.886C778.737 140.886 779.528 141.11 780.223 141.557C780.918 142.005 781.463 142.65 781.859 143.493C782.259 144.336 782.459 145.35 782.459 146.536C782.459 147.721 782.261 148.738 781.866 149.586C781.47 150.429 780.928 151.079 780.237 151.536C779.547 151.988 778.759 152.214 777.873 152.214C777.206 152.214 776.661 152.102 776.237 151.879C775.818 151.655 775.49 151.393 775.251 151.093C775.013 150.793 774.83 150.526 774.701 150.293H774.523V152H772.437ZM774.53 146.514C774.53 147.286 774.642 147.962 774.866 148.543C775.09 149.124 775.413 149.579 775.837 149.907C776.261 150.231 776.78 150.393 777.394 150.393C778.032 150.393 778.566 150.224 778.994 149.886C779.423 149.543 779.747 149.079 779.966 148.493C780.19 147.907 780.301 147.248 780.301 146.514C780.301 145.791 780.192 145.141 779.973 144.564C779.759 143.988 779.435 143.533 779.001 143.2C778.573 142.867 778.037 142.7 777.394 142.7C776.775 142.7 776.251 142.86 775.823 143.179C775.399 143.498 775.078 143.943 774.859 144.514C774.64 145.086 774.53 145.752 774.53 146.514Z" fill="#838383"/>
<circle cx="6.47426" cy="6.47426" r="6.47426" transform="matrix(-1 0 0 1 574.949 220.473)" fill="#0FC295"/>
<circle cx="8.05334" cy="8.05334" r="8.05334" transform="matrix(-1 0 0 1 601.795 218.578)" fill="#0FC295"/>
<circle cx="9.94825" cy="9.94825" r="9.94825" transform="matrix(-1 0 0 1 632.744 216.684)" fill="#0FC295"/>
<circle cx="13.1064" cy="13.1064" r="13.1064" transform="matrix(-1 0 0 1 670.01 213.527)" fill="#0FC295"/>
<circle cx="15.633" cy="15.633" r="15.633" transform="matrix(-1 0 0 1 712.33 211)" stroke="#0FC295" stroke-width="2"/>
<circle cx="501.855" cy="226.947" r="6.47426" fill="#0FC295"/>
<circle cx="476.589" cy="226.631" r="8.05334" fill="#0FC295"/>
<circle cx="447.534" cy="226.632" r="9.94825" fill="#0FC295"/>
<circle cx="413.427" cy="226.634" r="13.1064" fill="#0FC295"/>
<circle cx="373.633" cy="226.633" r="15.633" stroke="#0FC295" stroke-width="2"/>
<defs>
<linearGradient id="paint0_linear_314_56" x1="533.002" y1="67.7876" x2="671.907" y2="67.7876" gradientUnits="userSpaceOnUse">
<stop offset="0.173077" stop-color="#575D5D"/>
<stop offset="0.975962" stop-color="#B6C3C2"/>
</linearGradient>
<linearGradient id="paint1_linear_314_56" x1="572.172" y1="67.7392" x2="443.952" y2="67.7392" gradientUnits="userSpaceOnUse">
<stop offset="0.173077" stop-color="#575D5D"/>
<stop offset="0.975962" stop-color="#B6C3C2"/>
</linearGradient>
</defs>
</svg>
